G04 #@! TF.GenerationSoftware,KiCad,Pcbnew,(5.1.0)-1*
G04 #@! TF.CreationDate,2021-07-08T22:58:53+02:00*
G04 #@! TF.ProjectId,test-case-controller,74657374-2d63-4617-9365-2d636f6e7472,V1.0*
G04 #@! TF.SameCoordinates,Original*
G04 #@! TF.FileFunction,Legend,Bot*
G04 #@! TF.FilePolarity,Positive*
%FSLAX46Y46*%
G04 Gerber Fmt 4.6, Leading zero omitted, Abs format (unit mm)*
G04 Created by KiCad (PCBNEW (5.1.0)-1) date 2021-07-08 22:58:53*
%MOMM*%
%LPD*%
G04 APERTURE LIST*
%ADD10C,0.150000*%
%ADD11C,0.300000*%
%ADD12C,0.050000*%
%ADD13C,0.010000*%
G04 APERTURE END LIST*
D10*
X33619047Y-19452380D02*
X33619047Y-20166666D01*
X33666666Y-20309523D01*
X33761904Y-20404761D01*
X33904761Y-20452380D01*
X34000000Y-20452380D01*
X32666666Y-20452380D02*
X33142857Y-20452380D01*
X33142857Y-19452380D01*
X31761904Y-20357142D02*
X31809523Y-20404761D01*
X31952380Y-20452380D01*
X32047619Y-20452380D01*
X32190476Y-20404761D01*
X32285714Y-20309523D01*
X32333333Y-20214285D01*
X32380952Y-20023809D01*
X32380952Y-19880952D01*
X32333333Y-19690476D01*
X32285714Y-19595238D01*
X32190476Y-19500000D01*
X32047619Y-19452380D01*
X31952380Y-19452380D01*
X31809523Y-19500000D01*
X31761904Y-19547619D01*
X31047619Y-19452380D02*
X31047619Y-20166666D01*
X31095238Y-20309523D01*
X31190476Y-20404761D01*
X31333333Y-20452380D01*
X31428571Y-20452380D01*
X30095238Y-20452380D02*
X30571428Y-20452380D01*
X30571428Y-19452380D01*
X29190476Y-20357142D02*
X29238095Y-20404761D01*
X29380952Y-20452380D01*
X29476190Y-20452380D01*
X29619047Y-20404761D01*
X29714285Y-20309523D01*
X29761904Y-20214285D01*
X29809523Y-20023809D01*
X29809523Y-19880952D01*
X29761904Y-19690476D01*
X29714285Y-19595238D01*
X29619047Y-19500000D01*
X29476190Y-19452380D01*
X29380952Y-19452380D01*
X29238095Y-19500000D01*
X29190476Y-19547619D01*
X28476190Y-19452380D02*
X28476190Y-20166666D01*
X28523809Y-20309523D01*
X28619047Y-20404761D01*
X28761904Y-20452380D01*
X28857142Y-20452380D01*
X27523809Y-20452380D02*
X28000000Y-20452380D01*
X28000000Y-19452380D01*
X26619047Y-20357142D02*
X26666666Y-20404761D01*
X26809523Y-20452380D01*
X26904761Y-20452380D01*
X27047619Y-20404761D01*
X27142857Y-20309523D01*
X27190476Y-20214285D01*
X27238095Y-20023809D01*
X27238095Y-19880952D01*
X27190476Y-19690476D01*
X27142857Y-19595238D01*
X27047619Y-19500000D01*
X26904761Y-19452380D01*
X26809523Y-19452380D01*
X26666666Y-19500000D01*
X26619047Y-19547619D01*
X25904761Y-19452380D02*
X25904761Y-20166666D01*
X25952380Y-20309523D01*
X26047619Y-20404761D01*
X26190476Y-20452380D01*
X26285714Y-20452380D01*
X24952380Y-20452380D02*
X25428571Y-20452380D01*
X25428571Y-19452380D01*
X24047619Y-20357142D02*
X24095238Y-20404761D01*
X24238095Y-20452380D01*
X24333333Y-20452380D01*
X24476190Y-20404761D01*
X24571428Y-20309523D01*
X24619047Y-20214285D01*
X24666666Y-20023809D01*
X24666666Y-19880952D01*
X24619047Y-19690476D01*
X24571428Y-19595238D01*
X24476190Y-19500000D01*
X24333333Y-19452380D01*
X24238095Y-19452380D01*
X24095238Y-19500000D01*
X24047619Y-19547619D01*
D11*
X111697857Y-77103571D02*
X111697857Y-75603571D01*
X111126428Y-75603571D01*
X110983571Y-75675000D01*
X110912142Y-75746428D01*
X110840714Y-75889285D01*
X110840714Y-76103571D01*
X110912142Y-76246428D01*
X110983571Y-76317857D01*
X111126428Y-76389285D01*
X111697857Y-76389285D01*
X110197857Y-77103571D02*
X110197857Y-76103571D01*
X110197857Y-75603571D02*
X110269285Y-75675000D01*
X110197857Y-75746428D01*
X110126428Y-75675000D01*
X110197857Y-75603571D01*
X110197857Y-75746428D01*
X109483571Y-76103571D02*
X109483571Y-77103571D01*
X109483571Y-76246428D02*
X109412142Y-76175000D01*
X109269285Y-76103571D01*
X109055000Y-76103571D01*
X108912142Y-76175000D01*
X108840714Y-76317857D01*
X108840714Y-77103571D01*
X107626428Y-76317857D02*
X107412142Y-76389285D01*
X107340714Y-76460714D01*
X107269285Y-76603571D01*
X107269285Y-76817857D01*
X107340714Y-76960714D01*
X107412142Y-77032142D01*
X107555000Y-77103571D01*
X108126428Y-77103571D01*
X108126428Y-75603571D01*
X107626428Y-75603571D01*
X107483571Y-75675000D01*
X107412142Y-75746428D01*
X107340714Y-75889285D01*
X107340714Y-76032142D01*
X107412142Y-76175000D01*
X107483571Y-76246428D01*
X107626428Y-76317857D01*
X108126428Y-76317857D01*
X105983571Y-76103571D02*
X105983571Y-77103571D01*
X106626428Y-76103571D02*
X106626428Y-76889285D01*
X106555000Y-77032142D01*
X106412142Y-77103571D01*
X106197857Y-77103571D01*
X106055000Y-77032142D01*
X105983571Y-76960714D01*
X105340714Y-77032142D02*
X105197857Y-77103571D01*
X104912142Y-77103571D01*
X104769285Y-77032142D01*
X104697857Y-76889285D01*
X104697857Y-76817857D01*
X104769285Y-76675000D01*
X104912142Y-76603571D01*
X105126428Y-76603571D01*
X105269285Y-76532142D01*
X105340714Y-76389285D01*
X105340714Y-76317857D01*
X105269285Y-76175000D01*
X105126428Y-76103571D01*
X104912142Y-76103571D01*
X104769285Y-76175000D01*
X102055000Y-76960714D02*
X102126428Y-77032142D01*
X102340714Y-77103571D01*
X102483571Y-77103571D01*
X102697857Y-77032142D01*
X102840714Y-76889285D01*
X102912142Y-76746428D01*
X102983571Y-76460714D01*
X102983571Y-76246428D01*
X102912142Y-75960714D01*
X102840714Y-75817857D01*
X102697857Y-75675000D01*
X102483571Y-75603571D01*
X102340714Y-75603571D01*
X102126428Y-75675000D01*
X102055000Y-75746428D01*
X101197857Y-77103571D02*
X101340714Y-77032142D01*
X101412142Y-76960714D01*
X101483571Y-76817857D01*
X101483571Y-76389285D01*
X101412142Y-76246428D01*
X101340714Y-76175000D01*
X101197857Y-76103571D01*
X100983571Y-76103571D01*
X100840714Y-76175000D01*
X100769285Y-76246428D01*
X100697857Y-76389285D01*
X100697857Y-76817857D01*
X100769285Y-76960714D01*
X100840714Y-77032142D01*
X100983571Y-77103571D01*
X101197857Y-77103571D01*
X100055000Y-76103571D02*
X100055000Y-77103571D01*
X100055000Y-76246428D02*
X99983571Y-76175000D01*
X99840714Y-76103571D01*
X99626428Y-76103571D01*
X99483571Y-76175000D01*
X99412142Y-76317857D01*
X99412142Y-77103571D01*
X98912142Y-76103571D02*
X98340714Y-76103571D01*
X98697857Y-75603571D02*
X98697857Y-76889285D01*
X98626428Y-77032142D01*
X98483571Y-77103571D01*
X98340714Y-77103571D01*
X97840714Y-77103571D02*
X97840714Y-76103571D01*
X97840714Y-76389285D02*
X97769285Y-76246428D01*
X97697857Y-76175000D01*
X97555000Y-76103571D01*
X97412142Y-76103571D01*
X96697857Y-77103571D02*
X96840714Y-77032142D01*
X96912142Y-76960714D01*
X96983571Y-76817857D01*
X96983571Y-76389285D01*
X96912142Y-76246428D01*
X96840714Y-76175000D01*
X96697857Y-76103571D01*
X96483571Y-76103571D01*
X96340714Y-76175000D01*
X96269285Y-76246428D01*
X96197857Y-76389285D01*
X96197857Y-76817857D01*
X96269285Y-76960714D01*
X96340714Y-77032142D01*
X96483571Y-77103571D01*
X96697857Y-77103571D01*
X95340714Y-77103571D02*
X95483571Y-77032142D01*
X95555000Y-76889285D01*
X95555000Y-75603571D01*
X94555000Y-77103571D02*
X94697857Y-77032142D01*
X94769285Y-76889285D01*
X94769285Y-75603571D01*
X93412142Y-77032142D02*
X93555000Y-77103571D01*
X93840714Y-77103571D01*
X93983571Y-77032142D01*
X94055000Y-76889285D01*
X94055000Y-76317857D01*
X93983571Y-76175000D01*
X93840714Y-76103571D01*
X93555000Y-76103571D01*
X93412142Y-76175000D01*
X93340714Y-76317857D01*
X93340714Y-76460714D01*
X94055000Y-76603571D01*
X92697857Y-77103571D02*
X92697857Y-76103571D01*
X92697857Y-76389285D02*
X92626428Y-76246428D01*
X92555000Y-76175000D01*
X92412142Y-76103571D01*
X92269285Y-76103571D01*
X91840714Y-77032142D02*
X91697857Y-77103571D01*
X91412142Y-77103571D01*
X91269285Y-77032142D01*
X91197857Y-76889285D01*
X91197857Y-76817857D01*
X91269285Y-76675000D01*
X91412142Y-76603571D01*
X91626428Y-76603571D01*
X91769285Y-76532142D01*
X91840714Y-76389285D01*
X91840714Y-76317857D01*
X91769285Y-76175000D01*
X91626428Y-76103571D01*
X91412142Y-76103571D01*
X91269285Y-76175000D01*
X111912142Y-78153571D02*
X111055000Y-78153571D01*
X111483571Y-79653571D02*
X111483571Y-78153571D01*
X109983571Y-79582142D02*
X110126428Y-79653571D01*
X110412142Y-79653571D01*
X110555000Y-79582142D01*
X110626428Y-79439285D01*
X110626428Y-78867857D01*
X110555000Y-78725000D01*
X110412142Y-78653571D01*
X110126428Y-78653571D01*
X109983571Y-78725000D01*
X109912142Y-78867857D01*
X109912142Y-79010714D01*
X110626428Y-79153571D01*
X109340714Y-79582142D02*
X109197857Y-79653571D01*
X108912142Y-79653571D01*
X108769285Y-79582142D01*
X108697857Y-79439285D01*
X108697857Y-79367857D01*
X108769285Y-79225000D01*
X108912142Y-79153571D01*
X109126428Y-79153571D01*
X109269285Y-79082142D01*
X109340714Y-78939285D01*
X109340714Y-78867857D01*
X109269285Y-78725000D01*
X109126428Y-78653571D01*
X108912142Y-78653571D01*
X108769285Y-78725000D01*
X108269285Y-78653571D02*
X107697857Y-78653571D01*
X108055000Y-78153571D02*
X108055000Y-79439285D01*
X107983571Y-79582142D01*
X107840714Y-79653571D01*
X107697857Y-79653571D01*
X107197857Y-79082142D02*
X106055000Y-79082142D01*
X104483571Y-79510714D02*
X104555000Y-79582142D01*
X104769285Y-79653571D01*
X104912142Y-79653571D01*
X105126428Y-79582142D01*
X105269285Y-79439285D01*
X105340714Y-79296428D01*
X105412142Y-79010714D01*
X105412142Y-78796428D01*
X105340714Y-78510714D01*
X105269285Y-78367857D01*
X105126428Y-78225000D01*
X104912142Y-78153571D01*
X104769285Y-78153571D01*
X104555000Y-78225000D01*
X104483571Y-78296428D01*
X103197857Y-79653571D02*
X103197857Y-78867857D01*
X103269285Y-78725000D01*
X103412142Y-78653571D01*
X103697857Y-78653571D01*
X103840714Y-78725000D01*
X103197857Y-79582142D02*
X103340714Y-79653571D01*
X103697857Y-79653571D01*
X103840714Y-79582142D01*
X103912142Y-79439285D01*
X103912142Y-79296428D01*
X103840714Y-79153571D01*
X103697857Y-79082142D01*
X103340714Y-79082142D01*
X103197857Y-79010714D01*
X102555000Y-79582142D02*
X102412142Y-79653571D01*
X102126428Y-79653571D01*
X101983571Y-79582142D01*
X101912142Y-79439285D01*
X101912142Y-79367857D01*
X101983571Y-79225000D01*
X102126428Y-79153571D01*
X102340714Y-79153571D01*
X102483571Y-79082142D01*
X102555000Y-78939285D01*
X102555000Y-78867857D01*
X102483571Y-78725000D01*
X102340714Y-78653571D01*
X102126428Y-78653571D01*
X101983571Y-78725000D01*
X100697857Y-79582142D02*
X100840714Y-79653571D01*
X101126428Y-79653571D01*
X101269285Y-79582142D01*
X101340714Y-79439285D01*
X101340714Y-78867857D01*
X101269285Y-78725000D01*
X101126428Y-78653571D01*
X100840714Y-78653571D01*
X100697857Y-78725000D01*
X100626428Y-78867857D01*
X100626428Y-79010714D01*
X101340714Y-79153571D01*
X97983571Y-79510714D02*
X98055000Y-79582142D01*
X98269285Y-79653571D01*
X98412142Y-79653571D01*
X98626428Y-79582142D01*
X98769285Y-79439285D01*
X98840714Y-79296428D01*
X98912142Y-79010714D01*
X98912142Y-78796428D01*
X98840714Y-78510714D01*
X98769285Y-78367857D01*
X98626428Y-78225000D01*
X98412142Y-78153571D01*
X98269285Y-78153571D01*
X98055000Y-78225000D01*
X97983571Y-78296428D01*
X97126428Y-79653571D02*
X97269285Y-79582142D01*
X97340714Y-79510714D01*
X97412142Y-79367857D01*
X97412142Y-78939285D01*
X97340714Y-78796428D01*
X97269285Y-78725000D01*
X97126428Y-78653571D01*
X96912142Y-78653571D01*
X96769285Y-78725000D01*
X96697857Y-78796428D01*
X96626428Y-78939285D01*
X96626428Y-79367857D01*
X96697857Y-79510714D01*
X96769285Y-79582142D01*
X96912142Y-79653571D01*
X97126428Y-79653571D01*
X95983571Y-78653571D02*
X95983571Y-79653571D01*
X95983571Y-78796428D02*
X95912142Y-78725000D01*
X95769285Y-78653571D01*
X95555000Y-78653571D01*
X95412142Y-78725000D01*
X95340714Y-78867857D01*
X95340714Y-79653571D01*
X94840714Y-78653571D02*
X94269285Y-78653571D01*
X94626428Y-78153571D02*
X94626428Y-79439285D01*
X94555000Y-79582142D01*
X94412142Y-79653571D01*
X94269285Y-79653571D01*
X93769285Y-79653571D02*
X93769285Y-78653571D01*
X93769285Y-78939285D02*
X93697857Y-78796428D01*
X93626428Y-78725000D01*
X93483571Y-78653571D01*
X93340714Y-78653571D01*
X92626428Y-79653571D02*
X92769285Y-79582142D01*
X92840714Y-79510714D01*
X92912142Y-79367857D01*
X92912142Y-78939285D01*
X92840714Y-78796428D01*
X92769285Y-78725000D01*
X92626428Y-78653571D01*
X92412142Y-78653571D01*
X92269285Y-78725000D01*
X92197857Y-78796428D01*
X92126428Y-78939285D01*
X92126428Y-79367857D01*
X92197857Y-79510714D01*
X92269285Y-79582142D01*
X92412142Y-79653571D01*
X92626428Y-79653571D01*
X91269285Y-79653571D02*
X91412142Y-79582142D01*
X91483571Y-79439285D01*
X91483571Y-78153571D01*
X90483571Y-79653571D02*
X90626428Y-79582142D01*
X90697857Y-79439285D01*
X90697857Y-78153571D01*
X89340714Y-79582142D02*
X89483571Y-79653571D01*
X89769285Y-79653571D01*
X89912142Y-79582142D01*
X89983571Y-79439285D01*
X89983571Y-78867857D01*
X89912142Y-78725000D01*
X89769285Y-78653571D01*
X89483571Y-78653571D01*
X89340714Y-78725000D01*
X89269285Y-78867857D01*
X89269285Y-79010714D01*
X89983571Y-79153571D01*
X88626428Y-79653571D02*
X88626428Y-78653571D01*
X88626428Y-78939285D02*
X88555000Y-78796428D01*
X88483571Y-78725000D01*
X88340714Y-78653571D01*
X88197857Y-78653571D01*
X110840714Y-82203571D02*
X111340714Y-81489285D01*
X111697857Y-82203571D02*
X111697857Y-80703571D01*
X111126428Y-80703571D01*
X110983571Y-80775000D01*
X110912142Y-80846428D01*
X110840714Y-80989285D01*
X110840714Y-81203571D01*
X110912142Y-81346428D01*
X110983571Y-81417857D01*
X111126428Y-81489285D01*
X111697857Y-81489285D01*
X109626428Y-82132142D02*
X109769285Y-82203571D01*
X110055000Y-82203571D01*
X110197857Y-82132142D01*
X110269285Y-81989285D01*
X110269285Y-81417857D01*
X110197857Y-81275000D01*
X110055000Y-81203571D01*
X109769285Y-81203571D01*
X109626428Y-81275000D01*
X109555000Y-81417857D01*
X109555000Y-81560714D01*
X110269285Y-81703571D01*
X109055000Y-81203571D02*
X108697857Y-82203571D01*
X108340714Y-81203571D01*
X105840714Y-82203571D02*
X106697857Y-82203571D01*
X106269285Y-82203571D02*
X106269285Y-80703571D01*
X106412142Y-80917857D01*
X106555000Y-81060714D01*
X106697857Y-81132142D01*
X105197857Y-82060714D02*
X105126428Y-82132142D01*
X105197857Y-82203571D01*
X105269285Y-82132142D01*
X105197857Y-82060714D01*
X105197857Y-82203571D01*
X104197857Y-80703571D02*
X104055000Y-80703571D01*
X103912142Y-80775000D01*
X103840714Y-80846428D01*
X103769285Y-80989285D01*
X103697857Y-81275000D01*
X103697857Y-81632142D01*
X103769285Y-81917857D01*
X103840714Y-82060714D01*
X103912142Y-82132142D01*
X104055000Y-82203571D01*
X104197857Y-82203571D01*
X104340714Y-82132142D01*
X104412142Y-82060714D01*
X104483571Y-81917857D01*
X104555000Y-81632142D01*
X104555000Y-81275000D01*
X104483571Y-80989285D01*
X104412142Y-80846428D01*
X104340714Y-80775000D01*
X104197857Y-80703571D01*
X101483571Y-82775000D02*
X101555000Y-82703571D01*
X101697857Y-82489285D01*
X101769285Y-82346428D01*
X101840714Y-82132142D01*
X101912142Y-81775000D01*
X101912142Y-81489285D01*
X101840714Y-81132142D01*
X101769285Y-80917857D01*
X101697857Y-80775000D01*
X101555000Y-80560714D01*
X101483571Y-80489285D01*
X100983571Y-80846428D02*
X100912142Y-80775000D01*
X100769285Y-80703571D01*
X100412142Y-80703571D01*
X100269285Y-80775000D01*
X100197857Y-80846428D01*
X100126428Y-80989285D01*
X100126428Y-81132142D01*
X100197857Y-81346428D01*
X101055000Y-82203571D01*
X100126428Y-82203571D01*
X99197857Y-80703571D02*
X99055000Y-80703571D01*
X98912142Y-80775000D01*
X98840714Y-80846428D01*
X98769285Y-80989285D01*
X98697857Y-81275000D01*
X98697857Y-81632142D01*
X98769285Y-81917857D01*
X98840714Y-82060714D01*
X98912142Y-82132142D01*
X99055000Y-82203571D01*
X99197857Y-82203571D01*
X99340714Y-82132142D01*
X99412142Y-82060714D01*
X99483571Y-81917857D01*
X99555000Y-81632142D01*
X99555000Y-81275000D01*
X99483571Y-80989285D01*
X99412142Y-80846428D01*
X99340714Y-80775000D01*
X99197857Y-80703571D01*
X98126428Y-80846428D02*
X98055000Y-80775000D01*
X97912142Y-80703571D01*
X97555000Y-80703571D01*
X97412142Y-80775000D01*
X97340714Y-80846428D01*
X97269285Y-80989285D01*
X97269285Y-81132142D01*
X97340714Y-81346428D01*
X98197857Y-82203571D01*
X97269285Y-82203571D01*
X95840714Y-82203571D02*
X96697857Y-82203571D01*
X96269285Y-82203571D02*
X96269285Y-80703571D01*
X96412142Y-80917857D01*
X96555000Y-81060714D01*
X96697857Y-81132142D01*
X95197857Y-81632142D02*
X94055000Y-81632142D01*
X93055000Y-80703571D02*
X92912142Y-80703571D01*
X92769285Y-80775000D01*
X92697857Y-80846428D01*
X92626428Y-80989285D01*
X92555000Y-81275000D01*
X92555000Y-81632142D01*
X92626428Y-81917857D01*
X92697857Y-82060714D01*
X92769285Y-82132142D01*
X92912142Y-82203571D01*
X93055000Y-82203571D01*
X93197857Y-82132142D01*
X93269285Y-82060714D01*
X93340714Y-81917857D01*
X93412142Y-81632142D01*
X93412142Y-81275000D01*
X93340714Y-80989285D01*
X93269285Y-80846428D01*
X93197857Y-80775000D01*
X93055000Y-80703571D01*
X91269285Y-81203571D02*
X91269285Y-82203571D01*
X91626428Y-80632142D02*
X91983571Y-81703571D01*
X91055000Y-81703571D01*
X90483571Y-81632142D02*
X89340714Y-81632142D01*
X87840714Y-82203571D02*
X88697857Y-82203571D01*
X88269285Y-82203571D02*
X88269285Y-80703571D01*
X88412142Y-80917857D01*
X88555000Y-81060714D01*
X88697857Y-81132142D01*
X86912142Y-80703571D02*
X86769285Y-80703571D01*
X86626428Y-80775000D01*
X86555000Y-80846428D01*
X86483571Y-80989285D01*
X86412142Y-81275000D01*
X86412142Y-81632142D01*
X86483571Y-81917857D01*
X86555000Y-82060714D01*
X86626428Y-82132142D01*
X86769285Y-82203571D01*
X86912142Y-82203571D01*
X87055000Y-82132142D01*
X87126428Y-82060714D01*
X87197857Y-81917857D01*
X87269285Y-81632142D01*
X87269285Y-81275000D01*
X87197857Y-80989285D01*
X87126428Y-80846428D01*
X87055000Y-80775000D01*
X86912142Y-80703571D01*
X85912142Y-82775000D02*
X85840714Y-82703571D01*
X85697857Y-82489285D01*
X85626428Y-82346428D01*
X85555000Y-82132142D01*
X85483571Y-81775000D01*
X85483571Y-81489285D01*
X85555000Y-81132142D01*
X85626428Y-80917857D01*
X85697857Y-80775000D01*
X85840714Y-80560714D01*
X85912142Y-80489285D01*
X111697857Y-84753571D02*
X111697857Y-83253571D01*
X111340714Y-83253571D01*
X111126428Y-83325000D01*
X110983571Y-83467857D01*
X110912142Y-83610714D01*
X110840714Y-83896428D01*
X110840714Y-84110714D01*
X110912142Y-84396428D01*
X110983571Y-84539285D01*
X111126428Y-84682142D01*
X111340714Y-84753571D01*
X111697857Y-84753571D01*
X109626428Y-84682142D02*
X109769285Y-84753571D01*
X110055000Y-84753571D01*
X110197857Y-84682142D01*
X110269285Y-84539285D01*
X110269285Y-83967857D01*
X110197857Y-83825000D01*
X110055000Y-83753571D01*
X109769285Y-83753571D01*
X109626428Y-83825000D01*
X109555000Y-83967857D01*
X109555000Y-84110714D01*
X110269285Y-84253571D01*
X108983571Y-84682142D02*
X108840714Y-84753571D01*
X108555000Y-84753571D01*
X108412142Y-84682142D01*
X108340714Y-84539285D01*
X108340714Y-84467857D01*
X108412142Y-84325000D01*
X108555000Y-84253571D01*
X108769285Y-84253571D01*
X108912142Y-84182142D01*
X108983571Y-84039285D01*
X108983571Y-83967857D01*
X108912142Y-83825000D01*
X108769285Y-83753571D01*
X108555000Y-83753571D01*
X108412142Y-83825000D01*
X107697857Y-84753571D02*
X107697857Y-83753571D01*
X107697857Y-83253571D02*
X107769285Y-83325000D01*
X107697857Y-83396428D01*
X107626428Y-83325000D01*
X107697857Y-83253571D01*
X107697857Y-83396428D01*
X106340714Y-83753571D02*
X106340714Y-84967857D01*
X106412142Y-85110714D01*
X106483571Y-85182142D01*
X106626428Y-85253571D01*
X106840714Y-85253571D01*
X106983571Y-85182142D01*
X106340714Y-84682142D02*
X106483571Y-84753571D01*
X106769285Y-84753571D01*
X106912142Y-84682142D01*
X106983571Y-84610714D01*
X107055000Y-84467857D01*
X107055000Y-84039285D01*
X106983571Y-83896428D01*
X106912142Y-83825000D01*
X106769285Y-83753571D01*
X106483571Y-83753571D01*
X106340714Y-83825000D01*
X105626428Y-83753571D02*
X105626428Y-84753571D01*
X105626428Y-83896428D02*
X105555000Y-83825000D01*
X105412142Y-83753571D01*
X105197857Y-83753571D01*
X105055000Y-83825000D01*
X104983571Y-83967857D01*
X104983571Y-84753571D01*
X103126428Y-84753571D02*
X103126428Y-83253571D01*
X103126428Y-83825000D02*
X102983571Y-83753571D01*
X102697857Y-83753571D01*
X102555000Y-83825000D01*
X102483571Y-83896428D01*
X102412142Y-84039285D01*
X102412142Y-84467857D01*
X102483571Y-84610714D01*
X102555000Y-84682142D01*
X102697857Y-84753571D01*
X102983571Y-84753571D01*
X103126428Y-84682142D01*
X101912142Y-83753571D02*
X101555000Y-84753571D01*
X101197857Y-83753571D02*
X101555000Y-84753571D01*
X101697857Y-85110714D01*
X101769285Y-85182142D01*
X101912142Y-85253571D01*
X99697857Y-83253571D02*
X98840714Y-83253571D01*
X99269285Y-84753571D02*
X99269285Y-83253571D01*
X98340714Y-84753571D02*
X98340714Y-83253571D01*
X97697857Y-84753571D02*
X97697857Y-83967857D01*
X97769285Y-83825000D01*
X97912142Y-83753571D01*
X98126428Y-83753571D01*
X98269285Y-83825000D01*
X98340714Y-83896428D01*
X96769285Y-84753571D02*
X96912142Y-84682142D01*
X96983571Y-84610714D01*
X97055000Y-84467857D01*
X97055000Y-84039285D01*
X96983571Y-83896428D01*
X96912142Y-83825000D01*
X96769285Y-83753571D01*
X96555000Y-83753571D01*
X96412142Y-83825000D01*
X96340714Y-83896428D01*
X96269285Y-84039285D01*
X96269285Y-84467857D01*
X96340714Y-84610714D01*
X96412142Y-84682142D01*
X96555000Y-84753571D01*
X96769285Y-84753571D01*
X95626428Y-84753571D02*
X95626428Y-83753571D01*
X95626428Y-83896428D02*
X95555000Y-83825000D01*
X95412142Y-83753571D01*
X95197857Y-83753571D01*
X95055000Y-83825000D01*
X94983571Y-83967857D01*
X94983571Y-84753571D01*
X94983571Y-83967857D02*
X94912142Y-83825000D01*
X94769285Y-83753571D01*
X94555000Y-83753571D01*
X94412142Y-83825000D01*
X94340714Y-83967857D01*
X94340714Y-84753571D01*
X92983571Y-84753571D02*
X92983571Y-83967857D01*
X93055000Y-83825000D01*
X93197857Y-83753571D01*
X93483571Y-83753571D01*
X93626428Y-83825000D01*
X92983571Y-84682142D02*
X93126428Y-84753571D01*
X93483571Y-84753571D01*
X93626428Y-84682142D01*
X93697857Y-84539285D01*
X93697857Y-84396428D01*
X93626428Y-84253571D01*
X93483571Y-84182142D01*
X93126428Y-84182142D01*
X92983571Y-84110714D01*
X92340714Y-84682142D02*
X92197857Y-84753571D01*
X91912142Y-84753571D01*
X91769285Y-84682142D01*
X91697857Y-84539285D01*
X91697857Y-84467857D01*
X91769285Y-84325000D01*
X91912142Y-84253571D01*
X92126428Y-84253571D01*
X92269285Y-84182142D01*
X92340714Y-84039285D01*
X92340714Y-83967857D01*
X92269285Y-83825000D01*
X92126428Y-83753571D01*
X91912142Y-83753571D01*
X91769285Y-83825000D01*
X89126428Y-83325000D02*
X89269285Y-83253571D01*
X89483571Y-83253571D01*
X89697857Y-83325000D01*
X89840714Y-83467857D01*
X89912142Y-83610714D01*
X89983571Y-83896428D01*
X89983571Y-84110714D01*
X89912142Y-84396428D01*
X89840714Y-84539285D01*
X89697857Y-84682142D01*
X89483571Y-84753571D01*
X89340714Y-84753571D01*
X89126428Y-84682142D01*
X89055000Y-84610714D01*
X89055000Y-84110714D01*
X89340714Y-84110714D01*
X88412142Y-84753571D02*
X88412142Y-83753571D01*
X88412142Y-84039285D02*
X88340714Y-83896428D01*
X88269285Y-83825000D01*
X88126428Y-83753571D01*
X87983571Y-83753571D01*
X86840714Y-84753571D02*
X86840714Y-83967857D01*
X86912142Y-83825000D01*
X87055000Y-83753571D01*
X87340714Y-83753571D01*
X87483571Y-83825000D01*
X86840714Y-84682142D02*
X86983571Y-84753571D01*
X87340714Y-84753571D01*
X87483571Y-84682142D01*
X87555000Y-84539285D01*
X87555000Y-84396428D01*
X87483571Y-84253571D01*
X87340714Y-84182142D01*
X86983571Y-84182142D01*
X86840714Y-84110714D01*
X86269285Y-83753571D02*
X85912142Y-84753571D01*
X85555000Y-83753571D01*
X84412142Y-84682142D02*
X84555000Y-84753571D01*
X84840714Y-84753571D01*
X84983571Y-84682142D01*
X85055000Y-84539285D01*
X85055000Y-83967857D01*
X84983571Y-83825000D01*
X84840714Y-83753571D01*
X84555000Y-83753571D01*
X84412142Y-83825000D01*
X84340714Y-83967857D01*
X84340714Y-84110714D01*
X85055000Y-84253571D01*
X83697857Y-84753571D02*
X83697857Y-83253571D01*
X83555000Y-84182142D02*
X83126428Y-84753571D01*
X83126428Y-83753571D02*
X83697857Y-84325000D01*
X81840714Y-84753571D02*
X81840714Y-83967857D01*
X81912142Y-83825000D01*
X82055000Y-83753571D01*
X82340714Y-83753571D01*
X82483571Y-83825000D01*
X81840714Y-84682142D02*
X81983571Y-84753571D01*
X82340714Y-84753571D01*
X82483571Y-84682142D01*
X82555000Y-84539285D01*
X82555000Y-84396428D01*
X82483571Y-84253571D01*
X82340714Y-84182142D01*
X81983571Y-84182142D01*
X81840714Y-84110714D01*
X81126428Y-84753571D02*
X81126428Y-83753571D01*
X81126428Y-83896428D02*
X81055000Y-83825000D01*
X80912142Y-83753571D01*
X80697857Y-83753571D01*
X80555000Y-83825000D01*
X80483571Y-83967857D01*
X80483571Y-84753571D01*
X80483571Y-83967857D02*
X80412142Y-83825000D01*
X80269285Y-83753571D01*
X80055000Y-83753571D01*
X79912142Y-83825000D01*
X79840714Y-83967857D01*
X79840714Y-84753571D01*
X79126428Y-83753571D02*
X79126428Y-85253571D01*
X79126428Y-83825000D02*
X78983571Y-83753571D01*
X78697857Y-83753571D01*
X78555000Y-83825000D01*
X78483571Y-83896428D01*
X78412142Y-84039285D01*
X78412142Y-84467857D01*
X78483571Y-84610714D01*
X78555000Y-84682142D01*
X78697857Y-84753571D01*
X78983571Y-84753571D01*
X79126428Y-84682142D01*
D12*
X15000000Y-115000000D02*
X15000000Y-15000000D01*
X15000000Y-115000000D02*
X115000000Y-115000000D01*
X115000000Y-15000000D02*
X115000000Y-115000000D01*
X15000000Y-15000000D02*
X115000000Y-15000000D01*
D13*
G36*
X28840986Y-74202998D02*
G01*
X28682994Y-74203863D01*
X28568653Y-74206205D01*
X28490593Y-74210762D01*
X28441446Y-74218270D01*
X28413841Y-74229466D01*
X28400408Y-74245088D01*
X28393779Y-74265873D01*
X28393135Y-74268563D01*
X28383065Y-74317113D01*
X28364425Y-74412905D01*
X28339155Y-74545743D01*
X28309193Y-74705431D01*
X28276478Y-74881774D01*
X28275336Y-74887967D01*
X28242567Y-75060782D01*
X28211907Y-75213469D01*
X28185336Y-75336871D01*
X28164833Y-75421831D01*
X28152374Y-75459190D01*
X28151780Y-75459852D01*
X28115081Y-75478095D01*
X28039414Y-75508497D01*
X27941122Y-75544493D01*
X27940575Y-75544685D01*
X27816767Y-75591222D01*
X27670804Y-75650504D01*
X27533219Y-75710109D01*
X27526707Y-75713056D01*
X27302610Y-75814765D01*
X26806381Y-75475897D01*
X26654154Y-75372592D01*
X26516259Y-75280237D01*
X26400685Y-75204084D01*
X26315421Y-75149385D01*
X26268456Y-75121393D01*
X26263996Y-75119317D01*
X26229866Y-75128560D01*
X26166119Y-75173156D01*
X26070269Y-75255209D01*
X25939831Y-75376821D01*
X25806672Y-75506205D01*
X25678306Y-75633702D01*
X25563419Y-75750046D01*
X25468927Y-75848052D01*
X25401747Y-75920536D01*
X25368794Y-75960313D01*
X25367568Y-75962361D01*
X25363926Y-75989656D01*
X25377650Y-76034234D01*
X25412131Y-76102112D01*
X25470761Y-76199311D01*
X25556930Y-76331851D01*
X25671800Y-76502476D01*
X25773746Y-76652655D01*
X25864877Y-76787350D01*
X25939927Y-76898740D01*
X25993631Y-76979005D01*
X26020720Y-77020325D01*
X26022426Y-77023130D01*
X26019118Y-77062721D01*
X25994047Y-77139669D01*
X25952202Y-77239432D01*
X25937288Y-77271291D01*
X25872214Y-77413226D01*
X25802788Y-77574273D01*
X25746391Y-77713621D01*
X25705753Y-77817044D01*
X25673474Y-77895642D01*
X25654822Y-77936720D01*
X25652503Y-77939885D01*
X25618197Y-77945128D01*
X25537331Y-77959494D01*
X25420657Y-77980937D01*
X25278925Y-78007413D01*
X25122890Y-78036877D01*
X24963302Y-78067283D01*
X24810915Y-78096588D01*
X24676479Y-78122745D01*
X24570748Y-78143710D01*
X24504474Y-78157439D01*
X24488218Y-78161320D01*
X24471427Y-78170900D01*
X24458751Y-78192536D01*
X24449622Y-78233531D01*
X24443469Y-78301189D01*
X24439720Y-78402812D01*
X24437808Y-78545703D01*
X24437160Y-78737165D01*
X24437126Y-78815645D01*
X24437126Y-79453906D01*
X24590402Y-79484160D01*
X24675678Y-79500564D01*
X24802930Y-79524509D01*
X24956685Y-79553107D01*
X25121466Y-79583467D01*
X25167011Y-79591806D01*
X25319068Y-79621370D01*
X25451532Y-79650442D01*
X25553286Y-79676329D01*
X25613212Y-79696337D01*
X25623195Y-79702301D01*
X25647707Y-79744534D01*
X25682852Y-79826370D01*
X25721827Y-79931683D01*
X25729558Y-79954368D01*
X25780640Y-80095018D01*
X25844046Y-80253714D01*
X25906096Y-80396225D01*
X25906402Y-80396886D01*
X26009733Y-80620440D01*
X25330039Y-81620232D01*
X25766379Y-82057300D01*
X25898351Y-82187381D01*
X26018721Y-82302048D01*
X26120727Y-82395181D01*
X26197609Y-82460658D01*
X26242607Y-82492357D01*
X26249062Y-82494368D01*
X26286960Y-82478529D01*
X26364292Y-82434496D01*
X26472611Y-82367490D01*
X26603468Y-82282734D01*
X26744948Y-82187816D01*
X26888539Y-82090998D01*
X27016565Y-82006751D01*
X27120895Y-81940258D01*
X27193400Y-81896702D01*
X27225842Y-81881264D01*
X27265424Y-81894328D01*
X27340481Y-81928750D01*
X27435532Y-81977380D01*
X27445608Y-81982785D01*
X27573609Y-82046980D01*
X27661382Y-82078463D01*
X27715972Y-82078798D01*
X27744425Y-82049548D01*
X27744590Y-82049138D01*
X27758812Y-82014498D01*
X27792731Y-81932269D01*
X27843716Y-81808814D01*
X27909138Y-81650498D01*
X27986366Y-81463686D01*
X28072771Y-81254742D01*
X28156449Y-81052446D01*
X28248412Y-80829200D01*
X28332850Y-80622392D01*
X28407231Y-80438362D01*
X28469026Y-80283451D01*
X28515703Y-80163996D01*
X28544732Y-80086339D01*
X28553678Y-80057356D01*
X28531244Y-80024110D01*
X28472561Y-79971123D01*
X28394311Y-79912704D01*
X28171466Y-79727952D01*
X27997282Y-79516182D01*
X27873846Y-79281856D01*
X27803246Y-79029434D01*
X27787569Y-78763377D01*
X27798964Y-78640575D01*
X27861050Y-78385793D01*
X27967977Y-78160801D01*
X28113111Y-77967817D01*
X28289822Y-77809061D01*
X28491478Y-77686750D01*
X28711446Y-77603105D01*
X28943094Y-77560344D01*
X29179791Y-77560687D01*
X29414905Y-77606352D01*
X29641804Y-77699559D01*
X29853856Y-77842527D01*
X29942364Y-77923383D01*
X30112111Y-78131007D01*
X30230301Y-78357895D01*
X30297722Y-78597433D01*
X30315160Y-78843007D01*
X30283402Y-79088003D01*
X30203235Y-79325808D01*
X30075445Y-79549807D01*
X29900820Y-79753387D01*
X29705688Y-79912704D01*
X29624409Y-79973602D01*
X29566991Y-80026015D01*
X29546322Y-80057406D01*
X29557144Y-80091639D01*
X29587923Y-80173419D01*
X29636126Y-80296407D01*
X29699222Y-80454263D01*
X29774678Y-80640649D01*
X29859962Y-80849226D01*
X29943781Y-81052496D01*
X30036255Y-81275933D01*
X30121911Y-81482984D01*
X30198118Y-81667286D01*
X30262247Y-81822475D01*
X30311668Y-81942188D01*
X30343752Y-82020061D01*
X30355641Y-82049138D01*
X30383726Y-82078677D01*
X30438051Y-82078591D01*
X30525605Y-82047326D01*
X30653381Y-81983329D01*
X30654392Y-81982785D01*
X30750598Y-81933121D01*
X30828369Y-81896945D01*
X30872223Y-81881408D01*
X30874158Y-81881264D01*
X30907171Y-81897024D01*
X30980054Y-81940850D01*
X31084678Y-82007557D01*
X31212910Y-82091964D01*
X31355052Y-82187816D01*
X31499767Y-82284867D01*
X31630196Y-82369270D01*
X31737890Y-82435801D01*
X31814402Y-82479238D01*
X31850938Y-82494368D01*
X31884582Y-82474482D01*
X31952224Y-82418903D01*
X32047107Y-82333754D01*
X32162470Y-82225153D01*
X32291555Y-82099221D01*
X32333771Y-82057149D01*
X32770261Y-81619931D01*
X32438023Y-81132340D01*
X32337054Y-80982605D01*
X32248438Y-80848220D01*
X32177146Y-80736969D01*
X32128150Y-80656639D01*
X32106422Y-80615014D01*
X32105785Y-80612053D01*
X32117240Y-80572818D01*
X32148051Y-80493895D01*
X32192884Y-80388509D01*
X32224353Y-80317954D01*
X32283192Y-80182876D01*
X32338604Y-80046409D01*
X32381564Y-79931103D01*
X32393234Y-79895977D01*
X32426389Y-79802174D01*
X32458799Y-79729694D01*
X32476601Y-79702301D01*
X32515886Y-79685536D01*
X32601626Y-79661770D01*
X32722697Y-79633697D01*
X32867973Y-79604009D01*
X32932988Y-79591806D01*
X33098087Y-79561468D01*
X33256448Y-79532093D01*
X33392596Y-79506569D01*
X33491057Y-79487785D01*
X33509598Y-79484160D01*
X33662873Y-79453906D01*
X33662873Y-78815645D01*
X33662529Y-78605770D01*
X33661116Y-78446980D01*
X33658064Y-78331973D01*
X33652803Y-78253446D01*
X33644763Y-78204096D01*
X33633373Y-78176619D01*
X33618063Y-78163713D01*
X33611782Y-78161320D01*
X33573896Y-78152833D01*
X33490195Y-78135900D01*
X33371433Y-78112566D01*
X33228361Y-78084875D01*
X33071732Y-78054873D01*
X32912297Y-78024604D01*
X32760809Y-77996115D01*
X32628019Y-77971449D01*
X32524681Y-77952651D01*
X32461545Y-77941767D01*
X32447497Y-77939885D01*
X32434770Y-77914704D01*
X32406600Y-77847622D01*
X32368252Y-77751333D01*
X32353609Y-77713621D01*
X32294548Y-77567921D01*
X32225000Y-77406951D01*
X32162712Y-77271291D01*
X32116879Y-77167561D01*
X32086387Y-77082326D01*
X32076208Y-77030126D01*
X32077831Y-77023130D01*
X32099343Y-76990102D01*
X32148465Y-76916643D01*
X32219923Y-76810577D01*
X32308445Y-76679726D01*
X32408759Y-76531912D01*
X32428594Y-76502734D01*
X32544988Y-76329863D01*
X32630548Y-76198226D01*
X32688684Y-76101761D01*
X32722808Y-76034408D01*
X32736331Y-75990106D01*
X32732664Y-75962794D01*
X32732570Y-75962620D01*
X32703707Y-75926746D01*
X32639867Y-75857391D01*
X32547969Y-75761745D01*
X32434933Y-75646999D01*
X32307679Y-75520341D01*
X32293328Y-75506205D01*
X32132957Y-75350903D01*
X32009195Y-75236870D01*
X31919555Y-75162002D01*
X31861552Y-75124196D01*
X31836004Y-75119317D01*
X31798718Y-75140603D01*
X31721343Y-75189773D01*
X31611867Y-75261575D01*
X31478280Y-75350755D01*
X31328570Y-75452063D01*
X31293618Y-75475897D01*
X30797390Y-75814765D01*
X30573293Y-75713056D01*
X30437011Y-75653783D01*
X30290724Y-75594170D01*
X30164965Y-75546640D01*
X30159425Y-75544685D01*
X30061057Y-75508677D01*
X29985229Y-75478229D01*
X29948282Y-75459905D01*
X29948220Y-75459852D01*
X29936496Y-75426729D01*
X29916568Y-75345267D01*
X29890413Y-75224625D01*
X29860010Y-75073959D01*
X29827337Y-74902428D01*
X29824664Y-74887967D01*
X29791890Y-74711235D01*
X29761802Y-74550810D01*
X29736339Y-74416888D01*
X29717441Y-74319663D01*
X29707047Y-74269332D01*
X29706865Y-74268563D01*
X29700539Y-74247153D01*
X29688239Y-74230988D01*
X29662594Y-74219331D01*
X29616235Y-74211445D01*
X29541792Y-74206593D01*
X29431895Y-74204039D01*
X29279175Y-74203045D01*
X29076262Y-74202874D01*
X29050000Y-74202874D01*
X28840986Y-74202998D01*
X28840986Y-74202998D01*
G37*
X28840986Y-74202998D02*
X28682994Y-74203863D01*
X28568653Y-74206205D01*
X28490593Y-74210762D01*
X28441446Y-74218270D01*
X28413841Y-74229466D01*
X28400408Y-74245088D01*
X28393779Y-74265873D01*
X28393135Y-74268563D01*
X28383065Y-74317113D01*
X28364425Y-74412905D01*
X28339155Y-74545743D01*
X28309193Y-74705431D01*
X28276478Y-74881774D01*
X28275336Y-74887967D01*
X28242567Y-75060782D01*
X28211907Y-75213469D01*
X28185336Y-75336871D01*
X28164833Y-75421831D01*
X28152374Y-75459190D01*
X28151780Y-75459852D01*
X28115081Y-75478095D01*
X28039414Y-75508497D01*
X27941122Y-75544493D01*
X27940575Y-75544685D01*
X27816767Y-75591222D01*
X27670804Y-75650504D01*
X27533219Y-75710109D01*
X27526707Y-75713056D01*
X27302610Y-75814765D01*
X26806381Y-75475897D01*
X26654154Y-75372592D01*
X26516259Y-75280237D01*
X26400685Y-75204084D01*
X26315421Y-75149385D01*
X26268456Y-75121393D01*
X26263996Y-75119317D01*
X26229866Y-75128560D01*
X26166119Y-75173156D01*
X26070269Y-75255209D01*
X25939831Y-75376821D01*
X25806672Y-75506205D01*
X25678306Y-75633702D01*
X25563419Y-75750046D01*
X25468927Y-75848052D01*
X25401747Y-75920536D01*
X25368794Y-75960313D01*
X25367568Y-75962361D01*
X25363926Y-75989656D01*
X25377650Y-76034234D01*
X25412131Y-76102112D01*
X25470761Y-76199311D01*
X25556930Y-76331851D01*
X25671800Y-76502476D01*
X25773746Y-76652655D01*
X25864877Y-76787350D01*
X25939927Y-76898740D01*
X25993631Y-76979005D01*
X26020720Y-77020325D01*
X26022426Y-77023130D01*
X26019118Y-77062721D01*
X25994047Y-77139669D01*
X25952202Y-77239432D01*
X25937288Y-77271291D01*
X25872214Y-77413226D01*
X25802788Y-77574273D01*
X25746391Y-77713621D01*
X25705753Y-77817044D01*
X25673474Y-77895642D01*
X25654822Y-77936720D01*
X25652503Y-77939885D01*
X25618197Y-77945128D01*
X25537331Y-77959494D01*
X25420657Y-77980937D01*
X25278925Y-78007413D01*
X25122890Y-78036877D01*
X24963302Y-78067283D01*
X24810915Y-78096588D01*
X24676479Y-78122745D01*
X24570748Y-78143710D01*
X24504474Y-78157439D01*
X24488218Y-78161320D01*
X24471427Y-78170900D01*
X24458751Y-78192536D01*
X24449622Y-78233531D01*
X24443469Y-78301189D01*
X24439720Y-78402812D01*
X24437808Y-78545703D01*
X24437160Y-78737165D01*
X24437126Y-78815645D01*
X24437126Y-79453906D01*
X24590402Y-79484160D01*
X24675678Y-79500564D01*
X24802930Y-79524509D01*
X24956685Y-79553107D01*
X25121466Y-79583467D01*
X25167011Y-79591806D01*
X25319068Y-79621370D01*
X25451532Y-79650442D01*
X25553286Y-79676329D01*
X25613212Y-79696337D01*
X25623195Y-79702301D01*
X25647707Y-79744534D01*
X25682852Y-79826370D01*
X25721827Y-79931683D01*
X25729558Y-79954368D01*
X25780640Y-80095018D01*
X25844046Y-80253714D01*
X25906096Y-80396225D01*
X25906402Y-80396886D01*
X26009733Y-80620440D01*
X25330039Y-81620232D01*
X25766379Y-82057300D01*
X25898351Y-82187381D01*
X26018721Y-82302048D01*
X26120727Y-82395181D01*
X26197609Y-82460658D01*
X26242607Y-82492357D01*
X26249062Y-82494368D01*
X26286960Y-82478529D01*
X26364292Y-82434496D01*
X26472611Y-82367490D01*
X26603468Y-82282734D01*
X26744948Y-82187816D01*
X26888539Y-82090998D01*
X27016565Y-82006751D01*
X27120895Y-81940258D01*
X27193400Y-81896702D01*
X27225842Y-81881264D01*
X27265424Y-81894328D01*
X27340481Y-81928750D01*
X27435532Y-81977380D01*
X27445608Y-81982785D01*
X27573609Y-82046980D01*
X27661382Y-82078463D01*
X27715972Y-82078798D01*
X27744425Y-82049548D01*
X27744590Y-82049138D01*
X27758812Y-82014498D01*
X27792731Y-81932269D01*
X27843716Y-81808814D01*
X27909138Y-81650498D01*
X27986366Y-81463686D01*
X28072771Y-81254742D01*
X28156449Y-81052446D01*
X28248412Y-80829200D01*
X28332850Y-80622392D01*
X28407231Y-80438362D01*
X28469026Y-80283451D01*
X28515703Y-80163996D01*
X28544732Y-80086339D01*
X28553678Y-80057356D01*
X28531244Y-80024110D01*
X28472561Y-79971123D01*
X28394311Y-79912704D01*
X28171466Y-79727952D01*
X27997282Y-79516182D01*
X27873846Y-79281856D01*
X27803246Y-79029434D01*
X27787569Y-78763377D01*
X27798964Y-78640575D01*
X27861050Y-78385793D01*
X27967977Y-78160801D01*
X28113111Y-77967817D01*
X28289822Y-77809061D01*
X28491478Y-77686750D01*
X28711446Y-77603105D01*
X28943094Y-77560344D01*
X29179791Y-77560687D01*
X29414905Y-77606352D01*
X29641804Y-77699559D01*
X29853856Y-77842527D01*
X29942364Y-77923383D01*
X30112111Y-78131007D01*
X30230301Y-78357895D01*
X30297722Y-78597433D01*
X30315160Y-78843007D01*
X30283402Y-79088003D01*
X30203235Y-79325808D01*
X30075445Y-79549807D01*
X29900820Y-79753387D01*
X29705688Y-79912704D01*
X29624409Y-79973602D01*
X29566991Y-80026015D01*
X29546322Y-80057406D01*
X29557144Y-80091639D01*
X29587923Y-80173419D01*
X29636126Y-80296407D01*
X29699222Y-80454263D01*
X29774678Y-80640649D01*
X29859962Y-80849226D01*
X29943781Y-81052496D01*
X30036255Y-81275933D01*
X30121911Y-81482984D01*
X30198118Y-81667286D01*
X30262247Y-81822475D01*
X30311668Y-81942188D01*
X30343752Y-82020061D01*
X30355641Y-82049138D01*
X30383726Y-82078677D01*
X30438051Y-82078591D01*
X30525605Y-82047326D01*
X30653381Y-81983329D01*
X30654392Y-81982785D01*
X30750598Y-81933121D01*
X30828369Y-81896945D01*
X30872223Y-81881408D01*
X30874158Y-81881264D01*
X30907171Y-81897024D01*
X30980054Y-81940850D01*
X31084678Y-82007557D01*
X31212910Y-82091964D01*
X31355052Y-82187816D01*
X31499767Y-82284867D01*
X31630196Y-82369270D01*
X31737890Y-82435801D01*
X31814402Y-82479238D01*
X31850938Y-82494368D01*
X31884582Y-82474482D01*
X31952224Y-82418903D01*
X32047107Y-82333754D01*
X32162470Y-82225153D01*
X32291555Y-82099221D01*
X32333771Y-82057149D01*
X32770261Y-81619931D01*
X32438023Y-81132340D01*
X32337054Y-80982605D01*
X32248438Y-80848220D01*
X32177146Y-80736969D01*
X32128150Y-80656639D01*
X32106422Y-80615014D01*
X32105785Y-80612053D01*
X32117240Y-80572818D01*
X32148051Y-80493895D01*
X32192884Y-80388509D01*
X32224353Y-80317954D01*
X32283192Y-80182876D01*
X32338604Y-80046409D01*
X32381564Y-79931103D01*
X32393234Y-79895977D01*
X32426389Y-79802174D01*
X32458799Y-79729694D01*
X32476601Y-79702301D01*
X32515886Y-79685536D01*
X32601626Y-79661770D01*
X32722697Y-79633697D01*
X32867973Y-79604009D01*
X32932988Y-79591806D01*
X33098087Y-79561468D01*
X33256448Y-79532093D01*
X33392596Y-79506569D01*
X33491057Y-79487785D01*
X33509598Y-79484160D01*
X33662873Y-79453906D01*
X33662873Y-78815645D01*
X33662529Y-78605770D01*
X33661116Y-78446980D01*
X33658064Y-78331973D01*
X33652803Y-78253446D01*
X33644763Y-78204096D01*
X33633373Y-78176619D01*
X33618063Y-78163713D01*
X33611782Y-78161320D01*
X33573896Y-78152833D01*
X33490195Y-78135900D01*
X33371433Y-78112566D01*
X33228361Y-78084875D01*
X33071732Y-78054873D01*
X32912297Y-78024604D01*
X32760809Y-77996115D01*
X32628019Y-77971449D01*
X32524681Y-77952651D01*
X32461545Y-77941767D01*
X32447497Y-77939885D01*
X32434770Y-77914704D01*
X32406600Y-77847622D01*
X32368252Y-77751333D01*
X32353609Y-77713621D01*
X32294548Y-77567921D01*
X32225000Y-77406951D01*
X32162712Y-77271291D01*
X32116879Y-77167561D01*
X32086387Y-77082326D01*
X32076208Y-77030126D01*
X32077831Y-77023130D01*
X32099343Y-76990102D01*
X32148465Y-76916643D01*
X32219923Y-76810577D01*
X32308445Y-76679726D01*
X32408759Y-76531912D01*
X32428594Y-76502734D01*
X32544988Y-76329863D01*
X32630548Y-76198226D01*
X32688684Y-76101761D01*
X32722808Y-76034408D01*
X32736331Y-75990106D01*
X32732664Y-75962794D01*
X32732570Y-75962620D01*
X32703707Y-75926746D01*
X32639867Y-75857391D01*
X32547969Y-75761745D01*
X32434933Y-75646999D01*
X32307679Y-75520341D01*
X32293328Y-75506205D01*
X32132957Y-75350903D01*
X32009195Y-75236870D01*
X31919555Y-75162002D01*
X31861552Y-75124196D01*
X31836004Y-75119317D01*
X31798718Y-75140603D01*
X31721343Y-75189773D01*
X31611867Y-75261575D01*
X31478280Y-75350755D01*
X31328570Y-75452063D01*
X31293618Y-75475897D01*
X30797390Y-75814765D01*
X30573293Y-75713056D01*
X30437011Y-75653783D01*
X30290724Y-75594170D01*
X30164965Y-75546640D01*
X30159425Y-75544685D01*
X30061057Y-75508677D01*
X29985229Y-75478229D01*
X29948282Y-75459905D01*
X29948220Y-75459852D01*
X29936496Y-75426729D01*
X29916568Y-75345267D01*
X29890413Y-75224625D01*
X29860010Y-75073959D01*
X29827337Y-74902428D01*
X29824664Y-74887967D01*
X29791890Y-74711235D01*
X29761802Y-74550810D01*
X29736339Y-74416888D01*
X29717441Y-74319663D01*
X29707047Y-74269332D01*
X29706865Y-74268563D01*
X29700539Y-74247153D01*
X29688239Y-74230988D01*
X29662594Y-74219331D01*
X29616235Y-74211445D01*
X29541792Y-74206593D01*
X29431895Y-74204039D01*
X29279175Y-74203045D01*
X29076262Y-74202874D01*
X29050000Y-74202874D01*
X28840986Y-74202998D01*
G36*
X22706561Y-83706540D02*
G01*
X22591050Y-83782034D01*
X22535336Y-83849617D01*
X22491196Y-83972255D01*
X22487691Y-84069298D01*
X22495632Y-84199056D01*
X22794885Y-84330039D01*
X22940389Y-84396958D01*
X23035463Y-84450790D01*
X23084899Y-84497416D01*
X23093489Y-84542720D01*
X23066028Y-84592582D01*
X23035747Y-84625632D01*
X22947637Y-84678633D01*
X22851804Y-84682347D01*
X22763788Y-84641041D01*
X22699131Y-84558983D01*
X22687567Y-84530008D01*
X22632175Y-84439509D01*
X22568447Y-84400940D01*
X22481034Y-84367946D01*
X22481034Y-84493034D01*
X22488762Y-84578156D01*
X22519034Y-84649938D01*
X22582482Y-84732356D01*
X22591912Y-84743066D01*
X22662487Y-84816391D01*
X22723153Y-84855742D01*
X22799050Y-84873845D01*
X22861970Y-84879774D01*
X22974513Y-84881251D01*
X23054630Y-84862535D01*
X23104610Y-84834747D01*
X23183162Y-84773641D01*
X23237537Y-84707554D01*
X23271948Y-84624441D01*
X23290612Y-84512254D01*
X23297744Y-84358946D01*
X23298313Y-84281136D01*
X23296378Y-84187853D01*
X23120101Y-84187853D01*
X23118056Y-84237896D01*
X23112961Y-84246092D01*
X23079334Y-84234958D01*
X23006970Y-84205493D01*
X22910253Y-84163601D01*
X22890027Y-84154597D01*
X22767797Y-84092442D01*
X22700453Y-84037815D01*
X22685652Y-83986649D01*
X22721053Y-83934876D01*
X22750289Y-83912000D01*
X22855784Y-83866250D01*
X22954524Y-83873808D01*
X23037188Y-83929651D01*
X23094452Y-84028753D01*
X23112812Y-84107414D01*
X23120101Y-84187853D01*
X23296378Y-84187853D01*
X23294541Y-84099351D01*
X23280641Y-83964853D01*
X23253106Y-83866916D01*
X23208428Y-83794811D01*
X23143099Y-83737813D01*
X23114617Y-83719393D01*
X22985237Y-83671422D01*
X22843588Y-83668403D01*
X22706561Y-83706540D01*
X22706561Y-83706540D01*
G37*
X22706561Y-83706540D02*
X22591050Y-83782034D01*
X22535336Y-83849617D01*
X22491196Y-83972255D01*
X22487691Y-84069298D01*
X22495632Y-84199056D01*
X22794885Y-84330039D01*
X22940389Y-84396958D01*
X23035463Y-84450790D01*
X23084899Y-84497416D01*
X23093489Y-84542720D01*
X23066028Y-84592582D01*
X23035747Y-84625632D01*
X22947637Y-84678633D01*
X22851804Y-84682347D01*
X22763788Y-84641041D01*
X22699131Y-84558983D01*
X22687567Y-84530008D01*
X22632175Y-84439509D01*
X22568447Y-84400940D01*
X22481034Y-84367946D01*
X22481034Y-84493034D01*
X22488762Y-84578156D01*
X22519034Y-84649938D01*
X22582482Y-84732356D01*
X22591912Y-84743066D01*
X22662487Y-84816391D01*
X22723153Y-84855742D01*
X22799050Y-84873845D01*
X22861970Y-84879774D01*
X22974513Y-84881251D01*
X23054630Y-84862535D01*
X23104610Y-84834747D01*
X23183162Y-84773641D01*
X23237537Y-84707554D01*
X23271948Y-84624441D01*
X23290612Y-84512254D01*
X23297744Y-84358946D01*
X23298313Y-84281136D01*
X23296378Y-84187853D01*
X23120101Y-84187853D01*
X23118056Y-84237896D01*
X23112961Y-84246092D01*
X23079334Y-84234958D01*
X23006970Y-84205493D01*
X22910253Y-84163601D01*
X22890027Y-84154597D01*
X22767797Y-84092442D01*
X22700453Y-84037815D01*
X22685652Y-83986649D01*
X22721053Y-83934876D01*
X22750289Y-83912000D01*
X22855784Y-83866250D01*
X22954524Y-83873808D01*
X23037188Y-83929651D01*
X23094452Y-84028753D01*
X23112812Y-84107414D01*
X23120101Y-84187853D01*
X23296378Y-84187853D01*
X23294541Y-84099351D01*
X23280641Y-83964853D01*
X23253106Y-83866916D01*
X23208428Y-83794811D01*
X23143099Y-83737813D01*
X23114617Y-83719393D01*
X22985237Y-83671422D01*
X22843588Y-83668403D01*
X22706561Y-83706540D01*
G36*
X23714310Y-83690018D02*
G01*
X23679415Y-83705269D01*
X23596123Y-83771235D01*
X23524897Y-83866618D01*
X23480847Y-83968406D01*
X23473678Y-84018587D01*
X23497715Y-84088647D01*
X23550439Y-84125717D01*
X23606969Y-84148164D01*
X23632854Y-84152300D01*
X23645458Y-84122283D01*
X23670346Y-84056961D01*
X23681265Y-84027445D01*
X23742492Y-83925348D01*
X23831139Y-83874423D01*
X23944807Y-83875989D01*
X23953226Y-83877994D01*
X24013912Y-83906767D01*
X24058526Y-83962859D01*
X24088998Y-84053163D01*
X24107256Y-84184571D01*
X24115229Y-84363974D01*
X24115977Y-84459433D01*
X24116348Y-84609913D01*
X24118777Y-84712495D01*
X24125240Y-84777672D01*
X24137712Y-84815938D01*
X24158167Y-84837785D01*
X24188581Y-84853707D01*
X24190339Y-84854509D01*
X24248909Y-84879272D01*
X24277925Y-84888391D01*
X24282384Y-84860822D01*
X24286201Y-84784620D01*
X24289101Y-84669541D01*
X24290809Y-84525341D01*
X24291149Y-84419814D01*
X24289412Y-84215613D01*
X24282618Y-84060697D01*
X24268393Y-83946024D01*
X24244362Y-83862551D01*
X24208152Y-83801236D01*
X24157388Y-83753034D01*
X24107261Y-83719393D01*
X23986725Y-83674619D01*
X23846443Y-83664521D01*
X23714310Y-83690018D01*
X23714310Y-83690018D01*
G37*
X23714310Y-83690018D02*
X23679415Y-83705269D01*
X23596123Y-83771235D01*
X23524897Y-83866618D01*
X23480847Y-83968406D01*
X23473678Y-84018587D01*
X23497715Y-84088647D01*
X23550439Y-84125717D01*
X23606969Y-84148164D01*
X23632854Y-84152300D01*
X23645458Y-84122283D01*
X23670346Y-84056961D01*
X23681265Y-84027445D01*
X23742492Y-83925348D01*
X23831139Y-83874423D01*
X23944807Y-83875989D01*
X23953226Y-83877994D01*
X24013912Y-83906767D01*
X24058526Y-83962859D01*
X24088998Y-84053163D01*
X24107256Y-84184571D01*
X24115229Y-84363974D01*
X24115977Y-84459433D01*
X24116348Y-84609913D01*
X24118777Y-84712495D01*
X24125240Y-84777672D01*
X24137712Y-84815938D01*
X24158167Y-84837785D01*
X24188581Y-84853707D01*
X24190339Y-84854509D01*
X24248909Y-84879272D01*
X24277925Y-84888391D01*
X24282384Y-84860822D01*
X24286201Y-84784620D01*
X24289101Y-84669541D01*
X24290809Y-84525341D01*
X24291149Y-84419814D01*
X24289412Y-84215613D01*
X24282618Y-84060697D01*
X24268393Y-83946024D01*
X24244362Y-83862551D01*
X24208152Y-83801236D01*
X24157388Y-83753034D01*
X24107261Y-83719393D01*
X23986725Y-83674619D01*
X23846443Y-83664521D01*
X23714310Y-83690018D01*
G36*
X24735594Y-83685156D02*
G01*
X24651531Y-83723393D01*
X24585550Y-83769726D01*
X24537206Y-83821532D01*
X24503828Y-83888363D01*
X24482747Y-83979769D01*
X24471293Y-84105301D01*
X24466797Y-84274508D01*
X24466322Y-84385933D01*
X24466322Y-84820627D01*
X24540684Y-84854509D01*
X24599254Y-84879272D01*
X24628270Y-84888391D01*
X24633821Y-84861257D01*
X24638225Y-84788094D01*
X24640922Y-84681263D01*
X24641494Y-84596437D01*
X24643954Y-84473887D01*
X24650588Y-84376668D01*
X24660274Y-84317134D01*
X24667968Y-84304483D01*
X24719689Y-84317402D01*
X24800883Y-84350539D01*
X24894898Y-84395461D01*
X24985083Y-84443735D01*
X25054785Y-84486928D01*
X25087352Y-84516608D01*
X25087481Y-84516929D01*
X25084680Y-84571857D01*
X25059561Y-84624292D01*
X25015459Y-84666881D01*
X24951091Y-84681126D01*
X24896079Y-84679466D01*
X24818165Y-84678245D01*
X24777268Y-84696498D01*
X24752705Y-84744726D01*
X24749608Y-84753820D01*
X24738960Y-84822598D01*
X24767435Y-84864360D01*
X24841656Y-84884263D01*
X24921832Y-84887944D01*
X25066110Y-84860658D01*
X25140797Y-84821690D01*
X25233037Y-84730148D01*
X25281957Y-84617782D01*
X25286346Y-84499051D01*
X25244999Y-84388411D01*
X25182803Y-84319080D01*
X25120706Y-84280265D01*
X25023105Y-84231125D01*
X24909368Y-84181292D01*
X24890410Y-84173677D01*
X24765479Y-84118545D01*
X24693461Y-84069954D01*
X24670300Y-84021647D01*
X24691936Y-83967370D01*
X24729080Y-83924943D01*
X24816873Y-83872702D01*
X24913470Y-83868784D01*
X25002056Y-83909041D01*
X25065814Y-83989326D01*
X25074183Y-84010040D01*
X25122904Y-84086225D01*
X25194035Y-84142785D01*
X25283793Y-84189201D01*
X25283793Y-84057584D01*
X25278510Y-83977168D01*
X25255858Y-83913786D01*
X25205633Y-83846163D01*
X25157418Y-83794076D01*
X25082446Y-83720322D01*
X25024194Y-83680702D01*
X24961628Y-83664810D01*
X24890807Y-83662184D01*
X24735594Y-83685156D01*
X24735594Y-83685156D01*
G37*
X24735594Y-83685156D02*
X24651531Y-83723393D01*
X24585550Y-83769726D01*
X24537206Y-83821532D01*
X24503828Y-83888363D01*
X24482747Y-83979769D01*
X24471293Y-84105301D01*
X24466797Y-84274508D01*
X24466322Y-84385933D01*
X24466322Y-84820627D01*
X24540684Y-84854509D01*
X24599254Y-84879272D01*
X24628270Y-84888391D01*
X24633821Y-84861257D01*
X24638225Y-84788094D01*
X24640922Y-84681263D01*
X24641494Y-84596437D01*
X24643954Y-84473887D01*
X24650588Y-84376668D01*
X24660274Y-84317134D01*
X24667968Y-84304483D01*
X24719689Y-84317402D01*
X24800883Y-84350539D01*
X24894898Y-84395461D01*
X24985083Y-84443735D01*
X25054785Y-84486928D01*
X25087352Y-84516608D01*
X25087481Y-84516929D01*
X25084680Y-84571857D01*
X25059561Y-84624292D01*
X25015459Y-84666881D01*
X24951091Y-84681126D01*
X24896079Y-84679466D01*
X24818165Y-84678245D01*
X24777268Y-84696498D01*
X24752705Y-84744726D01*
X24749608Y-84753820D01*
X24738960Y-84822598D01*
X24767435Y-84864360D01*
X24841656Y-84884263D01*
X24921832Y-84887944D01*
X25066110Y-84860658D01*
X25140797Y-84821690D01*
X25233037Y-84730148D01*
X25281957Y-84617782D01*
X25286346Y-84499051D01*
X25244999Y-84388411D01*
X25182803Y-84319080D01*
X25120706Y-84280265D01*
X25023105Y-84231125D01*
X24909368Y-84181292D01*
X24890410Y-84173677D01*
X24765479Y-84118545D01*
X24693461Y-84069954D01*
X24670300Y-84021647D01*
X24691936Y-83967370D01*
X24729080Y-83924943D01*
X24816873Y-83872702D01*
X24913470Y-83868784D01*
X25002056Y-83909041D01*
X25065814Y-83989326D01*
X25074183Y-84010040D01*
X25122904Y-84086225D01*
X25194035Y-84142785D01*
X25283793Y-84189201D01*
X25283793Y-84057584D01*
X25278510Y-83977168D01*
X25255858Y-83913786D01*
X25205633Y-83846163D01*
X25157418Y-83794076D01*
X25082446Y-83720322D01*
X25024194Y-83680702D01*
X24961628Y-83664810D01*
X24890807Y-83662184D01*
X24735594Y-83685156D01*
G36*
X25469876Y-83689840D02*
G01*
X25465421Y-83766653D01*
X25461929Y-83883391D01*
X25459685Y-84030821D01*
X25458965Y-84185455D01*
X25458965Y-84708727D01*
X25551355Y-84801117D01*
X25615022Y-84858047D01*
X25670911Y-84881107D01*
X25747298Y-84879647D01*
X25777620Y-84875934D01*
X25872390Y-84865126D01*
X25950778Y-84858933D01*
X25969885Y-84858361D01*
X26034301Y-84862102D01*
X26126429Y-84871494D01*
X26162150Y-84875934D01*
X26249886Y-84882801D01*
X26308847Y-84867885D01*
X26367310Y-84821835D01*
X26388415Y-84801117D01*
X26480805Y-84708727D01*
X26480805Y-83729947D01*
X26406442Y-83696066D01*
X26342410Y-83670970D01*
X26304948Y-83662184D01*
X26295343Y-83689950D01*
X26286365Y-83767530D01*
X26278614Y-83886348D01*
X26272686Y-84037828D01*
X26269827Y-84165805D01*
X26261839Y-84669425D01*
X26192152Y-84679278D01*
X26128771Y-84672389D01*
X26097714Y-84650083D01*
X26089033Y-84608379D01*
X26081622Y-84519544D01*
X26076069Y-84394834D01*
X26072964Y-84245507D01*
X26072516Y-84168661D01*
X26072069Y-83726287D01*
X25980126Y-83694235D01*
X25915051Y-83672443D01*
X25879653Y-83662281D01*
X25878632Y-83662184D01*
X25875080Y-83689809D01*
X25871177Y-83766411D01*
X25867249Y-83882579D01*
X25863624Y-84028904D01*
X25861092Y-84165805D01*
X25853103Y-84669425D01*
X25677931Y-84669425D01*
X25669893Y-84209965D01*
X25661854Y-83750505D01*
X25576457Y-83706344D01*
X25513407Y-83676019D01*
X25476090Y-83662258D01*
X25475013Y-83662184D01*
X25469876Y-83689840D01*
X25469876Y-83689840D01*
G37*
X25469876Y-83689840D02*
X25465421Y-83766653D01*
X25461929Y-83883391D01*
X25459685Y-84030821D01*
X25458965Y-84185455D01*
X25458965Y-84708727D01*
X25551355Y-84801117D01*
X25615022Y-84858047D01*
X25670911Y-84881107D01*
X25747298Y-84879647D01*
X25777620Y-84875934D01*
X25872390Y-84865126D01*
X25950778Y-84858933D01*
X25969885Y-84858361D01*
X26034301Y-84862102D01*
X26126429Y-84871494D01*
X26162150Y-84875934D01*
X26249886Y-84882801D01*
X26308847Y-84867885D01*
X26367310Y-84821835D01*
X26388415Y-84801117D01*
X26480805Y-84708727D01*
X26480805Y-83729947D01*
X26406442Y-83696066D01*
X26342410Y-83670970D01*
X26304948Y-83662184D01*
X26295343Y-83689950D01*
X26286365Y-83767530D01*
X26278614Y-83886348D01*
X26272686Y-84037828D01*
X26269827Y-84165805D01*
X26261839Y-84669425D01*
X26192152Y-84679278D01*
X26128771Y-84672389D01*
X26097714Y-84650083D01*
X26089033Y-84608379D01*
X26081622Y-84519544D01*
X26076069Y-84394834D01*
X26072964Y-84245507D01*
X26072516Y-84168661D01*
X26072069Y-83726287D01*
X25980126Y-83694235D01*
X25915051Y-83672443D01*
X25879653Y-83662281D01*
X25878632Y-83662184D01*
X25875080Y-83689809D01*
X25871177Y-83766411D01*
X25867249Y-83882579D01*
X25863624Y-84028904D01*
X25861092Y-84165805D01*
X25853103Y-84669425D01*
X25677931Y-84669425D01*
X25669893Y-84209965D01*
X25661854Y-83750505D01*
X25576457Y-83706344D01*
X25513407Y-83676019D01*
X25476090Y-83662258D01*
X25475013Y-83662184D01*
X25469876Y-83689840D01*
G36*
X26656086Y-83904455D02*
G01*
X26656457Y-84122661D01*
X26657892Y-84290519D01*
X26660998Y-84416070D01*
X26666378Y-84507355D01*
X26674638Y-84572415D01*
X26686384Y-84619291D01*
X26702219Y-84656024D01*
X26714210Y-84676991D01*
X26813510Y-84790694D01*
X26939412Y-84861965D01*
X27078709Y-84887538D01*
X27218195Y-84864150D01*
X27301257Y-84822119D01*
X27388455Y-84749411D01*
X27447883Y-84660612D01*
X27483739Y-84544320D01*
X27500219Y-84389135D01*
X27502553Y-84275287D01*
X27502239Y-84267106D01*
X27298276Y-84267106D01*
X27297030Y-84397657D01*
X27291322Y-84484080D01*
X27278196Y-84540618D01*
X27254694Y-84581514D01*
X27226614Y-84612362D01*
X27132312Y-84671905D01*
X27031060Y-84676992D01*
X26935364Y-84627279D01*
X26927916Y-84620543D01*
X26896126Y-84585502D01*
X26876192Y-84543811D01*
X26865400Y-84481762D01*
X26861035Y-84385644D01*
X26860345Y-84279379D01*
X26861841Y-84145880D01*
X26868036Y-84056822D01*
X26881486Y-83998293D01*
X26904749Y-83956382D01*
X26923825Y-83934123D01*
X27012437Y-83877985D01*
X27114492Y-83871235D01*
X27211905Y-83914114D01*
X27230704Y-83930032D01*
X27262707Y-83965382D01*
X27282682Y-84007502D01*
X27293407Y-84070251D01*
X27297661Y-84167487D01*
X27298276Y-84267106D01*
X27502239Y-84267106D01*
X27495496Y-84091947D01*
X27471528Y-83954195D01*
X27426452Y-83850632D01*
X27356072Y-83769856D01*
X27301257Y-83728455D01*
X27201624Y-83683728D01*
X27086145Y-83662967D01*
X26978801Y-83668525D01*
X26918736Y-83690943D01*
X26895165Y-83697323D01*
X26879523Y-83673535D01*
X26868605Y-83609788D01*
X26860345Y-83512687D01*
X26851301Y-83404541D01*
X26838739Y-83339475D01*
X26815881Y-83302268D01*
X26775949Y-83277699D01*
X26750862Y-83266819D01*
X26655977Y-83227072D01*
X26656086Y-83904455D01*
X26656086Y-83904455D01*
G37*
X26656086Y-83904455D02*
X26656457Y-84122661D01*
X26657892Y-84290519D01*
X26660998Y-84416070D01*
X26666378Y-84507355D01*
X26674638Y-84572415D01*
X26686384Y-84619291D01*
X26702219Y-84656024D01*
X26714210Y-84676991D01*
X26813510Y-84790694D01*
X26939412Y-84861965D01*
X27078709Y-84887538D01*
X27218195Y-84864150D01*
X27301257Y-84822119D01*
X27388455Y-84749411D01*
X27447883Y-84660612D01*
X27483739Y-84544320D01*
X27500219Y-84389135D01*
X27502553Y-84275287D01*
X27502239Y-84267106D01*
X27298276Y-84267106D01*
X27297030Y-84397657D01*
X27291322Y-84484080D01*
X27278196Y-84540618D01*
X27254694Y-84581514D01*
X27226614Y-84612362D01*
X27132312Y-84671905D01*
X27031060Y-84676992D01*
X26935364Y-84627279D01*
X26927916Y-84620543D01*
X26896126Y-84585502D01*
X26876192Y-84543811D01*
X26865400Y-84481762D01*
X26861035Y-84385644D01*
X26860345Y-84279379D01*
X26861841Y-84145880D01*
X26868036Y-84056822D01*
X26881486Y-83998293D01*
X26904749Y-83956382D01*
X26923825Y-83934123D01*
X27012437Y-83877985D01*
X27114492Y-83871235D01*
X27211905Y-83914114D01*
X27230704Y-83930032D01*
X27262707Y-83965382D01*
X27282682Y-84007502D01*
X27293407Y-84070251D01*
X27297661Y-84167487D01*
X27298276Y-84267106D01*
X27502239Y-84267106D01*
X27495496Y-84091947D01*
X27471528Y-83954195D01*
X27426452Y-83850632D01*
X27356072Y-83769856D01*
X27301257Y-83728455D01*
X27201624Y-83683728D01*
X27086145Y-83662967D01*
X26978801Y-83668525D01*
X26918736Y-83690943D01*
X26895165Y-83697323D01*
X26879523Y-83673535D01*
X26868605Y-83609788D01*
X26860345Y-83512687D01*
X26851301Y-83404541D01*
X26838739Y-83339475D01*
X26815881Y-83302268D01*
X26775949Y-83277699D01*
X26750862Y-83266819D01*
X26655977Y-83227072D01*
X26656086Y-83904455D01*
G36*
X27984057Y-83671920D02*
G01*
X27851435Y-83720859D01*
X27743990Y-83807419D01*
X27701968Y-83868352D01*
X27656157Y-83980161D01*
X27657109Y-84061006D01*
X27705192Y-84115378D01*
X27722983Y-84124624D01*
X27799796Y-84153450D01*
X27839024Y-84146065D01*
X27852311Y-84097658D01*
X27852988Y-84070920D01*
X27877314Y-83972548D01*
X27940719Y-83903734D01*
X28028846Y-83870498D01*
X28127337Y-83878861D01*
X28207398Y-83922296D01*
X28234439Y-83947072D01*
X28253606Y-83977129D01*
X28266554Y-84022565D01*
X28274936Y-84093476D01*
X28280407Y-84199960D01*
X28284622Y-84352112D01*
X28285713Y-84400287D01*
X28289693Y-84565095D01*
X28294219Y-84681088D01*
X28301005Y-84757833D01*
X28311769Y-84804893D01*
X28328227Y-84831835D01*
X28352094Y-84848223D01*
X28367374Y-84855463D01*
X28432267Y-84880220D01*
X28470466Y-84888391D01*
X28483088Y-84861103D01*
X28490792Y-84778603D01*
X28493620Y-84639941D01*
X28491614Y-84444162D01*
X28490989Y-84413965D01*
X28486579Y-84235349D01*
X28481365Y-84104923D01*
X28473945Y-84012492D01*
X28462918Y-83947858D01*
X28446883Y-83900825D01*
X28424439Y-83861196D01*
X28412698Y-83844215D01*
X28345381Y-83769080D01*
X28270090Y-83710638D01*
X28260872Y-83705536D01*
X28125867Y-83665260D01*
X27984057Y-83671920D01*
X27984057Y-83671920D01*
G37*
X27984057Y-83671920D02*
X27851435Y-83720859D01*
X27743990Y-83807419D01*
X27701968Y-83868352D01*
X27656157Y-83980161D01*
X27657109Y-84061006D01*
X27705192Y-84115378D01*
X27722983Y-84124624D01*
X27799796Y-84153450D01*
X27839024Y-84146065D01*
X27852311Y-84097658D01*
X27852988Y-84070920D01*
X27877314Y-83972548D01*
X27940719Y-83903734D01*
X28028846Y-83870498D01*
X28127337Y-83878861D01*
X28207398Y-83922296D01*
X28234439Y-83947072D01*
X28253606Y-83977129D01*
X28266554Y-84022565D01*
X28274936Y-84093476D01*
X28280407Y-84199960D01*
X28284622Y-84352112D01*
X28285713Y-84400287D01*
X28289693Y-84565095D01*
X28294219Y-84681088D01*
X28301005Y-84757833D01*
X28311769Y-84804893D01*
X28328227Y-84831835D01*
X28352094Y-84848223D01*
X28367374Y-84855463D01*
X28432267Y-84880220D01*
X28470466Y-84888391D01*
X28483088Y-84861103D01*
X28490792Y-84778603D01*
X28493620Y-84639941D01*
X28491614Y-84444162D01*
X28490989Y-84413965D01*
X28486579Y-84235349D01*
X28481365Y-84104923D01*
X28473945Y-84012492D01*
X28462918Y-83947858D01*
X28446883Y-83900825D01*
X28424439Y-83861196D01*
X28412698Y-83844215D01*
X28345381Y-83769080D01*
X28270090Y-83710638D01*
X28260872Y-83705536D01*
X28125867Y-83665260D01*
X27984057Y-83671920D01*
G36*
X28970056Y-83674360D02*
G01*
X28855657Y-83716842D01*
X28854348Y-83717658D01*
X28783597Y-83769730D01*
X28731364Y-83830584D01*
X28694629Y-83909887D01*
X28670366Y-84017309D01*
X28655555Y-84162517D01*
X28647171Y-84355179D01*
X28646436Y-84382628D01*
X28635880Y-84796521D01*
X28724709Y-84842456D01*
X28788982Y-84873498D01*
X28827790Y-84888206D01*
X28829585Y-84888391D01*
X28836300Y-84861250D01*
X28841635Y-84788041D01*
X28844917Y-84681081D01*
X28845632Y-84594469D01*
X28845649Y-84454162D01*
X28852063Y-84366051D01*
X28874420Y-84324025D01*
X28922268Y-84321975D01*
X29005151Y-84353790D01*
X29130287Y-84412272D01*
X29222303Y-84460845D01*
X29269629Y-84502986D01*
X29283542Y-84548916D01*
X29283563Y-84551189D01*
X29260605Y-84630311D01*
X29192630Y-84673055D01*
X29088602Y-84679246D01*
X29013670Y-84678172D01*
X28974161Y-84699753D01*
X28949522Y-84751591D01*
X28935341Y-84817632D01*
X28955777Y-84855104D01*
X28963472Y-84860467D01*
X29035917Y-84882006D01*
X29137367Y-84885055D01*
X29241843Y-84870778D01*
X29315875Y-84844688D01*
X29418228Y-84757785D01*
X29476409Y-84636816D01*
X29487931Y-84542308D01*
X29479138Y-84457062D01*
X29447320Y-84387476D01*
X29384316Y-84325672D01*
X29281969Y-84263772D01*
X29132118Y-84193897D01*
X29122988Y-84189948D01*
X28988003Y-84127588D01*
X28904706Y-84076446D01*
X28869003Y-84030488D01*
X28876797Y-83983683D01*
X28923993Y-83929998D01*
X28938106Y-83917644D01*
X29032641Y-83869741D01*
X29130594Y-83871758D01*
X29215903Y-83918724D01*
X29272504Y-84005669D01*
X29277763Y-84022734D01*
X29328977Y-84105504D01*
X29393963Y-84145372D01*
X29487931Y-84184882D01*
X29487931Y-84082658D01*
X29459347Y-83934072D01*
X29374505Y-83797784D01*
X29330355Y-83752191D01*
X29229995Y-83693674D01*
X29102365Y-83667184D01*
X28970056Y-83674360D01*
X28970056Y-83674360D01*
G37*
X28970056Y-83674360D02*
X28855657Y-83716842D01*
X28854348Y-83717658D01*
X28783597Y-83769730D01*
X28731364Y-83830584D01*
X28694629Y-83909887D01*
X28670366Y-84017309D01*
X28655555Y-84162517D01*
X28647171Y-84355179D01*
X28646436Y-84382628D01*
X28635880Y-84796521D01*
X28724709Y-84842456D01*
X28788982Y-84873498D01*
X28827790Y-84888206D01*
X28829585Y-84888391D01*
X28836300Y-84861250D01*
X28841635Y-84788041D01*
X28844917Y-84681081D01*
X28845632Y-84594469D01*
X28845649Y-84454162D01*
X28852063Y-84366051D01*
X28874420Y-84324025D01*
X28922268Y-84321975D01*
X29005151Y-84353790D01*
X29130287Y-84412272D01*
X29222303Y-84460845D01*
X29269629Y-84502986D01*
X29283542Y-84548916D01*
X29283563Y-84551189D01*
X29260605Y-84630311D01*
X29192630Y-84673055D01*
X29088602Y-84679246D01*
X29013670Y-84678172D01*
X28974161Y-84699753D01*
X28949522Y-84751591D01*
X28935341Y-84817632D01*
X28955777Y-84855104D01*
X28963472Y-84860467D01*
X29035917Y-84882006D01*
X29137367Y-84885055D01*
X29241843Y-84870778D01*
X29315875Y-84844688D01*
X29418228Y-84757785D01*
X29476409Y-84636816D01*
X29487931Y-84542308D01*
X29479138Y-84457062D01*
X29447320Y-84387476D01*
X29384316Y-84325672D01*
X29281969Y-84263772D01*
X29132118Y-84193897D01*
X29122988Y-84189948D01*
X28988003Y-84127588D01*
X28904706Y-84076446D01*
X28869003Y-84030488D01*
X28876797Y-83983683D01*
X28923993Y-83929998D01*
X28938106Y-83917644D01*
X29032641Y-83869741D01*
X29130594Y-83871758D01*
X29215903Y-83918724D01*
X29272504Y-84005669D01*
X29277763Y-84022734D01*
X29328977Y-84105504D01*
X29393963Y-84145372D01*
X29487931Y-84184882D01*
X29487931Y-84082658D01*
X29459347Y-83934072D01*
X29374505Y-83797784D01*
X29330355Y-83752191D01*
X29229995Y-83693674D01*
X29102365Y-83667184D01*
X28970056Y-83674360D01*
G36*
X30305402Y-83473857D02*
G01*
X30296846Y-83593188D01*
X30287019Y-83663506D01*
X30273401Y-83694179D01*
X30253473Y-83694571D01*
X30247011Y-83690910D01*
X30161060Y-83664398D01*
X30049255Y-83665946D01*
X29935586Y-83693199D01*
X29864490Y-83728455D01*
X29791595Y-83784778D01*
X29738307Y-83848519D01*
X29701725Y-83929510D01*
X29678950Y-84037586D01*
X29667081Y-84182580D01*
X29663218Y-84374326D01*
X29663149Y-84411109D01*
X29663103Y-84824288D01*
X29755046Y-84856339D01*
X29820348Y-84878144D01*
X29856176Y-84888297D01*
X29857230Y-84888391D01*
X29860758Y-84860860D01*
X29863761Y-84784923D01*
X29866010Y-84670565D01*
X29867276Y-84527769D01*
X29867471Y-84440951D01*
X29867877Y-84269773D01*
X29869968Y-84147088D01*
X29875053Y-84063000D01*
X29884440Y-84007614D01*
X29899439Y-83971032D01*
X29921358Y-83943359D01*
X29935043Y-83930032D01*
X30029051Y-83876328D01*
X30131636Y-83872307D01*
X30224710Y-83917725D01*
X30241922Y-83934123D01*
X30267168Y-83964957D01*
X30284680Y-84001531D01*
X30295858Y-84054415D01*
X30302104Y-84134177D01*
X30304818Y-84251385D01*
X30305402Y-84412991D01*
X30305402Y-84824288D01*
X30397345Y-84856339D01*
X30462647Y-84878144D01*
X30498475Y-84888297D01*
X30499529Y-84888391D01*
X30502225Y-84860448D01*
X30504655Y-84781630D01*
X30506722Y-84659453D01*
X30508329Y-84501432D01*
X30509377Y-84315083D01*
X30509769Y-84107920D01*
X30509770Y-84098706D01*
X30509770Y-83309020D01*
X30414885Y-83268997D01*
X30320000Y-83228973D01*
X30305402Y-83473857D01*
X30305402Y-83473857D01*
G37*
X30305402Y-83473857D02*
X30296846Y-83593188D01*
X30287019Y-83663506D01*
X30273401Y-83694179D01*
X30253473Y-83694571D01*
X30247011Y-83690910D01*
X30161060Y-83664398D01*
X30049255Y-83665946D01*
X29935586Y-83693199D01*
X29864490Y-83728455D01*
X29791595Y-83784778D01*
X29738307Y-83848519D01*
X29701725Y-83929510D01*
X29678950Y-84037586D01*
X29667081Y-84182580D01*
X29663218Y-84374326D01*
X29663149Y-84411109D01*
X29663103Y-84824288D01*
X29755046Y-84856339D01*
X29820348Y-84878144D01*
X29856176Y-84888297D01*
X29857230Y-84888391D01*
X29860758Y-84860860D01*
X29863761Y-84784923D01*
X29866010Y-84670565D01*
X29867276Y-84527769D01*
X29867471Y-84440951D01*
X29867877Y-84269773D01*
X29869968Y-84147088D01*
X29875053Y-84063000D01*
X29884440Y-84007614D01*
X29899439Y-83971032D01*
X29921358Y-83943359D01*
X29935043Y-83930032D01*
X30029051Y-83876328D01*
X30131636Y-83872307D01*
X30224710Y-83917725D01*
X30241922Y-83934123D01*
X30267168Y-83964957D01*
X30284680Y-84001531D01*
X30295858Y-84054415D01*
X30302104Y-84134177D01*
X30304818Y-84251385D01*
X30305402Y-84412991D01*
X30305402Y-84824288D01*
X30397345Y-84856339D01*
X30462647Y-84878144D01*
X30498475Y-84888297D01*
X30499529Y-84888391D01*
X30502225Y-84860448D01*
X30504655Y-84781630D01*
X30506722Y-84659453D01*
X30508329Y-84501432D01*
X30509377Y-84315083D01*
X30509769Y-84107920D01*
X30509770Y-84098706D01*
X30509770Y-83309020D01*
X30414885Y-83268997D01*
X30320000Y-83228973D01*
X30305402Y-83473857D01*
G36*
X32734448Y-83634676D02*
G01*
X32619342Y-83712111D01*
X32530389Y-83823949D01*
X32477251Y-83966265D01*
X32466503Y-84071015D01*
X32467724Y-84114726D01*
X32477944Y-84148194D01*
X32506039Y-84178179D01*
X32560884Y-84211440D01*
X32651355Y-84254738D01*
X32786328Y-84314833D01*
X32787011Y-84315134D01*
X32911249Y-84372037D01*
X33013127Y-84422565D01*
X33082233Y-84461280D01*
X33108154Y-84482740D01*
X33108161Y-84482913D01*
X33085315Y-84529644D01*
X33031891Y-84581154D01*
X32970558Y-84618261D01*
X32939485Y-84625632D01*
X32854711Y-84600138D01*
X32781707Y-84536291D01*
X32746087Y-84466094D01*
X32711820Y-84414343D01*
X32644697Y-84355409D01*
X32565792Y-84304496D01*
X32496179Y-84276809D01*
X32481623Y-84275287D01*
X32465237Y-84300321D01*
X32464250Y-84364311D01*
X32476292Y-84450593D01*
X32498993Y-84542501D01*
X32529986Y-84623369D01*
X32531552Y-84626509D01*
X32624819Y-84756734D01*
X32745696Y-84845311D01*
X32882973Y-84888786D01*
X33025440Y-84883706D01*
X33161888Y-84826616D01*
X33167955Y-84822602D01*
X33275290Y-84725326D01*
X33345868Y-84598409D01*
X33384926Y-84431526D01*
X33390168Y-84384639D01*
X33399452Y-84163329D01*
X33388322Y-84060124D01*
X33108161Y-84060124D01*
X33104521Y-84124503D01*
X33084611Y-84143291D01*
X33034974Y-84129235D01*
X32956733Y-84096009D01*
X32869274Y-84054359D01*
X32867101Y-84053256D01*
X32792970Y-84014265D01*
X32763219Y-83988244D01*
X32770555Y-83960965D01*
X32801447Y-83925121D01*
X32880040Y-83873251D01*
X32964677Y-83869439D01*
X33040597Y-83907189D01*
X33093035Y-83980001D01*
X33108161Y-84060124D01*
X33388322Y-84060124D01*
X33380356Y-83986261D01*
X33331366Y-83845829D01*
X33263164Y-83747447D01*
X33140065Y-83648030D01*
X33004472Y-83598711D01*
X32866045Y-83595568D01*
X32734448Y-83634676D01*
X32734448Y-83634676D01*
G37*
X32734448Y-83634676D02*
X32619342Y-83712111D01*
X32530389Y-83823949D01*
X32477251Y-83966265D01*
X32466503Y-84071015D01*
X32467724Y-84114726D01*
X32477944Y-84148194D01*
X32506039Y-84178179D01*
X32560884Y-84211440D01*
X32651355Y-84254738D01*
X32786328Y-84314833D01*
X32787011Y-84315134D01*
X32911249Y-84372037D01*
X33013127Y-84422565D01*
X33082233Y-84461280D01*
X33108154Y-84482740D01*
X33108161Y-84482913D01*
X33085315Y-84529644D01*
X33031891Y-84581154D01*
X32970558Y-84618261D01*
X32939485Y-84625632D01*
X32854711Y-84600138D01*
X32781707Y-84536291D01*
X32746087Y-84466094D01*
X32711820Y-84414343D01*
X32644697Y-84355409D01*
X32565792Y-84304496D01*
X32496179Y-84276809D01*
X32481623Y-84275287D01*
X32465237Y-84300321D01*
X32464250Y-84364311D01*
X32476292Y-84450593D01*
X32498993Y-84542501D01*
X32529986Y-84623369D01*
X32531552Y-84626509D01*
X32624819Y-84756734D01*
X32745696Y-84845311D01*
X32882973Y-84888786D01*
X33025440Y-84883706D01*
X33161888Y-84826616D01*
X33167955Y-84822602D01*
X33275290Y-84725326D01*
X33345868Y-84598409D01*
X33384926Y-84431526D01*
X33390168Y-84384639D01*
X33399452Y-84163329D01*
X33388322Y-84060124D01*
X33108161Y-84060124D01*
X33104521Y-84124503D01*
X33084611Y-84143291D01*
X33034974Y-84129235D01*
X32956733Y-84096009D01*
X32869274Y-84054359D01*
X32867101Y-84053256D01*
X32792970Y-84014265D01*
X32763219Y-83988244D01*
X32770555Y-83960965D01*
X32801447Y-83925121D01*
X32880040Y-83873251D01*
X32964677Y-83869439D01*
X33040597Y-83907189D01*
X33093035Y-83980001D01*
X33108161Y-84060124D01*
X33388322Y-84060124D01*
X33380356Y-83986261D01*
X33331366Y-83845829D01*
X33263164Y-83747447D01*
X33140065Y-83648030D01*
X33004472Y-83598711D01*
X32866045Y-83595568D01*
X32734448Y-83634676D01*
G36*
X35001779Y-83616015D02*
G01*
X34864939Y-83687968D01*
X34763949Y-83803766D01*
X34728075Y-83878213D01*
X34700161Y-83989992D01*
X34685871Y-84131227D01*
X34684516Y-84285371D01*
X34695405Y-84435879D01*
X34717847Y-84566205D01*
X34751150Y-84659803D01*
X34761385Y-84675922D01*
X34882618Y-84796249D01*
X35026613Y-84868317D01*
X35182861Y-84889408D01*
X35340852Y-84856802D01*
X35384820Y-84837253D01*
X35470444Y-84777012D01*
X35545592Y-84697135D01*
X35552694Y-84687004D01*
X35581561Y-84638181D01*
X35600643Y-84585990D01*
X35611916Y-84517285D01*
X35617355Y-84418918D01*
X35618938Y-84277744D01*
X35618965Y-84246092D01*
X35618893Y-84236019D01*
X35327011Y-84236019D01*
X35325313Y-84369256D01*
X35318628Y-84457674D01*
X35304575Y-84514785D01*
X35280771Y-84554102D01*
X35268621Y-84567241D01*
X35198764Y-84617172D01*
X35130941Y-84614895D01*
X35062365Y-84571584D01*
X35021465Y-84525346D01*
X34997242Y-84457857D01*
X34983639Y-84351433D01*
X34982706Y-84339020D01*
X34980384Y-84146147D01*
X35004650Y-84002900D01*
X35055176Y-83910160D01*
X35131632Y-83868807D01*
X35158924Y-83866552D01*
X35230589Y-83877893D01*
X35279610Y-83917184D01*
X35309582Y-83992326D01*
X35324101Y-84111222D01*
X35327011Y-84236019D01*
X35618893Y-84236019D01*
X35617878Y-84095659D01*
X35613312Y-83990549D01*
X35603312Y-83917714D01*
X35585921Y-83864108D01*
X35559184Y-83816681D01*
X35553276Y-83807864D01*
X35453968Y-83689007D01*
X35345758Y-83620008D01*
X35214019Y-83592619D01*
X35169283Y-83591281D01*
X35001779Y-83616015D01*
X35001779Y-83616015D01*
G37*
X35001779Y-83616015D02*
X34864939Y-83687968D01*
X34763949Y-83803766D01*
X34728075Y-83878213D01*
X34700161Y-83989992D01*
X34685871Y-84131227D01*
X34684516Y-84285371D01*
X34695405Y-84435879D01*
X34717847Y-84566205D01*
X34751150Y-84659803D01*
X34761385Y-84675922D01*
X34882618Y-84796249D01*
X35026613Y-84868317D01*
X35182861Y-84889408D01*
X35340852Y-84856802D01*
X35384820Y-84837253D01*
X35470444Y-84777012D01*
X35545592Y-84697135D01*
X35552694Y-84687004D01*
X35581561Y-84638181D01*
X35600643Y-84585990D01*
X35611916Y-84517285D01*
X35617355Y-84418918D01*
X35618938Y-84277744D01*
X35618965Y-84246092D01*
X35618893Y-84236019D01*
X35327011Y-84236019D01*
X35325313Y-84369256D01*
X35318628Y-84457674D01*
X35304575Y-84514785D01*
X35280771Y-84554102D01*
X35268621Y-84567241D01*
X35198764Y-84617172D01*
X35130941Y-84614895D01*
X35062365Y-84571584D01*
X35021465Y-84525346D01*
X34997242Y-84457857D01*
X34983639Y-84351433D01*
X34982706Y-84339020D01*
X34980384Y-84146147D01*
X35004650Y-84002900D01*
X35055176Y-83910160D01*
X35131632Y-83868807D01*
X35158924Y-83866552D01*
X35230589Y-83877893D01*
X35279610Y-83917184D01*
X35309582Y-83992326D01*
X35324101Y-84111222D01*
X35327011Y-84236019D01*
X35618893Y-84236019D01*
X35617878Y-84095659D01*
X35613312Y-83990549D01*
X35603312Y-83917714D01*
X35585921Y-83864108D01*
X35559184Y-83816681D01*
X35553276Y-83807864D01*
X35453968Y-83689007D01*
X35345758Y-83620008D01*
X35214019Y-83592619D01*
X35169283Y-83591281D01*
X35001779Y-83616015D01*
G36*
X31632571Y-83627719D02*
G01*
X31538877Y-83681914D01*
X31473736Y-83735707D01*
X31426093Y-83792066D01*
X31393272Y-83860987D01*
X31372594Y-83952468D01*
X31361380Y-84076506D01*
X31356951Y-84243098D01*
X31356437Y-84362851D01*
X31356437Y-84803659D01*
X31480517Y-84859283D01*
X31604598Y-84914907D01*
X31619195Y-84432095D01*
X31625227Y-84251779D01*
X31631555Y-84120901D01*
X31639394Y-84030511D01*
X31649963Y-83971664D01*
X31664477Y-83935413D01*
X31684152Y-83912810D01*
X31690465Y-83907917D01*
X31786112Y-83869706D01*
X31882793Y-83884827D01*
X31940345Y-83924943D01*
X31963755Y-83953370D01*
X31979961Y-83990672D01*
X31990259Y-84047223D01*
X31995951Y-84133394D01*
X31998336Y-84259558D01*
X31998736Y-84391042D01*
X31998814Y-84555999D01*
X32001639Y-84672761D01*
X32011093Y-84751510D01*
X32031060Y-84802431D01*
X32065424Y-84835706D01*
X32118068Y-84861520D01*
X32188383Y-84888344D01*
X32265180Y-84917542D01*
X32256038Y-84399346D01*
X32252357Y-84212539D01*
X32248050Y-84074490D01*
X32241877Y-83975568D01*
X32232598Y-83906145D01*
X32218973Y-83856590D01*
X32199761Y-83817273D01*
X32176598Y-83782584D01*
X32064848Y-83671770D01*
X31928487Y-83607689D01*
X31780175Y-83592339D01*
X31632571Y-83627719D01*
X31632571Y-83627719D01*
G37*
X31632571Y-83627719D02*
X31538877Y-83681914D01*
X31473736Y-83735707D01*
X31426093Y-83792066D01*
X31393272Y-83860987D01*
X31372594Y-83952468D01*
X31361380Y-84076506D01*
X31356951Y-84243098D01*
X31356437Y-84362851D01*
X31356437Y-84803659D01*
X31480517Y-84859283D01*
X31604598Y-84914907D01*
X31619195Y-84432095D01*
X31625227Y-84251779D01*
X31631555Y-84120901D01*
X31639394Y-84030511D01*
X31649963Y-83971664D01*
X31664477Y-83935413D01*
X31684152Y-83912810D01*
X31690465Y-83907917D01*
X31786112Y-83869706D01*
X31882793Y-83884827D01*
X31940345Y-83924943D01*
X31963755Y-83953370D01*
X31979961Y-83990672D01*
X31990259Y-84047223D01*
X31995951Y-84133394D01*
X31998336Y-84259558D01*
X31998736Y-84391042D01*
X31998814Y-84555999D01*
X32001639Y-84672761D01*
X32011093Y-84751510D01*
X32031060Y-84802431D01*
X32065424Y-84835706D01*
X32118068Y-84861520D01*
X32188383Y-84888344D01*
X32265180Y-84917542D01*
X32256038Y-84399346D01*
X32252357Y-84212539D01*
X32248050Y-84074490D01*
X32241877Y-83975568D01*
X32232598Y-83906145D01*
X32218973Y-83856590D01*
X32199761Y-83817273D01*
X32176598Y-83782584D01*
X32064848Y-83671770D01*
X31928487Y-83607689D01*
X31780175Y-83592339D01*
X31632571Y-83627719D01*
G36*
X33878100Y-83611903D02*
G01*
X33766550Y-83667522D01*
X33668092Y-83769931D01*
X33640977Y-83807864D01*
X33611438Y-83857500D01*
X33592272Y-83911412D01*
X33581307Y-83983364D01*
X33576371Y-84087122D01*
X33575287Y-84224101D01*
X33580182Y-84411815D01*
X33597196Y-84552758D01*
X33629823Y-84657908D01*
X33681558Y-84738243D01*
X33755896Y-84804741D01*
X33761358Y-84808678D01*
X33834620Y-84848953D01*
X33922840Y-84868880D01*
X34035038Y-84873793D01*
X34217433Y-84873793D01*
X34217509Y-85050857D01*
X34219207Y-85149470D01*
X34229550Y-85207314D01*
X34256578Y-85242006D01*
X34308332Y-85271164D01*
X34320761Y-85277121D01*
X34378923Y-85305039D01*
X34423956Y-85322672D01*
X34457441Y-85324194D01*
X34480962Y-85303781D01*
X34496100Y-85255607D01*
X34504437Y-85173846D01*
X34507556Y-85052672D01*
X34507040Y-84886260D01*
X34504471Y-84668785D01*
X34503668Y-84603736D01*
X34500778Y-84379502D01*
X34498188Y-84232821D01*
X34217586Y-84232821D01*
X34216009Y-84357326D01*
X34209000Y-84438787D01*
X34193142Y-84492515D01*
X34165019Y-84533823D01*
X34145925Y-84553971D01*
X34067865Y-84612921D01*
X33998753Y-84617720D01*
X33927440Y-84569038D01*
X33925632Y-84567241D01*
X33896617Y-84529618D01*
X33878967Y-84478484D01*
X33870064Y-84399738D01*
X33867291Y-84279276D01*
X33867241Y-84252588D01*
X33873942Y-84086583D01*
X33895752Y-83971505D01*
X33935235Y-83901254D01*
X33994956Y-83869729D01*
X34029472Y-83866552D01*
X34111389Y-83881460D01*
X34167579Y-83930548D01*
X34201402Y-84020362D01*
X34216220Y-84157445D01*
X34217586Y-84232821D01*
X34498188Y-84232821D01*
X34497713Y-84205952D01*
X34493753Y-84075382D01*
X34488174Y-83980087D01*
X34480254Y-83912364D01*
X34469269Y-83864507D01*
X34454499Y-83828813D01*
X34435218Y-83797578D01*
X34426951Y-83785824D01*
X34317288Y-83674797D01*
X34178635Y-83611847D01*
X34018246Y-83594297D01*
X33878100Y-83611903D01*
X33878100Y-83611903D01*
G37*
X33878100Y-83611903D02*
X33766550Y-83667522D01*
X33668092Y-83769931D01*
X33640977Y-83807864D01*
X33611438Y-83857500D01*
X33592272Y-83911412D01*
X33581307Y-83983364D01*
X33576371Y-84087122D01*
X33575287Y-84224101D01*
X33580182Y-84411815D01*
X33597196Y-84552758D01*
X33629823Y-84657908D01*
X33681558Y-84738243D01*
X33755896Y-84804741D01*
X33761358Y-84808678D01*
X33834620Y-84848953D01*
X33922840Y-84868880D01*
X34035038Y-84873793D01*
X34217433Y-84873793D01*
X34217509Y-85050857D01*
X34219207Y-85149470D01*
X34229550Y-85207314D01*
X34256578Y-85242006D01*
X34308332Y-85271164D01*
X34320761Y-85277121D01*
X34378923Y-85305039D01*
X34423956Y-85322672D01*
X34457441Y-85324194D01*
X34480962Y-85303781D01*
X34496100Y-85255607D01*
X34504437Y-85173846D01*
X34507556Y-85052672D01*
X34507040Y-84886260D01*
X34504471Y-84668785D01*
X34503668Y-84603736D01*
X34500778Y-84379502D01*
X34498188Y-84232821D01*
X34217586Y-84232821D01*
X34216009Y-84357326D01*
X34209000Y-84438787D01*
X34193142Y-84492515D01*
X34165019Y-84533823D01*
X34145925Y-84553971D01*
X34067865Y-84612921D01*
X33998753Y-84617720D01*
X33927440Y-84569038D01*
X33925632Y-84567241D01*
X33896617Y-84529618D01*
X33878967Y-84478484D01*
X33870064Y-84399738D01*
X33867291Y-84279276D01*
X33867241Y-84252588D01*
X33873942Y-84086583D01*
X33895752Y-83971505D01*
X33935235Y-83901254D01*
X33994956Y-83869729D01*
X34029472Y-83866552D01*
X34111389Y-83881460D01*
X34167579Y-83930548D01*
X34201402Y-84020362D01*
X34216220Y-84157445D01*
X34217586Y-84232821D01*
X34498188Y-84232821D01*
X34497713Y-84205952D01*
X34493753Y-84075382D01*
X34488174Y-83980087D01*
X34480254Y-83912364D01*
X34469269Y-83864507D01*
X34454499Y-83828813D01*
X34435218Y-83797578D01*
X34426951Y-83785824D01*
X34317288Y-83674797D01*
X34178635Y-83611847D01*
X34018246Y-83594297D01*
X33878100Y-83611903D01*
M02*
