G04 #@! TF.GenerationSoftware,KiCad,Pcbnew,(5.1.0)-1*
G04 #@! TF.CreationDate,2021-07-08T22:58:53+02:00*
G04 #@! TF.ProjectId,test-case-controller,74657374-2d63-4617-9365-2d636f6e7472,V1.0*
G04 #@! TF.SameCoordinates,Original*
G04 #@! TF.FileFunction,Paste,Top*
G04 #@! TF.FilePolarity,Positive*
%FSLAX46Y46*%
G04 Gerber Fmt 4.6, Leading zero omitted, Abs format (unit mm)*
G04 Created by KiCad (PCBNEW (5.1.0)-1) date 2021-07-08 22:58:53*
%MOMM*%
%LPD*%
G04 APERTURE LIST*
%ADD10C,0.050000*%
%ADD11C,0.150000*%
%ADD12C,0.875000*%
%ADD13R,2.500000X1.800000*%
%ADD14R,1.200000X0.900000*%
%ADD15R,0.550000X1.600000*%
%ADD16R,1.600000X0.550000*%
%ADD17R,1.100000X0.400000*%
%ADD18R,0.400000X1.900000*%
%ADD19R,0.650000X1.050000*%
G04 APERTURE END LIST*
D10*
X15000000Y-115000000D02*
X15000000Y-15000000D01*
X15000000Y-115000000D02*
X115000000Y-115000000D01*
X115000000Y-15000000D02*
X115000000Y-115000000D01*
X15000000Y-15000000D02*
X115000000Y-15000000D01*
D11*
G36*
X90702691Y-36526053D02*
G01*
X90723926Y-36529203D01*
X90744750Y-36534419D01*
X90764962Y-36541651D01*
X90784368Y-36550830D01*
X90802781Y-36561866D01*
X90820024Y-36574654D01*
X90835930Y-36589070D01*
X90850346Y-36604976D01*
X90863134Y-36622219D01*
X90874170Y-36640632D01*
X90883349Y-36660038D01*
X90890581Y-36680250D01*
X90895797Y-36701074D01*
X90898947Y-36722309D01*
X90900000Y-36743750D01*
X90900000Y-37256250D01*
X90898947Y-37277691D01*
X90895797Y-37298926D01*
X90890581Y-37319750D01*
X90883349Y-37339962D01*
X90874170Y-37359368D01*
X90863134Y-37377781D01*
X90850346Y-37395024D01*
X90835930Y-37410930D01*
X90820024Y-37425346D01*
X90802781Y-37438134D01*
X90784368Y-37449170D01*
X90764962Y-37458349D01*
X90744750Y-37465581D01*
X90723926Y-37470797D01*
X90702691Y-37473947D01*
X90681250Y-37475000D01*
X90243750Y-37475000D01*
X90222309Y-37473947D01*
X90201074Y-37470797D01*
X90180250Y-37465581D01*
X90160038Y-37458349D01*
X90140632Y-37449170D01*
X90122219Y-37438134D01*
X90104976Y-37425346D01*
X90089070Y-37410930D01*
X90074654Y-37395024D01*
X90061866Y-37377781D01*
X90050830Y-37359368D01*
X90041651Y-37339962D01*
X90034419Y-37319750D01*
X90029203Y-37298926D01*
X90026053Y-37277691D01*
X90025000Y-37256250D01*
X90025000Y-36743750D01*
X90026053Y-36722309D01*
X90029203Y-36701074D01*
X90034419Y-36680250D01*
X90041651Y-36660038D01*
X90050830Y-36640632D01*
X90061866Y-36622219D01*
X90074654Y-36604976D01*
X90089070Y-36589070D01*
X90104976Y-36574654D01*
X90122219Y-36561866D01*
X90140632Y-36550830D01*
X90160038Y-36541651D01*
X90180250Y-36534419D01*
X90201074Y-36529203D01*
X90222309Y-36526053D01*
X90243750Y-36525000D01*
X90681250Y-36525000D01*
X90702691Y-36526053D01*
X90702691Y-36526053D01*
G37*
D12*
X90462500Y-37000000D03*
D11*
G36*
X92277691Y-36526053D02*
G01*
X92298926Y-36529203D01*
X92319750Y-36534419D01*
X92339962Y-36541651D01*
X92359368Y-36550830D01*
X92377781Y-36561866D01*
X92395024Y-36574654D01*
X92410930Y-36589070D01*
X92425346Y-36604976D01*
X92438134Y-36622219D01*
X92449170Y-36640632D01*
X92458349Y-36660038D01*
X92465581Y-36680250D01*
X92470797Y-36701074D01*
X92473947Y-36722309D01*
X92475000Y-36743750D01*
X92475000Y-37256250D01*
X92473947Y-37277691D01*
X92470797Y-37298926D01*
X92465581Y-37319750D01*
X92458349Y-37339962D01*
X92449170Y-37359368D01*
X92438134Y-37377781D01*
X92425346Y-37395024D01*
X92410930Y-37410930D01*
X92395024Y-37425346D01*
X92377781Y-37438134D01*
X92359368Y-37449170D01*
X92339962Y-37458349D01*
X92319750Y-37465581D01*
X92298926Y-37470797D01*
X92277691Y-37473947D01*
X92256250Y-37475000D01*
X91818750Y-37475000D01*
X91797309Y-37473947D01*
X91776074Y-37470797D01*
X91755250Y-37465581D01*
X91735038Y-37458349D01*
X91715632Y-37449170D01*
X91697219Y-37438134D01*
X91679976Y-37425346D01*
X91664070Y-37410930D01*
X91649654Y-37395024D01*
X91636866Y-37377781D01*
X91625830Y-37359368D01*
X91616651Y-37339962D01*
X91609419Y-37319750D01*
X91604203Y-37298926D01*
X91601053Y-37277691D01*
X91600000Y-37256250D01*
X91600000Y-36743750D01*
X91601053Y-36722309D01*
X91604203Y-36701074D01*
X91609419Y-36680250D01*
X91616651Y-36660038D01*
X91625830Y-36640632D01*
X91636866Y-36622219D01*
X91649654Y-36604976D01*
X91664070Y-36589070D01*
X91679976Y-36574654D01*
X91697219Y-36561866D01*
X91715632Y-36550830D01*
X91735038Y-36541651D01*
X91755250Y-36534419D01*
X91776074Y-36529203D01*
X91797309Y-36526053D01*
X91818750Y-36525000D01*
X92256250Y-36525000D01*
X92277691Y-36526053D01*
X92277691Y-36526053D01*
G37*
D12*
X92037500Y-37000000D03*
D11*
G36*
X91815191Y-23276053D02*
G01*
X91836426Y-23279203D01*
X91857250Y-23284419D01*
X91877462Y-23291651D01*
X91896868Y-23300830D01*
X91915281Y-23311866D01*
X91932524Y-23324654D01*
X91948430Y-23339070D01*
X91962846Y-23354976D01*
X91975634Y-23372219D01*
X91986670Y-23390632D01*
X91995849Y-23410038D01*
X92003081Y-23430250D01*
X92008297Y-23451074D01*
X92011447Y-23472309D01*
X92012500Y-23493750D01*
X92012500Y-24006250D01*
X92011447Y-24027691D01*
X92008297Y-24048926D01*
X92003081Y-24069750D01*
X91995849Y-24089962D01*
X91986670Y-24109368D01*
X91975634Y-24127781D01*
X91962846Y-24145024D01*
X91948430Y-24160930D01*
X91932524Y-24175346D01*
X91915281Y-24188134D01*
X91896868Y-24199170D01*
X91877462Y-24208349D01*
X91857250Y-24215581D01*
X91836426Y-24220797D01*
X91815191Y-24223947D01*
X91793750Y-24225000D01*
X91356250Y-24225000D01*
X91334809Y-24223947D01*
X91313574Y-24220797D01*
X91292750Y-24215581D01*
X91272538Y-24208349D01*
X91253132Y-24199170D01*
X91234719Y-24188134D01*
X91217476Y-24175346D01*
X91201570Y-24160930D01*
X91187154Y-24145024D01*
X91174366Y-24127781D01*
X91163330Y-24109368D01*
X91154151Y-24089962D01*
X91146919Y-24069750D01*
X91141703Y-24048926D01*
X91138553Y-24027691D01*
X91137500Y-24006250D01*
X91137500Y-23493750D01*
X91138553Y-23472309D01*
X91141703Y-23451074D01*
X91146919Y-23430250D01*
X91154151Y-23410038D01*
X91163330Y-23390632D01*
X91174366Y-23372219D01*
X91187154Y-23354976D01*
X91201570Y-23339070D01*
X91217476Y-23324654D01*
X91234719Y-23311866D01*
X91253132Y-23300830D01*
X91272538Y-23291651D01*
X91292750Y-23284419D01*
X91313574Y-23279203D01*
X91334809Y-23276053D01*
X91356250Y-23275000D01*
X91793750Y-23275000D01*
X91815191Y-23276053D01*
X91815191Y-23276053D01*
G37*
D12*
X91575000Y-23750000D03*
D11*
G36*
X90240191Y-23276053D02*
G01*
X90261426Y-23279203D01*
X90282250Y-23284419D01*
X90302462Y-23291651D01*
X90321868Y-23300830D01*
X90340281Y-23311866D01*
X90357524Y-23324654D01*
X90373430Y-23339070D01*
X90387846Y-23354976D01*
X90400634Y-23372219D01*
X90411670Y-23390632D01*
X90420849Y-23410038D01*
X90428081Y-23430250D01*
X90433297Y-23451074D01*
X90436447Y-23472309D01*
X90437500Y-23493750D01*
X90437500Y-24006250D01*
X90436447Y-24027691D01*
X90433297Y-24048926D01*
X90428081Y-24069750D01*
X90420849Y-24089962D01*
X90411670Y-24109368D01*
X90400634Y-24127781D01*
X90387846Y-24145024D01*
X90373430Y-24160930D01*
X90357524Y-24175346D01*
X90340281Y-24188134D01*
X90321868Y-24199170D01*
X90302462Y-24208349D01*
X90282250Y-24215581D01*
X90261426Y-24220797D01*
X90240191Y-24223947D01*
X90218750Y-24225000D01*
X89781250Y-24225000D01*
X89759809Y-24223947D01*
X89738574Y-24220797D01*
X89717750Y-24215581D01*
X89697538Y-24208349D01*
X89678132Y-24199170D01*
X89659719Y-24188134D01*
X89642476Y-24175346D01*
X89626570Y-24160930D01*
X89612154Y-24145024D01*
X89599366Y-24127781D01*
X89588330Y-24109368D01*
X89579151Y-24089962D01*
X89571919Y-24069750D01*
X89566703Y-24048926D01*
X89563553Y-24027691D01*
X89562500Y-24006250D01*
X89562500Y-23493750D01*
X89563553Y-23472309D01*
X89566703Y-23451074D01*
X89571919Y-23430250D01*
X89579151Y-23410038D01*
X89588330Y-23390632D01*
X89599366Y-23372219D01*
X89612154Y-23354976D01*
X89626570Y-23339070D01*
X89642476Y-23324654D01*
X89659719Y-23311866D01*
X89678132Y-23300830D01*
X89697538Y-23291651D01*
X89717750Y-23284419D01*
X89738574Y-23279203D01*
X89759809Y-23276053D01*
X89781250Y-23275000D01*
X90218750Y-23275000D01*
X90240191Y-23276053D01*
X90240191Y-23276053D01*
G37*
D12*
X90000000Y-23750000D03*
D11*
G36*
X90240191Y-21776053D02*
G01*
X90261426Y-21779203D01*
X90282250Y-21784419D01*
X90302462Y-21791651D01*
X90321868Y-21800830D01*
X90340281Y-21811866D01*
X90357524Y-21824654D01*
X90373430Y-21839070D01*
X90387846Y-21854976D01*
X90400634Y-21872219D01*
X90411670Y-21890632D01*
X90420849Y-21910038D01*
X90428081Y-21930250D01*
X90433297Y-21951074D01*
X90436447Y-21972309D01*
X90437500Y-21993750D01*
X90437500Y-22506250D01*
X90436447Y-22527691D01*
X90433297Y-22548926D01*
X90428081Y-22569750D01*
X90420849Y-22589962D01*
X90411670Y-22609368D01*
X90400634Y-22627781D01*
X90387846Y-22645024D01*
X90373430Y-22660930D01*
X90357524Y-22675346D01*
X90340281Y-22688134D01*
X90321868Y-22699170D01*
X90302462Y-22708349D01*
X90282250Y-22715581D01*
X90261426Y-22720797D01*
X90240191Y-22723947D01*
X90218750Y-22725000D01*
X89781250Y-22725000D01*
X89759809Y-22723947D01*
X89738574Y-22720797D01*
X89717750Y-22715581D01*
X89697538Y-22708349D01*
X89678132Y-22699170D01*
X89659719Y-22688134D01*
X89642476Y-22675346D01*
X89626570Y-22660930D01*
X89612154Y-22645024D01*
X89599366Y-22627781D01*
X89588330Y-22609368D01*
X89579151Y-22589962D01*
X89571919Y-22569750D01*
X89566703Y-22548926D01*
X89563553Y-22527691D01*
X89562500Y-22506250D01*
X89562500Y-21993750D01*
X89563553Y-21972309D01*
X89566703Y-21951074D01*
X89571919Y-21930250D01*
X89579151Y-21910038D01*
X89588330Y-21890632D01*
X89599366Y-21872219D01*
X89612154Y-21854976D01*
X89626570Y-21839070D01*
X89642476Y-21824654D01*
X89659719Y-21811866D01*
X89678132Y-21800830D01*
X89697538Y-21791651D01*
X89717750Y-21784419D01*
X89738574Y-21779203D01*
X89759809Y-21776053D01*
X89781250Y-21775000D01*
X90218750Y-21775000D01*
X90240191Y-21776053D01*
X90240191Y-21776053D01*
G37*
D12*
X90000000Y-22250000D03*
D11*
G36*
X91815191Y-21776053D02*
G01*
X91836426Y-21779203D01*
X91857250Y-21784419D01*
X91877462Y-21791651D01*
X91896868Y-21800830D01*
X91915281Y-21811866D01*
X91932524Y-21824654D01*
X91948430Y-21839070D01*
X91962846Y-21854976D01*
X91975634Y-21872219D01*
X91986670Y-21890632D01*
X91995849Y-21910038D01*
X92003081Y-21930250D01*
X92008297Y-21951074D01*
X92011447Y-21972309D01*
X92012500Y-21993750D01*
X92012500Y-22506250D01*
X92011447Y-22527691D01*
X92008297Y-22548926D01*
X92003081Y-22569750D01*
X91995849Y-22589962D01*
X91986670Y-22609368D01*
X91975634Y-22627781D01*
X91962846Y-22645024D01*
X91948430Y-22660930D01*
X91932524Y-22675346D01*
X91915281Y-22688134D01*
X91896868Y-22699170D01*
X91877462Y-22708349D01*
X91857250Y-22715581D01*
X91836426Y-22720797D01*
X91815191Y-22723947D01*
X91793750Y-22725000D01*
X91356250Y-22725000D01*
X91334809Y-22723947D01*
X91313574Y-22720797D01*
X91292750Y-22715581D01*
X91272538Y-22708349D01*
X91253132Y-22699170D01*
X91234719Y-22688134D01*
X91217476Y-22675346D01*
X91201570Y-22660930D01*
X91187154Y-22645024D01*
X91174366Y-22627781D01*
X91163330Y-22609368D01*
X91154151Y-22589962D01*
X91146919Y-22569750D01*
X91141703Y-22548926D01*
X91138553Y-22527691D01*
X91137500Y-22506250D01*
X91137500Y-21993750D01*
X91138553Y-21972309D01*
X91141703Y-21951074D01*
X91146919Y-21930250D01*
X91154151Y-21910038D01*
X91163330Y-21890632D01*
X91174366Y-21872219D01*
X91187154Y-21854976D01*
X91201570Y-21839070D01*
X91217476Y-21824654D01*
X91234719Y-21811866D01*
X91253132Y-21800830D01*
X91272538Y-21791651D01*
X91292750Y-21784419D01*
X91313574Y-21779203D01*
X91334809Y-21776053D01*
X91356250Y-21775000D01*
X91793750Y-21775000D01*
X91815191Y-21776053D01*
X91815191Y-21776053D01*
G37*
D12*
X91575000Y-22250000D03*
D11*
G36*
X87490191Y-36526053D02*
G01*
X87511426Y-36529203D01*
X87532250Y-36534419D01*
X87552462Y-36541651D01*
X87571868Y-36550830D01*
X87590281Y-36561866D01*
X87607524Y-36574654D01*
X87623430Y-36589070D01*
X87637846Y-36604976D01*
X87650634Y-36622219D01*
X87661670Y-36640632D01*
X87670849Y-36660038D01*
X87678081Y-36680250D01*
X87683297Y-36701074D01*
X87686447Y-36722309D01*
X87687500Y-36743750D01*
X87687500Y-37256250D01*
X87686447Y-37277691D01*
X87683297Y-37298926D01*
X87678081Y-37319750D01*
X87670849Y-37339962D01*
X87661670Y-37359368D01*
X87650634Y-37377781D01*
X87637846Y-37395024D01*
X87623430Y-37410930D01*
X87607524Y-37425346D01*
X87590281Y-37438134D01*
X87571868Y-37449170D01*
X87552462Y-37458349D01*
X87532250Y-37465581D01*
X87511426Y-37470797D01*
X87490191Y-37473947D01*
X87468750Y-37475000D01*
X87031250Y-37475000D01*
X87009809Y-37473947D01*
X86988574Y-37470797D01*
X86967750Y-37465581D01*
X86947538Y-37458349D01*
X86928132Y-37449170D01*
X86909719Y-37438134D01*
X86892476Y-37425346D01*
X86876570Y-37410930D01*
X86862154Y-37395024D01*
X86849366Y-37377781D01*
X86838330Y-37359368D01*
X86829151Y-37339962D01*
X86821919Y-37319750D01*
X86816703Y-37298926D01*
X86813553Y-37277691D01*
X86812500Y-37256250D01*
X86812500Y-36743750D01*
X86813553Y-36722309D01*
X86816703Y-36701074D01*
X86821919Y-36680250D01*
X86829151Y-36660038D01*
X86838330Y-36640632D01*
X86849366Y-36622219D01*
X86862154Y-36604976D01*
X86876570Y-36589070D01*
X86892476Y-36574654D01*
X86909719Y-36561866D01*
X86928132Y-36550830D01*
X86947538Y-36541651D01*
X86967750Y-36534419D01*
X86988574Y-36529203D01*
X87009809Y-36526053D01*
X87031250Y-36525000D01*
X87468750Y-36525000D01*
X87490191Y-36526053D01*
X87490191Y-36526053D01*
G37*
D12*
X87250000Y-37000000D03*
D11*
G36*
X89065191Y-36526053D02*
G01*
X89086426Y-36529203D01*
X89107250Y-36534419D01*
X89127462Y-36541651D01*
X89146868Y-36550830D01*
X89165281Y-36561866D01*
X89182524Y-36574654D01*
X89198430Y-36589070D01*
X89212846Y-36604976D01*
X89225634Y-36622219D01*
X89236670Y-36640632D01*
X89245849Y-36660038D01*
X89253081Y-36680250D01*
X89258297Y-36701074D01*
X89261447Y-36722309D01*
X89262500Y-36743750D01*
X89262500Y-37256250D01*
X89261447Y-37277691D01*
X89258297Y-37298926D01*
X89253081Y-37319750D01*
X89245849Y-37339962D01*
X89236670Y-37359368D01*
X89225634Y-37377781D01*
X89212846Y-37395024D01*
X89198430Y-37410930D01*
X89182524Y-37425346D01*
X89165281Y-37438134D01*
X89146868Y-37449170D01*
X89127462Y-37458349D01*
X89107250Y-37465581D01*
X89086426Y-37470797D01*
X89065191Y-37473947D01*
X89043750Y-37475000D01*
X88606250Y-37475000D01*
X88584809Y-37473947D01*
X88563574Y-37470797D01*
X88542750Y-37465581D01*
X88522538Y-37458349D01*
X88503132Y-37449170D01*
X88484719Y-37438134D01*
X88467476Y-37425346D01*
X88451570Y-37410930D01*
X88437154Y-37395024D01*
X88424366Y-37377781D01*
X88413330Y-37359368D01*
X88404151Y-37339962D01*
X88396919Y-37319750D01*
X88391703Y-37298926D01*
X88388553Y-37277691D01*
X88387500Y-37256250D01*
X88387500Y-36743750D01*
X88388553Y-36722309D01*
X88391703Y-36701074D01*
X88396919Y-36680250D01*
X88404151Y-36660038D01*
X88413330Y-36640632D01*
X88424366Y-36622219D01*
X88437154Y-36604976D01*
X88451570Y-36589070D01*
X88467476Y-36574654D01*
X88484719Y-36561866D01*
X88503132Y-36550830D01*
X88522538Y-36541651D01*
X88542750Y-36534419D01*
X88563574Y-36529203D01*
X88584809Y-36526053D01*
X88606250Y-36525000D01*
X89043750Y-36525000D01*
X89065191Y-36526053D01*
X89065191Y-36526053D01*
G37*
D12*
X88825000Y-37000000D03*
D11*
G36*
X102777691Y-23276053D02*
G01*
X102798926Y-23279203D01*
X102819750Y-23284419D01*
X102839962Y-23291651D01*
X102859368Y-23300830D01*
X102877781Y-23311866D01*
X102895024Y-23324654D01*
X102910930Y-23339070D01*
X102925346Y-23354976D01*
X102938134Y-23372219D01*
X102949170Y-23390632D01*
X102958349Y-23410038D01*
X102965581Y-23430250D01*
X102970797Y-23451074D01*
X102973947Y-23472309D01*
X102975000Y-23493750D01*
X102975000Y-24006250D01*
X102973947Y-24027691D01*
X102970797Y-24048926D01*
X102965581Y-24069750D01*
X102958349Y-24089962D01*
X102949170Y-24109368D01*
X102938134Y-24127781D01*
X102925346Y-24145024D01*
X102910930Y-24160930D01*
X102895024Y-24175346D01*
X102877781Y-24188134D01*
X102859368Y-24199170D01*
X102839962Y-24208349D01*
X102819750Y-24215581D01*
X102798926Y-24220797D01*
X102777691Y-24223947D01*
X102756250Y-24225000D01*
X102318750Y-24225000D01*
X102297309Y-24223947D01*
X102276074Y-24220797D01*
X102255250Y-24215581D01*
X102235038Y-24208349D01*
X102215632Y-24199170D01*
X102197219Y-24188134D01*
X102179976Y-24175346D01*
X102164070Y-24160930D01*
X102149654Y-24145024D01*
X102136866Y-24127781D01*
X102125830Y-24109368D01*
X102116651Y-24089962D01*
X102109419Y-24069750D01*
X102104203Y-24048926D01*
X102101053Y-24027691D01*
X102100000Y-24006250D01*
X102100000Y-23493750D01*
X102101053Y-23472309D01*
X102104203Y-23451074D01*
X102109419Y-23430250D01*
X102116651Y-23410038D01*
X102125830Y-23390632D01*
X102136866Y-23372219D01*
X102149654Y-23354976D01*
X102164070Y-23339070D01*
X102179976Y-23324654D01*
X102197219Y-23311866D01*
X102215632Y-23300830D01*
X102235038Y-23291651D01*
X102255250Y-23284419D01*
X102276074Y-23279203D01*
X102297309Y-23276053D01*
X102318750Y-23275000D01*
X102756250Y-23275000D01*
X102777691Y-23276053D01*
X102777691Y-23276053D01*
G37*
D12*
X102537500Y-23750000D03*
D11*
G36*
X101202691Y-23276053D02*
G01*
X101223926Y-23279203D01*
X101244750Y-23284419D01*
X101264962Y-23291651D01*
X101284368Y-23300830D01*
X101302781Y-23311866D01*
X101320024Y-23324654D01*
X101335930Y-23339070D01*
X101350346Y-23354976D01*
X101363134Y-23372219D01*
X101374170Y-23390632D01*
X101383349Y-23410038D01*
X101390581Y-23430250D01*
X101395797Y-23451074D01*
X101398947Y-23472309D01*
X101400000Y-23493750D01*
X101400000Y-24006250D01*
X101398947Y-24027691D01*
X101395797Y-24048926D01*
X101390581Y-24069750D01*
X101383349Y-24089962D01*
X101374170Y-24109368D01*
X101363134Y-24127781D01*
X101350346Y-24145024D01*
X101335930Y-24160930D01*
X101320024Y-24175346D01*
X101302781Y-24188134D01*
X101284368Y-24199170D01*
X101264962Y-24208349D01*
X101244750Y-24215581D01*
X101223926Y-24220797D01*
X101202691Y-24223947D01*
X101181250Y-24225000D01*
X100743750Y-24225000D01*
X100722309Y-24223947D01*
X100701074Y-24220797D01*
X100680250Y-24215581D01*
X100660038Y-24208349D01*
X100640632Y-24199170D01*
X100622219Y-24188134D01*
X100604976Y-24175346D01*
X100589070Y-24160930D01*
X100574654Y-24145024D01*
X100561866Y-24127781D01*
X100550830Y-24109368D01*
X100541651Y-24089962D01*
X100534419Y-24069750D01*
X100529203Y-24048926D01*
X100526053Y-24027691D01*
X100525000Y-24006250D01*
X100525000Y-23493750D01*
X100526053Y-23472309D01*
X100529203Y-23451074D01*
X100534419Y-23430250D01*
X100541651Y-23410038D01*
X100550830Y-23390632D01*
X100561866Y-23372219D01*
X100574654Y-23354976D01*
X100589070Y-23339070D01*
X100604976Y-23324654D01*
X100622219Y-23311866D01*
X100640632Y-23300830D01*
X100660038Y-23291651D01*
X100680250Y-23284419D01*
X100701074Y-23279203D01*
X100722309Y-23276053D01*
X100743750Y-23275000D01*
X101181250Y-23275000D01*
X101202691Y-23276053D01*
X101202691Y-23276053D01*
G37*
D12*
X100962500Y-23750000D03*
D11*
G36*
X67202691Y-55526053D02*
G01*
X67223926Y-55529203D01*
X67244750Y-55534419D01*
X67264962Y-55541651D01*
X67284368Y-55550830D01*
X67302781Y-55561866D01*
X67320024Y-55574654D01*
X67335930Y-55589070D01*
X67350346Y-55604976D01*
X67363134Y-55622219D01*
X67374170Y-55640632D01*
X67383349Y-55660038D01*
X67390581Y-55680250D01*
X67395797Y-55701074D01*
X67398947Y-55722309D01*
X67400000Y-55743750D01*
X67400000Y-56256250D01*
X67398947Y-56277691D01*
X67395797Y-56298926D01*
X67390581Y-56319750D01*
X67383349Y-56339962D01*
X67374170Y-56359368D01*
X67363134Y-56377781D01*
X67350346Y-56395024D01*
X67335930Y-56410930D01*
X67320024Y-56425346D01*
X67302781Y-56438134D01*
X67284368Y-56449170D01*
X67264962Y-56458349D01*
X67244750Y-56465581D01*
X67223926Y-56470797D01*
X67202691Y-56473947D01*
X67181250Y-56475000D01*
X66743750Y-56475000D01*
X66722309Y-56473947D01*
X66701074Y-56470797D01*
X66680250Y-56465581D01*
X66660038Y-56458349D01*
X66640632Y-56449170D01*
X66622219Y-56438134D01*
X66604976Y-56425346D01*
X66589070Y-56410930D01*
X66574654Y-56395024D01*
X66561866Y-56377781D01*
X66550830Y-56359368D01*
X66541651Y-56339962D01*
X66534419Y-56319750D01*
X66529203Y-56298926D01*
X66526053Y-56277691D01*
X66525000Y-56256250D01*
X66525000Y-55743750D01*
X66526053Y-55722309D01*
X66529203Y-55701074D01*
X66534419Y-55680250D01*
X66541651Y-55660038D01*
X66550830Y-55640632D01*
X66561866Y-55622219D01*
X66574654Y-55604976D01*
X66589070Y-55589070D01*
X66604976Y-55574654D01*
X66622219Y-55561866D01*
X66640632Y-55550830D01*
X66660038Y-55541651D01*
X66680250Y-55534419D01*
X66701074Y-55529203D01*
X66722309Y-55526053D01*
X66743750Y-55525000D01*
X67181250Y-55525000D01*
X67202691Y-55526053D01*
X67202691Y-55526053D01*
G37*
D12*
X66962500Y-56000000D03*
D11*
G36*
X68777691Y-55526053D02*
G01*
X68798926Y-55529203D01*
X68819750Y-55534419D01*
X68839962Y-55541651D01*
X68859368Y-55550830D01*
X68877781Y-55561866D01*
X68895024Y-55574654D01*
X68910930Y-55589070D01*
X68925346Y-55604976D01*
X68938134Y-55622219D01*
X68949170Y-55640632D01*
X68958349Y-55660038D01*
X68965581Y-55680250D01*
X68970797Y-55701074D01*
X68973947Y-55722309D01*
X68975000Y-55743750D01*
X68975000Y-56256250D01*
X68973947Y-56277691D01*
X68970797Y-56298926D01*
X68965581Y-56319750D01*
X68958349Y-56339962D01*
X68949170Y-56359368D01*
X68938134Y-56377781D01*
X68925346Y-56395024D01*
X68910930Y-56410930D01*
X68895024Y-56425346D01*
X68877781Y-56438134D01*
X68859368Y-56449170D01*
X68839962Y-56458349D01*
X68819750Y-56465581D01*
X68798926Y-56470797D01*
X68777691Y-56473947D01*
X68756250Y-56475000D01*
X68318750Y-56475000D01*
X68297309Y-56473947D01*
X68276074Y-56470797D01*
X68255250Y-56465581D01*
X68235038Y-56458349D01*
X68215632Y-56449170D01*
X68197219Y-56438134D01*
X68179976Y-56425346D01*
X68164070Y-56410930D01*
X68149654Y-56395024D01*
X68136866Y-56377781D01*
X68125830Y-56359368D01*
X68116651Y-56339962D01*
X68109419Y-56319750D01*
X68104203Y-56298926D01*
X68101053Y-56277691D01*
X68100000Y-56256250D01*
X68100000Y-55743750D01*
X68101053Y-55722309D01*
X68104203Y-55701074D01*
X68109419Y-55680250D01*
X68116651Y-55660038D01*
X68125830Y-55640632D01*
X68136866Y-55622219D01*
X68149654Y-55604976D01*
X68164070Y-55589070D01*
X68179976Y-55574654D01*
X68197219Y-55561866D01*
X68215632Y-55550830D01*
X68235038Y-55541651D01*
X68255250Y-55534419D01*
X68276074Y-55529203D01*
X68297309Y-55526053D01*
X68318750Y-55525000D01*
X68756250Y-55525000D01*
X68777691Y-55526053D01*
X68777691Y-55526053D01*
G37*
D12*
X68537500Y-56000000D03*
D13*
X19500000Y-102000000D03*
X23500000Y-102000000D03*
X33000000Y-102000000D03*
X37000000Y-102000000D03*
X42500000Y-102000000D03*
X46500000Y-102000000D03*
X60000000Y-102000000D03*
X56000000Y-102000000D03*
X65500000Y-102000000D03*
X69500000Y-102000000D03*
X79000000Y-102000000D03*
X75000000Y-102000000D03*
X88750000Y-102250000D03*
X92750000Y-102250000D03*
X106500000Y-102250000D03*
X102500000Y-102250000D03*
D14*
X34000000Y-27050000D03*
X34000000Y-23750000D03*
X34000000Y-32250000D03*
X34000000Y-35550000D03*
X34000000Y-40750000D03*
X34000000Y-44050000D03*
X34000000Y-49250000D03*
X34000000Y-52550000D03*
X45500000Y-27050000D03*
X45500000Y-23750000D03*
X45500000Y-35550000D03*
X45500000Y-32250000D03*
X45500000Y-44050000D03*
X45500000Y-40750000D03*
X45500000Y-49250000D03*
X45500000Y-52550000D03*
X57000000Y-23750000D03*
X57000000Y-27050000D03*
X57000000Y-32250000D03*
X57000000Y-35550000D03*
X57000000Y-44050000D03*
X57000000Y-40750000D03*
X57000000Y-52550000D03*
X57000000Y-49250000D03*
X68500000Y-27050000D03*
X68500000Y-23750000D03*
X68500000Y-35550000D03*
X68500000Y-32250000D03*
X68500000Y-40750000D03*
X68500000Y-44050000D03*
X68500000Y-49250000D03*
X68500000Y-52550000D03*
D11*
G36*
X99565191Y-23276053D02*
G01*
X99586426Y-23279203D01*
X99607250Y-23284419D01*
X99627462Y-23291651D01*
X99646868Y-23300830D01*
X99665281Y-23311866D01*
X99682524Y-23324654D01*
X99698430Y-23339070D01*
X99712846Y-23354976D01*
X99725634Y-23372219D01*
X99736670Y-23390632D01*
X99745849Y-23410038D01*
X99753081Y-23430250D01*
X99758297Y-23451074D01*
X99761447Y-23472309D01*
X99762500Y-23493750D01*
X99762500Y-24006250D01*
X99761447Y-24027691D01*
X99758297Y-24048926D01*
X99753081Y-24069750D01*
X99745849Y-24089962D01*
X99736670Y-24109368D01*
X99725634Y-24127781D01*
X99712846Y-24145024D01*
X99698430Y-24160930D01*
X99682524Y-24175346D01*
X99665281Y-24188134D01*
X99646868Y-24199170D01*
X99627462Y-24208349D01*
X99607250Y-24215581D01*
X99586426Y-24220797D01*
X99565191Y-24223947D01*
X99543750Y-24225000D01*
X99106250Y-24225000D01*
X99084809Y-24223947D01*
X99063574Y-24220797D01*
X99042750Y-24215581D01*
X99022538Y-24208349D01*
X99003132Y-24199170D01*
X98984719Y-24188134D01*
X98967476Y-24175346D01*
X98951570Y-24160930D01*
X98937154Y-24145024D01*
X98924366Y-24127781D01*
X98913330Y-24109368D01*
X98904151Y-24089962D01*
X98896919Y-24069750D01*
X98891703Y-24048926D01*
X98888553Y-24027691D01*
X98887500Y-24006250D01*
X98887500Y-23493750D01*
X98888553Y-23472309D01*
X98891703Y-23451074D01*
X98896919Y-23430250D01*
X98904151Y-23410038D01*
X98913330Y-23390632D01*
X98924366Y-23372219D01*
X98937154Y-23354976D01*
X98951570Y-23339070D01*
X98967476Y-23324654D01*
X98984719Y-23311866D01*
X99003132Y-23300830D01*
X99022538Y-23291651D01*
X99042750Y-23284419D01*
X99063574Y-23279203D01*
X99084809Y-23276053D01*
X99106250Y-23275000D01*
X99543750Y-23275000D01*
X99565191Y-23276053D01*
X99565191Y-23276053D01*
G37*
D12*
X99325000Y-23750000D03*
D11*
G36*
X97990191Y-23276053D02*
G01*
X98011426Y-23279203D01*
X98032250Y-23284419D01*
X98052462Y-23291651D01*
X98071868Y-23300830D01*
X98090281Y-23311866D01*
X98107524Y-23324654D01*
X98123430Y-23339070D01*
X98137846Y-23354976D01*
X98150634Y-23372219D01*
X98161670Y-23390632D01*
X98170849Y-23410038D01*
X98178081Y-23430250D01*
X98183297Y-23451074D01*
X98186447Y-23472309D01*
X98187500Y-23493750D01*
X98187500Y-24006250D01*
X98186447Y-24027691D01*
X98183297Y-24048926D01*
X98178081Y-24069750D01*
X98170849Y-24089962D01*
X98161670Y-24109368D01*
X98150634Y-24127781D01*
X98137846Y-24145024D01*
X98123430Y-24160930D01*
X98107524Y-24175346D01*
X98090281Y-24188134D01*
X98071868Y-24199170D01*
X98052462Y-24208349D01*
X98032250Y-24215581D01*
X98011426Y-24220797D01*
X97990191Y-24223947D01*
X97968750Y-24225000D01*
X97531250Y-24225000D01*
X97509809Y-24223947D01*
X97488574Y-24220797D01*
X97467750Y-24215581D01*
X97447538Y-24208349D01*
X97428132Y-24199170D01*
X97409719Y-24188134D01*
X97392476Y-24175346D01*
X97376570Y-24160930D01*
X97362154Y-24145024D01*
X97349366Y-24127781D01*
X97338330Y-24109368D01*
X97329151Y-24089962D01*
X97321919Y-24069750D01*
X97316703Y-24048926D01*
X97313553Y-24027691D01*
X97312500Y-24006250D01*
X97312500Y-23493750D01*
X97313553Y-23472309D01*
X97316703Y-23451074D01*
X97321919Y-23430250D01*
X97329151Y-23410038D01*
X97338330Y-23390632D01*
X97349366Y-23372219D01*
X97362154Y-23354976D01*
X97376570Y-23339070D01*
X97392476Y-23324654D01*
X97409719Y-23311866D01*
X97428132Y-23300830D01*
X97447538Y-23291651D01*
X97467750Y-23284419D01*
X97488574Y-23279203D01*
X97509809Y-23276053D01*
X97531250Y-23275000D01*
X97968750Y-23275000D01*
X97990191Y-23276053D01*
X97990191Y-23276053D01*
G37*
D12*
X97750000Y-23750000D03*
D11*
G36*
X17202691Y-86276053D02*
G01*
X17223926Y-86279203D01*
X17244750Y-86284419D01*
X17264962Y-86291651D01*
X17284368Y-86300830D01*
X17302781Y-86311866D01*
X17320024Y-86324654D01*
X17335930Y-86339070D01*
X17350346Y-86354976D01*
X17363134Y-86372219D01*
X17374170Y-86390632D01*
X17383349Y-86410038D01*
X17390581Y-86430250D01*
X17395797Y-86451074D01*
X17398947Y-86472309D01*
X17400000Y-86493750D01*
X17400000Y-87006250D01*
X17398947Y-87027691D01*
X17395797Y-87048926D01*
X17390581Y-87069750D01*
X17383349Y-87089962D01*
X17374170Y-87109368D01*
X17363134Y-87127781D01*
X17350346Y-87145024D01*
X17335930Y-87160930D01*
X17320024Y-87175346D01*
X17302781Y-87188134D01*
X17284368Y-87199170D01*
X17264962Y-87208349D01*
X17244750Y-87215581D01*
X17223926Y-87220797D01*
X17202691Y-87223947D01*
X17181250Y-87225000D01*
X16743750Y-87225000D01*
X16722309Y-87223947D01*
X16701074Y-87220797D01*
X16680250Y-87215581D01*
X16660038Y-87208349D01*
X16640632Y-87199170D01*
X16622219Y-87188134D01*
X16604976Y-87175346D01*
X16589070Y-87160930D01*
X16574654Y-87145024D01*
X16561866Y-87127781D01*
X16550830Y-87109368D01*
X16541651Y-87089962D01*
X16534419Y-87069750D01*
X16529203Y-87048926D01*
X16526053Y-87027691D01*
X16525000Y-87006250D01*
X16525000Y-86493750D01*
X16526053Y-86472309D01*
X16529203Y-86451074D01*
X16534419Y-86430250D01*
X16541651Y-86410038D01*
X16550830Y-86390632D01*
X16561866Y-86372219D01*
X16574654Y-86354976D01*
X16589070Y-86339070D01*
X16604976Y-86324654D01*
X16622219Y-86311866D01*
X16640632Y-86300830D01*
X16660038Y-86291651D01*
X16680250Y-86284419D01*
X16701074Y-86279203D01*
X16722309Y-86276053D01*
X16743750Y-86275000D01*
X17181250Y-86275000D01*
X17202691Y-86276053D01*
X17202691Y-86276053D01*
G37*
D12*
X16962500Y-86750000D03*
D11*
G36*
X18777691Y-86276053D02*
G01*
X18798926Y-86279203D01*
X18819750Y-86284419D01*
X18839962Y-86291651D01*
X18859368Y-86300830D01*
X18877781Y-86311866D01*
X18895024Y-86324654D01*
X18910930Y-86339070D01*
X18925346Y-86354976D01*
X18938134Y-86372219D01*
X18949170Y-86390632D01*
X18958349Y-86410038D01*
X18965581Y-86430250D01*
X18970797Y-86451074D01*
X18973947Y-86472309D01*
X18975000Y-86493750D01*
X18975000Y-87006250D01*
X18973947Y-87027691D01*
X18970797Y-87048926D01*
X18965581Y-87069750D01*
X18958349Y-87089962D01*
X18949170Y-87109368D01*
X18938134Y-87127781D01*
X18925346Y-87145024D01*
X18910930Y-87160930D01*
X18895024Y-87175346D01*
X18877781Y-87188134D01*
X18859368Y-87199170D01*
X18839962Y-87208349D01*
X18819750Y-87215581D01*
X18798926Y-87220797D01*
X18777691Y-87223947D01*
X18756250Y-87225000D01*
X18318750Y-87225000D01*
X18297309Y-87223947D01*
X18276074Y-87220797D01*
X18255250Y-87215581D01*
X18235038Y-87208349D01*
X18215632Y-87199170D01*
X18197219Y-87188134D01*
X18179976Y-87175346D01*
X18164070Y-87160930D01*
X18149654Y-87145024D01*
X18136866Y-87127781D01*
X18125830Y-87109368D01*
X18116651Y-87089962D01*
X18109419Y-87069750D01*
X18104203Y-87048926D01*
X18101053Y-87027691D01*
X18100000Y-87006250D01*
X18100000Y-86493750D01*
X18101053Y-86472309D01*
X18104203Y-86451074D01*
X18109419Y-86430250D01*
X18116651Y-86410038D01*
X18125830Y-86390632D01*
X18136866Y-86372219D01*
X18149654Y-86354976D01*
X18164070Y-86339070D01*
X18179976Y-86324654D01*
X18197219Y-86311866D01*
X18215632Y-86300830D01*
X18235038Y-86291651D01*
X18255250Y-86284419D01*
X18276074Y-86279203D01*
X18297309Y-86276053D01*
X18318750Y-86275000D01*
X18756250Y-86275000D01*
X18777691Y-86276053D01*
X18777691Y-86276053D01*
G37*
D12*
X18537500Y-86750000D03*
D11*
G36*
X28702691Y-86276053D02*
G01*
X28723926Y-86279203D01*
X28744750Y-86284419D01*
X28764962Y-86291651D01*
X28784368Y-86300830D01*
X28802781Y-86311866D01*
X28820024Y-86324654D01*
X28835930Y-86339070D01*
X28850346Y-86354976D01*
X28863134Y-86372219D01*
X28874170Y-86390632D01*
X28883349Y-86410038D01*
X28890581Y-86430250D01*
X28895797Y-86451074D01*
X28898947Y-86472309D01*
X28900000Y-86493750D01*
X28900000Y-87006250D01*
X28898947Y-87027691D01*
X28895797Y-87048926D01*
X28890581Y-87069750D01*
X28883349Y-87089962D01*
X28874170Y-87109368D01*
X28863134Y-87127781D01*
X28850346Y-87145024D01*
X28835930Y-87160930D01*
X28820024Y-87175346D01*
X28802781Y-87188134D01*
X28784368Y-87199170D01*
X28764962Y-87208349D01*
X28744750Y-87215581D01*
X28723926Y-87220797D01*
X28702691Y-87223947D01*
X28681250Y-87225000D01*
X28243750Y-87225000D01*
X28222309Y-87223947D01*
X28201074Y-87220797D01*
X28180250Y-87215581D01*
X28160038Y-87208349D01*
X28140632Y-87199170D01*
X28122219Y-87188134D01*
X28104976Y-87175346D01*
X28089070Y-87160930D01*
X28074654Y-87145024D01*
X28061866Y-87127781D01*
X28050830Y-87109368D01*
X28041651Y-87089962D01*
X28034419Y-87069750D01*
X28029203Y-87048926D01*
X28026053Y-87027691D01*
X28025000Y-87006250D01*
X28025000Y-86493750D01*
X28026053Y-86472309D01*
X28029203Y-86451074D01*
X28034419Y-86430250D01*
X28041651Y-86410038D01*
X28050830Y-86390632D01*
X28061866Y-86372219D01*
X28074654Y-86354976D01*
X28089070Y-86339070D01*
X28104976Y-86324654D01*
X28122219Y-86311866D01*
X28140632Y-86300830D01*
X28160038Y-86291651D01*
X28180250Y-86284419D01*
X28201074Y-86279203D01*
X28222309Y-86276053D01*
X28243750Y-86275000D01*
X28681250Y-86275000D01*
X28702691Y-86276053D01*
X28702691Y-86276053D01*
G37*
D12*
X28462500Y-86750000D03*
D11*
G36*
X30277691Y-86276053D02*
G01*
X30298926Y-86279203D01*
X30319750Y-86284419D01*
X30339962Y-86291651D01*
X30359368Y-86300830D01*
X30377781Y-86311866D01*
X30395024Y-86324654D01*
X30410930Y-86339070D01*
X30425346Y-86354976D01*
X30438134Y-86372219D01*
X30449170Y-86390632D01*
X30458349Y-86410038D01*
X30465581Y-86430250D01*
X30470797Y-86451074D01*
X30473947Y-86472309D01*
X30475000Y-86493750D01*
X30475000Y-87006250D01*
X30473947Y-87027691D01*
X30470797Y-87048926D01*
X30465581Y-87069750D01*
X30458349Y-87089962D01*
X30449170Y-87109368D01*
X30438134Y-87127781D01*
X30425346Y-87145024D01*
X30410930Y-87160930D01*
X30395024Y-87175346D01*
X30377781Y-87188134D01*
X30359368Y-87199170D01*
X30339962Y-87208349D01*
X30319750Y-87215581D01*
X30298926Y-87220797D01*
X30277691Y-87223947D01*
X30256250Y-87225000D01*
X29818750Y-87225000D01*
X29797309Y-87223947D01*
X29776074Y-87220797D01*
X29755250Y-87215581D01*
X29735038Y-87208349D01*
X29715632Y-87199170D01*
X29697219Y-87188134D01*
X29679976Y-87175346D01*
X29664070Y-87160930D01*
X29649654Y-87145024D01*
X29636866Y-87127781D01*
X29625830Y-87109368D01*
X29616651Y-87089962D01*
X29609419Y-87069750D01*
X29604203Y-87048926D01*
X29601053Y-87027691D01*
X29600000Y-87006250D01*
X29600000Y-86493750D01*
X29601053Y-86472309D01*
X29604203Y-86451074D01*
X29609419Y-86430250D01*
X29616651Y-86410038D01*
X29625830Y-86390632D01*
X29636866Y-86372219D01*
X29649654Y-86354976D01*
X29664070Y-86339070D01*
X29679976Y-86324654D01*
X29697219Y-86311866D01*
X29715632Y-86300830D01*
X29735038Y-86291651D01*
X29755250Y-86284419D01*
X29776074Y-86279203D01*
X29797309Y-86276053D01*
X29818750Y-86275000D01*
X30256250Y-86275000D01*
X30277691Y-86276053D01*
X30277691Y-86276053D01*
G37*
D12*
X30037500Y-86750000D03*
D11*
G36*
X18777691Y-88026053D02*
G01*
X18798926Y-88029203D01*
X18819750Y-88034419D01*
X18839962Y-88041651D01*
X18859368Y-88050830D01*
X18877781Y-88061866D01*
X18895024Y-88074654D01*
X18910930Y-88089070D01*
X18925346Y-88104976D01*
X18938134Y-88122219D01*
X18949170Y-88140632D01*
X18958349Y-88160038D01*
X18965581Y-88180250D01*
X18970797Y-88201074D01*
X18973947Y-88222309D01*
X18975000Y-88243750D01*
X18975000Y-88756250D01*
X18973947Y-88777691D01*
X18970797Y-88798926D01*
X18965581Y-88819750D01*
X18958349Y-88839962D01*
X18949170Y-88859368D01*
X18938134Y-88877781D01*
X18925346Y-88895024D01*
X18910930Y-88910930D01*
X18895024Y-88925346D01*
X18877781Y-88938134D01*
X18859368Y-88949170D01*
X18839962Y-88958349D01*
X18819750Y-88965581D01*
X18798926Y-88970797D01*
X18777691Y-88973947D01*
X18756250Y-88975000D01*
X18318750Y-88975000D01*
X18297309Y-88973947D01*
X18276074Y-88970797D01*
X18255250Y-88965581D01*
X18235038Y-88958349D01*
X18215632Y-88949170D01*
X18197219Y-88938134D01*
X18179976Y-88925346D01*
X18164070Y-88910930D01*
X18149654Y-88895024D01*
X18136866Y-88877781D01*
X18125830Y-88859368D01*
X18116651Y-88839962D01*
X18109419Y-88819750D01*
X18104203Y-88798926D01*
X18101053Y-88777691D01*
X18100000Y-88756250D01*
X18100000Y-88243750D01*
X18101053Y-88222309D01*
X18104203Y-88201074D01*
X18109419Y-88180250D01*
X18116651Y-88160038D01*
X18125830Y-88140632D01*
X18136866Y-88122219D01*
X18149654Y-88104976D01*
X18164070Y-88089070D01*
X18179976Y-88074654D01*
X18197219Y-88061866D01*
X18215632Y-88050830D01*
X18235038Y-88041651D01*
X18255250Y-88034419D01*
X18276074Y-88029203D01*
X18297309Y-88026053D01*
X18318750Y-88025000D01*
X18756250Y-88025000D01*
X18777691Y-88026053D01*
X18777691Y-88026053D01*
G37*
D12*
X18537500Y-88500000D03*
D11*
G36*
X17202691Y-88026053D02*
G01*
X17223926Y-88029203D01*
X17244750Y-88034419D01*
X17264962Y-88041651D01*
X17284368Y-88050830D01*
X17302781Y-88061866D01*
X17320024Y-88074654D01*
X17335930Y-88089070D01*
X17350346Y-88104976D01*
X17363134Y-88122219D01*
X17374170Y-88140632D01*
X17383349Y-88160038D01*
X17390581Y-88180250D01*
X17395797Y-88201074D01*
X17398947Y-88222309D01*
X17400000Y-88243750D01*
X17400000Y-88756250D01*
X17398947Y-88777691D01*
X17395797Y-88798926D01*
X17390581Y-88819750D01*
X17383349Y-88839962D01*
X17374170Y-88859368D01*
X17363134Y-88877781D01*
X17350346Y-88895024D01*
X17335930Y-88910930D01*
X17320024Y-88925346D01*
X17302781Y-88938134D01*
X17284368Y-88949170D01*
X17264962Y-88958349D01*
X17244750Y-88965581D01*
X17223926Y-88970797D01*
X17202691Y-88973947D01*
X17181250Y-88975000D01*
X16743750Y-88975000D01*
X16722309Y-88973947D01*
X16701074Y-88970797D01*
X16680250Y-88965581D01*
X16660038Y-88958349D01*
X16640632Y-88949170D01*
X16622219Y-88938134D01*
X16604976Y-88925346D01*
X16589070Y-88910930D01*
X16574654Y-88895024D01*
X16561866Y-88877781D01*
X16550830Y-88859368D01*
X16541651Y-88839962D01*
X16534419Y-88819750D01*
X16529203Y-88798926D01*
X16526053Y-88777691D01*
X16525000Y-88756250D01*
X16525000Y-88243750D01*
X16526053Y-88222309D01*
X16529203Y-88201074D01*
X16534419Y-88180250D01*
X16541651Y-88160038D01*
X16550830Y-88140632D01*
X16561866Y-88122219D01*
X16574654Y-88104976D01*
X16589070Y-88089070D01*
X16604976Y-88074654D01*
X16622219Y-88061866D01*
X16640632Y-88050830D01*
X16660038Y-88041651D01*
X16680250Y-88034419D01*
X16701074Y-88029203D01*
X16722309Y-88026053D01*
X16743750Y-88025000D01*
X17181250Y-88025000D01*
X17202691Y-88026053D01*
X17202691Y-88026053D01*
G37*
D12*
X16962500Y-88500000D03*
D11*
G36*
X30277691Y-88026053D02*
G01*
X30298926Y-88029203D01*
X30319750Y-88034419D01*
X30339962Y-88041651D01*
X30359368Y-88050830D01*
X30377781Y-88061866D01*
X30395024Y-88074654D01*
X30410930Y-88089070D01*
X30425346Y-88104976D01*
X30438134Y-88122219D01*
X30449170Y-88140632D01*
X30458349Y-88160038D01*
X30465581Y-88180250D01*
X30470797Y-88201074D01*
X30473947Y-88222309D01*
X30475000Y-88243750D01*
X30475000Y-88756250D01*
X30473947Y-88777691D01*
X30470797Y-88798926D01*
X30465581Y-88819750D01*
X30458349Y-88839962D01*
X30449170Y-88859368D01*
X30438134Y-88877781D01*
X30425346Y-88895024D01*
X30410930Y-88910930D01*
X30395024Y-88925346D01*
X30377781Y-88938134D01*
X30359368Y-88949170D01*
X30339962Y-88958349D01*
X30319750Y-88965581D01*
X30298926Y-88970797D01*
X30277691Y-88973947D01*
X30256250Y-88975000D01*
X29818750Y-88975000D01*
X29797309Y-88973947D01*
X29776074Y-88970797D01*
X29755250Y-88965581D01*
X29735038Y-88958349D01*
X29715632Y-88949170D01*
X29697219Y-88938134D01*
X29679976Y-88925346D01*
X29664070Y-88910930D01*
X29649654Y-88895024D01*
X29636866Y-88877781D01*
X29625830Y-88859368D01*
X29616651Y-88839962D01*
X29609419Y-88819750D01*
X29604203Y-88798926D01*
X29601053Y-88777691D01*
X29600000Y-88756250D01*
X29600000Y-88243750D01*
X29601053Y-88222309D01*
X29604203Y-88201074D01*
X29609419Y-88180250D01*
X29616651Y-88160038D01*
X29625830Y-88140632D01*
X29636866Y-88122219D01*
X29649654Y-88104976D01*
X29664070Y-88089070D01*
X29679976Y-88074654D01*
X29697219Y-88061866D01*
X29715632Y-88050830D01*
X29735038Y-88041651D01*
X29755250Y-88034419D01*
X29776074Y-88029203D01*
X29797309Y-88026053D01*
X29818750Y-88025000D01*
X30256250Y-88025000D01*
X30277691Y-88026053D01*
X30277691Y-88026053D01*
G37*
D12*
X30037500Y-88500000D03*
D11*
G36*
X28702691Y-88026053D02*
G01*
X28723926Y-88029203D01*
X28744750Y-88034419D01*
X28764962Y-88041651D01*
X28784368Y-88050830D01*
X28802781Y-88061866D01*
X28820024Y-88074654D01*
X28835930Y-88089070D01*
X28850346Y-88104976D01*
X28863134Y-88122219D01*
X28874170Y-88140632D01*
X28883349Y-88160038D01*
X28890581Y-88180250D01*
X28895797Y-88201074D01*
X28898947Y-88222309D01*
X28900000Y-88243750D01*
X28900000Y-88756250D01*
X28898947Y-88777691D01*
X28895797Y-88798926D01*
X28890581Y-88819750D01*
X28883349Y-88839962D01*
X28874170Y-88859368D01*
X28863134Y-88877781D01*
X28850346Y-88895024D01*
X28835930Y-88910930D01*
X28820024Y-88925346D01*
X28802781Y-88938134D01*
X28784368Y-88949170D01*
X28764962Y-88958349D01*
X28744750Y-88965581D01*
X28723926Y-88970797D01*
X28702691Y-88973947D01*
X28681250Y-88975000D01*
X28243750Y-88975000D01*
X28222309Y-88973947D01*
X28201074Y-88970797D01*
X28180250Y-88965581D01*
X28160038Y-88958349D01*
X28140632Y-88949170D01*
X28122219Y-88938134D01*
X28104976Y-88925346D01*
X28089070Y-88910930D01*
X28074654Y-88895024D01*
X28061866Y-88877781D01*
X28050830Y-88859368D01*
X28041651Y-88839962D01*
X28034419Y-88819750D01*
X28029203Y-88798926D01*
X28026053Y-88777691D01*
X28025000Y-88756250D01*
X28025000Y-88243750D01*
X28026053Y-88222309D01*
X28029203Y-88201074D01*
X28034419Y-88180250D01*
X28041651Y-88160038D01*
X28050830Y-88140632D01*
X28061866Y-88122219D01*
X28074654Y-88104976D01*
X28089070Y-88089070D01*
X28104976Y-88074654D01*
X28122219Y-88061866D01*
X28140632Y-88050830D01*
X28160038Y-88041651D01*
X28180250Y-88034419D01*
X28201074Y-88029203D01*
X28222309Y-88026053D01*
X28243750Y-88025000D01*
X28681250Y-88025000D01*
X28702691Y-88026053D01*
X28702691Y-88026053D01*
G37*
D12*
X28462500Y-88500000D03*
D11*
G36*
X40202691Y-86276053D02*
G01*
X40223926Y-86279203D01*
X40244750Y-86284419D01*
X40264962Y-86291651D01*
X40284368Y-86300830D01*
X40302781Y-86311866D01*
X40320024Y-86324654D01*
X40335930Y-86339070D01*
X40350346Y-86354976D01*
X40363134Y-86372219D01*
X40374170Y-86390632D01*
X40383349Y-86410038D01*
X40390581Y-86430250D01*
X40395797Y-86451074D01*
X40398947Y-86472309D01*
X40400000Y-86493750D01*
X40400000Y-87006250D01*
X40398947Y-87027691D01*
X40395797Y-87048926D01*
X40390581Y-87069750D01*
X40383349Y-87089962D01*
X40374170Y-87109368D01*
X40363134Y-87127781D01*
X40350346Y-87145024D01*
X40335930Y-87160930D01*
X40320024Y-87175346D01*
X40302781Y-87188134D01*
X40284368Y-87199170D01*
X40264962Y-87208349D01*
X40244750Y-87215581D01*
X40223926Y-87220797D01*
X40202691Y-87223947D01*
X40181250Y-87225000D01*
X39743750Y-87225000D01*
X39722309Y-87223947D01*
X39701074Y-87220797D01*
X39680250Y-87215581D01*
X39660038Y-87208349D01*
X39640632Y-87199170D01*
X39622219Y-87188134D01*
X39604976Y-87175346D01*
X39589070Y-87160930D01*
X39574654Y-87145024D01*
X39561866Y-87127781D01*
X39550830Y-87109368D01*
X39541651Y-87089962D01*
X39534419Y-87069750D01*
X39529203Y-87048926D01*
X39526053Y-87027691D01*
X39525000Y-87006250D01*
X39525000Y-86493750D01*
X39526053Y-86472309D01*
X39529203Y-86451074D01*
X39534419Y-86430250D01*
X39541651Y-86410038D01*
X39550830Y-86390632D01*
X39561866Y-86372219D01*
X39574654Y-86354976D01*
X39589070Y-86339070D01*
X39604976Y-86324654D01*
X39622219Y-86311866D01*
X39640632Y-86300830D01*
X39660038Y-86291651D01*
X39680250Y-86284419D01*
X39701074Y-86279203D01*
X39722309Y-86276053D01*
X39743750Y-86275000D01*
X40181250Y-86275000D01*
X40202691Y-86276053D01*
X40202691Y-86276053D01*
G37*
D12*
X39962500Y-86750000D03*
D11*
G36*
X41777691Y-86276053D02*
G01*
X41798926Y-86279203D01*
X41819750Y-86284419D01*
X41839962Y-86291651D01*
X41859368Y-86300830D01*
X41877781Y-86311866D01*
X41895024Y-86324654D01*
X41910930Y-86339070D01*
X41925346Y-86354976D01*
X41938134Y-86372219D01*
X41949170Y-86390632D01*
X41958349Y-86410038D01*
X41965581Y-86430250D01*
X41970797Y-86451074D01*
X41973947Y-86472309D01*
X41975000Y-86493750D01*
X41975000Y-87006250D01*
X41973947Y-87027691D01*
X41970797Y-87048926D01*
X41965581Y-87069750D01*
X41958349Y-87089962D01*
X41949170Y-87109368D01*
X41938134Y-87127781D01*
X41925346Y-87145024D01*
X41910930Y-87160930D01*
X41895024Y-87175346D01*
X41877781Y-87188134D01*
X41859368Y-87199170D01*
X41839962Y-87208349D01*
X41819750Y-87215581D01*
X41798926Y-87220797D01*
X41777691Y-87223947D01*
X41756250Y-87225000D01*
X41318750Y-87225000D01*
X41297309Y-87223947D01*
X41276074Y-87220797D01*
X41255250Y-87215581D01*
X41235038Y-87208349D01*
X41215632Y-87199170D01*
X41197219Y-87188134D01*
X41179976Y-87175346D01*
X41164070Y-87160930D01*
X41149654Y-87145024D01*
X41136866Y-87127781D01*
X41125830Y-87109368D01*
X41116651Y-87089962D01*
X41109419Y-87069750D01*
X41104203Y-87048926D01*
X41101053Y-87027691D01*
X41100000Y-87006250D01*
X41100000Y-86493750D01*
X41101053Y-86472309D01*
X41104203Y-86451074D01*
X41109419Y-86430250D01*
X41116651Y-86410038D01*
X41125830Y-86390632D01*
X41136866Y-86372219D01*
X41149654Y-86354976D01*
X41164070Y-86339070D01*
X41179976Y-86324654D01*
X41197219Y-86311866D01*
X41215632Y-86300830D01*
X41235038Y-86291651D01*
X41255250Y-86284419D01*
X41276074Y-86279203D01*
X41297309Y-86276053D01*
X41318750Y-86275000D01*
X41756250Y-86275000D01*
X41777691Y-86276053D01*
X41777691Y-86276053D01*
G37*
D12*
X41537500Y-86750000D03*
D11*
G36*
X53277691Y-86276053D02*
G01*
X53298926Y-86279203D01*
X53319750Y-86284419D01*
X53339962Y-86291651D01*
X53359368Y-86300830D01*
X53377781Y-86311866D01*
X53395024Y-86324654D01*
X53410930Y-86339070D01*
X53425346Y-86354976D01*
X53438134Y-86372219D01*
X53449170Y-86390632D01*
X53458349Y-86410038D01*
X53465581Y-86430250D01*
X53470797Y-86451074D01*
X53473947Y-86472309D01*
X53475000Y-86493750D01*
X53475000Y-87006250D01*
X53473947Y-87027691D01*
X53470797Y-87048926D01*
X53465581Y-87069750D01*
X53458349Y-87089962D01*
X53449170Y-87109368D01*
X53438134Y-87127781D01*
X53425346Y-87145024D01*
X53410930Y-87160930D01*
X53395024Y-87175346D01*
X53377781Y-87188134D01*
X53359368Y-87199170D01*
X53339962Y-87208349D01*
X53319750Y-87215581D01*
X53298926Y-87220797D01*
X53277691Y-87223947D01*
X53256250Y-87225000D01*
X52818750Y-87225000D01*
X52797309Y-87223947D01*
X52776074Y-87220797D01*
X52755250Y-87215581D01*
X52735038Y-87208349D01*
X52715632Y-87199170D01*
X52697219Y-87188134D01*
X52679976Y-87175346D01*
X52664070Y-87160930D01*
X52649654Y-87145024D01*
X52636866Y-87127781D01*
X52625830Y-87109368D01*
X52616651Y-87089962D01*
X52609419Y-87069750D01*
X52604203Y-87048926D01*
X52601053Y-87027691D01*
X52600000Y-87006250D01*
X52600000Y-86493750D01*
X52601053Y-86472309D01*
X52604203Y-86451074D01*
X52609419Y-86430250D01*
X52616651Y-86410038D01*
X52625830Y-86390632D01*
X52636866Y-86372219D01*
X52649654Y-86354976D01*
X52664070Y-86339070D01*
X52679976Y-86324654D01*
X52697219Y-86311866D01*
X52715632Y-86300830D01*
X52735038Y-86291651D01*
X52755250Y-86284419D01*
X52776074Y-86279203D01*
X52797309Y-86276053D01*
X52818750Y-86275000D01*
X53256250Y-86275000D01*
X53277691Y-86276053D01*
X53277691Y-86276053D01*
G37*
D12*
X53037500Y-86750000D03*
D11*
G36*
X51702691Y-86276053D02*
G01*
X51723926Y-86279203D01*
X51744750Y-86284419D01*
X51764962Y-86291651D01*
X51784368Y-86300830D01*
X51802781Y-86311866D01*
X51820024Y-86324654D01*
X51835930Y-86339070D01*
X51850346Y-86354976D01*
X51863134Y-86372219D01*
X51874170Y-86390632D01*
X51883349Y-86410038D01*
X51890581Y-86430250D01*
X51895797Y-86451074D01*
X51898947Y-86472309D01*
X51900000Y-86493750D01*
X51900000Y-87006250D01*
X51898947Y-87027691D01*
X51895797Y-87048926D01*
X51890581Y-87069750D01*
X51883349Y-87089962D01*
X51874170Y-87109368D01*
X51863134Y-87127781D01*
X51850346Y-87145024D01*
X51835930Y-87160930D01*
X51820024Y-87175346D01*
X51802781Y-87188134D01*
X51784368Y-87199170D01*
X51764962Y-87208349D01*
X51744750Y-87215581D01*
X51723926Y-87220797D01*
X51702691Y-87223947D01*
X51681250Y-87225000D01*
X51243750Y-87225000D01*
X51222309Y-87223947D01*
X51201074Y-87220797D01*
X51180250Y-87215581D01*
X51160038Y-87208349D01*
X51140632Y-87199170D01*
X51122219Y-87188134D01*
X51104976Y-87175346D01*
X51089070Y-87160930D01*
X51074654Y-87145024D01*
X51061866Y-87127781D01*
X51050830Y-87109368D01*
X51041651Y-87089962D01*
X51034419Y-87069750D01*
X51029203Y-87048926D01*
X51026053Y-87027691D01*
X51025000Y-87006250D01*
X51025000Y-86493750D01*
X51026053Y-86472309D01*
X51029203Y-86451074D01*
X51034419Y-86430250D01*
X51041651Y-86410038D01*
X51050830Y-86390632D01*
X51061866Y-86372219D01*
X51074654Y-86354976D01*
X51089070Y-86339070D01*
X51104976Y-86324654D01*
X51122219Y-86311866D01*
X51140632Y-86300830D01*
X51160038Y-86291651D01*
X51180250Y-86284419D01*
X51201074Y-86279203D01*
X51222309Y-86276053D01*
X51243750Y-86275000D01*
X51681250Y-86275000D01*
X51702691Y-86276053D01*
X51702691Y-86276053D01*
G37*
D12*
X51462500Y-86750000D03*
D11*
G36*
X41777691Y-88026053D02*
G01*
X41798926Y-88029203D01*
X41819750Y-88034419D01*
X41839962Y-88041651D01*
X41859368Y-88050830D01*
X41877781Y-88061866D01*
X41895024Y-88074654D01*
X41910930Y-88089070D01*
X41925346Y-88104976D01*
X41938134Y-88122219D01*
X41949170Y-88140632D01*
X41958349Y-88160038D01*
X41965581Y-88180250D01*
X41970797Y-88201074D01*
X41973947Y-88222309D01*
X41975000Y-88243750D01*
X41975000Y-88756250D01*
X41973947Y-88777691D01*
X41970797Y-88798926D01*
X41965581Y-88819750D01*
X41958349Y-88839962D01*
X41949170Y-88859368D01*
X41938134Y-88877781D01*
X41925346Y-88895024D01*
X41910930Y-88910930D01*
X41895024Y-88925346D01*
X41877781Y-88938134D01*
X41859368Y-88949170D01*
X41839962Y-88958349D01*
X41819750Y-88965581D01*
X41798926Y-88970797D01*
X41777691Y-88973947D01*
X41756250Y-88975000D01*
X41318750Y-88975000D01*
X41297309Y-88973947D01*
X41276074Y-88970797D01*
X41255250Y-88965581D01*
X41235038Y-88958349D01*
X41215632Y-88949170D01*
X41197219Y-88938134D01*
X41179976Y-88925346D01*
X41164070Y-88910930D01*
X41149654Y-88895024D01*
X41136866Y-88877781D01*
X41125830Y-88859368D01*
X41116651Y-88839962D01*
X41109419Y-88819750D01*
X41104203Y-88798926D01*
X41101053Y-88777691D01*
X41100000Y-88756250D01*
X41100000Y-88243750D01*
X41101053Y-88222309D01*
X41104203Y-88201074D01*
X41109419Y-88180250D01*
X41116651Y-88160038D01*
X41125830Y-88140632D01*
X41136866Y-88122219D01*
X41149654Y-88104976D01*
X41164070Y-88089070D01*
X41179976Y-88074654D01*
X41197219Y-88061866D01*
X41215632Y-88050830D01*
X41235038Y-88041651D01*
X41255250Y-88034419D01*
X41276074Y-88029203D01*
X41297309Y-88026053D01*
X41318750Y-88025000D01*
X41756250Y-88025000D01*
X41777691Y-88026053D01*
X41777691Y-88026053D01*
G37*
D12*
X41537500Y-88500000D03*
D11*
G36*
X40202691Y-88026053D02*
G01*
X40223926Y-88029203D01*
X40244750Y-88034419D01*
X40264962Y-88041651D01*
X40284368Y-88050830D01*
X40302781Y-88061866D01*
X40320024Y-88074654D01*
X40335930Y-88089070D01*
X40350346Y-88104976D01*
X40363134Y-88122219D01*
X40374170Y-88140632D01*
X40383349Y-88160038D01*
X40390581Y-88180250D01*
X40395797Y-88201074D01*
X40398947Y-88222309D01*
X40400000Y-88243750D01*
X40400000Y-88756250D01*
X40398947Y-88777691D01*
X40395797Y-88798926D01*
X40390581Y-88819750D01*
X40383349Y-88839962D01*
X40374170Y-88859368D01*
X40363134Y-88877781D01*
X40350346Y-88895024D01*
X40335930Y-88910930D01*
X40320024Y-88925346D01*
X40302781Y-88938134D01*
X40284368Y-88949170D01*
X40264962Y-88958349D01*
X40244750Y-88965581D01*
X40223926Y-88970797D01*
X40202691Y-88973947D01*
X40181250Y-88975000D01*
X39743750Y-88975000D01*
X39722309Y-88973947D01*
X39701074Y-88970797D01*
X39680250Y-88965581D01*
X39660038Y-88958349D01*
X39640632Y-88949170D01*
X39622219Y-88938134D01*
X39604976Y-88925346D01*
X39589070Y-88910930D01*
X39574654Y-88895024D01*
X39561866Y-88877781D01*
X39550830Y-88859368D01*
X39541651Y-88839962D01*
X39534419Y-88819750D01*
X39529203Y-88798926D01*
X39526053Y-88777691D01*
X39525000Y-88756250D01*
X39525000Y-88243750D01*
X39526053Y-88222309D01*
X39529203Y-88201074D01*
X39534419Y-88180250D01*
X39541651Y-88160038D01*
X39550830Y-88140632D01*
X39561866Y-88122219D01*
X39574654Y-88104976D01*
X39589070Y-88089070D01*
X39604976Y-88074654D01*
X39622219Y-88061866D01*
X39640632Y-88050830D01*
X39660038Y-88041651D01*
X39680250Y-88034419D01*
X39701074Y-88029203D01*
X39722309Y-88026053D01*
X39743750Y-88025000D01*
X40181250Y-88025000D01*
X40202691Y-88026053D01*
X40202691Y-88026053D01*
G37*
D12*
X39962500Y-88500000D03*
D11*
G36*
X51702691Y-88026053D02*
G01*
X51723926Y-88029203D01*
X51744750Y-88034419D01*
X51764962Y-88041651D01*
X51784368Y-88050830D01*
X51802781Y-88061866D01*
X51820024Y-88074654D01*
X51835930Y-88089070D01*
X51850346Y-88104976D01*
X51863134Y-88122219D01*
X51874170Y-88140632D01*
X51883349Y-88160038D01*
X51890581Y-88180250D01*
X51895797Y-88201074D01*
X51898947Y-88222309D01*
X51900000Y-88243750D01*
X51900000Y-88756250D01*
X51898947Y-88777691D01*
X51895797Y-88798926D01*
X51890581Y-88819750D01*
X51883349Y-88839962D01*
X51874170Y-88859368D01*
X51863134Y-88877781D01*
X51850346Y-88895024D01*
X51835930Y-88910930D01*
X51820024Y-88925346D01*
X51802781Y-88938134D01*
X51784368Y-88949170D01*
X51764962Y-88958349D01*
X51744750Y-88965581D01*
X51723926Y-88970797D01*
X51702691Y-88973947D01*
X51681250Y-88975000D01*
X51243750Y-88975000D01*
X51222309Y-88973947D01*
X51201074Y-88970797D01*
X51180250Y-88965581D01*
X51160038Y-88958349D01*
X51140632Y-88949170D01*
X51122219Y-88938134D01*
X51104976Y-88925346D01*
X51089070Y-88910930D01*
X51074654Y-88895024D01*
X51061866Y-88877781D01*
X51050830Y-88859368D01*
X51041651Y-88839962D01*
X51034419Y-88819750D01*
X51029203Y-88798926D01*
X51026053Y-88777691D01*
X51025000Y-88756250D01*
X51025000Y-88243750D01*
X51026053Y-88222309D01*
X51029203Y-88201074D01*
X51034419Y-88180250D01*
X51041651Y-88160038D01*
X51050830Y-88140632D01*
X51061866Y-88122219D01*
X51074654Y-88104976D01*
X51089070Y-88089070D01*
X51104976Y-88074654D01*
X51122219Y-88061866D01*
X51140632Y-88050830D01*
X51160038Y-88041651D01*
X51180250Y-88034419D01*
X51201074Y-88029203D01*
X51222309Y-88026053D01*
X51243750Y-88025000D01*
X51681250Y-88025000D01*
X51702691Y-88026053D01*
X51702691Y-88026053D01*
G37*
D12*
X51462500Y-88500000D03*
D11*
G36*
X53277691Y-88026053D02*
G01*
X53298926Y-88029203D01*
X53319750Y-88034419D01*
X53339962Y-88041651D01*
X53359368Y-88050830D01*
X53377781Y-88061866D01*
X53395024Y-88074654D01*
X53410930Y-88089070D01*
X53425346Y-88104976D01*
X53438134Y-88122219D01*
X53449170Y-88140632D01*
X53458349Y-88160038D01*
X53465581Y-88180250D01*
X53470797Y-88201074D01*
X53473947Y-88222309D01*
X53475000Y-88243750D01*
X53475000Y-88756250D01*
X53473947Y-88777691D01*
X53470797Y-88798926D01*
X53465581Y-88819750D01*
X53458349Y-88839962D01*
X53449170Y-88859368D01*
X53438134Y-88877781D01*
X53425346Y-88895024D01*
X53410930Y-88910930D01*
X53395024Y-88925346D01*
X53377781Y-88938134D01*
X53359368Y-88949170D01*
X53339962Y-88958349D01*
X53319750Y-88965581D01*
X53298926Y-88970797D01*
X53277691Y-88973947D01*
X53256250Y-88975000D01*
X52818750Y-88975000D01*
X52797309Y-88973947D01*
X52776074Y-88970797D01*
X52755250Y-88965581D01*
X52735038Y-88958349D01*
X52715632Y-88949170D01*
X52697219Y-88938134D01*
X52679976Y-88925346D01*
X52664070Y-88910930D01*
X52649654Y-88895024D01*
X52636866Y-88877781D01*
X52625830Y-88859368D01*
X52616651Y-88839962D01*
X52609419Y-88819750D01*
X52604203Y-88798926D01*
X52601053Y-88777691D01*
X52600000Y-88756250D01*
X52600000Y-88243750D01*
X52601053Y-88222309D01*
X52604203Y-88201074D01*
X52609419Y-88180250D01*
X52616651Y-88160038D01*
X52625830Y-88140632D01*
X52636866Y-88122219D01*
X52649654Y-88104976D01*
X52664070Y-88089070D01*
X52679976Y-88074654D01*
X52697219Y-88061866D01*
X52715632Y-88050830D01*
X52735038Y-88041651D01*
X52755250Y-88034419D01*
X52776074Y-88029203D01*
X52797309Y-88026053D01*
X52818750Y-88025000D01*
X53256250Y-88025000D01*
X53277691Y-88026053D01*
X53277691Y-88026053D01*
G37*
D12*
X53037500Y-88500000D03*
D11*
G36*
X64777691Y-86276053D02*
G01*
X64798926Y-86279203D01*
X64819750Y-86284419D01*
X64839962Y-86291651D01*
X64859368Y-86300830D01*
X64877781Y-86311866D01*
X64895024Y-86324654D01*
X64910930Y-86339070D01*
X64925346Y-86354976D01*
X64938134Y-86372219D01*
X64949170Y-86390632D01*
X64958349Y-86410038D01*
X64965581Y-86430250D01*
X64970797Y-86451074D01*
X64973947Y-86472309D01*
X64975000Y-86493750D01*
X64975000Y-87006250D01*
X64973947Y-87027691D01*
X64970797Y-87048926D01*
X64965581Y-87069750D01*
X64958349Y-87089962D01*
X64949170Y-87109368D01*
X64938134Y-87127781D01*
X64925346Y-87145024D01*
X64910930Y-87160930D01*
X64895024Y-87175346D01*
X64877781Y-87188134D01*
X64859368Y-87199170D01*
X64839962Y-87208349D01*
X64819750Y-87215581D01*
X64798926Y-87220797D01*
X64777691Y-87223947D01*
X64756250Y-87225000D01*
X64318750Y-87225000D01*
X64297309Y-87223947D01*
X64276074Y-87220797D01*
X64255250Y-87215581D01*
X64235038Y-87208349D01*
X64215632Y-87199170D01*
X64197219Y-87188134D01*
X64179976Y-87175346D01*
X64164070Y-87160930D01*
X64149654Y-87145024D01*
X64136866Y-87127781D01*
X64125830Y-87109368D01*
X64116651Y-87089962D01*
X64109419Y-87069750D01*
X64104203Y-87048926D01*
X64101053Y-87027691D01*
X64100000Y-87006250D01*
X64100000Y-86493750D01*
X64101053Y-86472309D01*
X64104203Y-86451074D01*
X64109419Y-86430250D01*
X64116651Y-86410038D01*
X64125830Y-86390632D01*
X64136866Y-86372219D01*
X64149654Y-86354976D01*
X64164070Y-86339070D01*
X64179976Y-86324654D01*
X64197219Y-86311866D01*
X64215632Y-86300830D01*
X64235038Y-86291651D01*
X64255250Y-86284419D01*
X64276074Y-86279203D01*
X64297309Y-86276053D01*
X64318750Y-86275000D01*
X64756250Y-86275000D01*
X64777691Y-86276053D01*
X64777691Y-86276053D01*
G37*
D12*
X64537500Y-86750000D03*
D11*
G36*
X63202691Y-86276053D02*
G01*
X63223926Y-86279203D01*
X63244750Y-86284419D01*
X63264962Y-86291651D01*
X63284368Y-86300830D01*
X63302781Y-86311866D01*
X63320024Y-86324654D01*
X63335930Y-86339070D01*
X63350346Y-86354976D01*
X63363134Y-86372219D01*
X63374170Y-86390632D01*
X63383349Y-86410038D01*
X63390581Y-86430250D01*
X63395797Y-86451074D01*
X63398947Y-86472309D01*
X63400000Y-86493750D01*
X63400000Y-87006250D01*
X63398947Y-87027691D01*
X63395797Y-87048926D01*
X63390581Y-87069750D01*
X63383349Y-87089962D01*
X63374170Y-87109368D01*
X63363134Y-87127781D01*
X63350346Y-87145024D01*
X63335930Y-87160930D01*
X63320024Y-87175346D01*
X63302781Y-87188134D01*
X63284368Y-87199170D01*
X63264962Y-87208349D01*
X63244750Y-87215581D01*
X63223926Y-87220797D01*
X63202691Y-87223947D01*
X63181250Y-87225000D01*
X62743750Y-87225000D01*
X62722309Y-87223947D01*
X62701074Y-87220797D01*
X62680250Y-87215581D01*
X62660038Y-87208349D01*
X62640632Y-87199170D01*
X62622219Y-87188134D01*
X62604976Y-87175346D01*
X62589070Y-87160930D01*
X62574654Y-87145024D01*
X62561866Y-87127781D01*
X62550830Y-87109368D01*
X62541651Y-87089962D01*
X62534419Y-87069750D01*
X62529203Y-87048926D01*
X62526053Y-87027691D01*
X62525000Y-87006250D01*
X62525000Y-86493750D01*
X62526053Y-86472309D01*
X62529203Y-86451074D01*
X62534419Y-86430250D01*
X62541651Y-86410038D01*
X62550830Y-86390632D01*
X62561866Y-86372219D01*
X62574654Y-86354976D01*
X62589070Y-86339070D01*
X62604976Y-86324654D01*
X62622219Y-86311866D01*
X62640632Y-86300830D01*
X62660038Y-86291651D01*
X62680250Y-86284419D01*
X62701074Y-86279203D01*
X62722309Y-86276053D01*
X62743750Y-86275000D01*
X63181250Y-86275000D01*
X63202691Y-86276053D01*
X63202691Y-86276053D01*
G37*
D12*
X62962500Y-86750000D03*
D11*
G36*
X76277691Y-86276053D02*
G01*
X76298926Y-86279203D01*
X76319750Y-86284419D01*
X76339962Y-86291651D01*
X76359368Y-86300830D01*
X76377781Y-86311866D01*
X76395024Y-86324654D01*
X76410930Y-86339070D01*
X76425346Y-86354976D01*
X76438134Y-86372219D01*
X76449170Y-86390632D01*
X76458349Y-86410038D01*
X76465581Y-86430250D01*
X76470797Y-86451074D01*
X76473947Y-86472309D01*
X76475000Y-86493750D01*
X76475000Y-87006250D01*
X76473947Y-87027691D01*
X76470797Y-87048926D01*
X76465581Y-87069750D01*
X76458349Y-87089962D01*
X76449170Y-87109368D01*
X76438134Y-87127781D01*
X76425346Y-87145024D01*
X76410930Y-87160930D01*
X76395024Y-87175346D01*
X76377781Y-87188134D01*
X76359368Y-87199170D01*
X76339962Y-87208349D01*
X76319750Y-87215581D01*
X76298926Y-87220797D01*
X76277691Y-87223947D01*
X76256250Y-87225000D01*
X75818750Y-87225000D01*
X75797309Y-87223947D01*
X75776074Y-87220797D01*
X75755250Y-87215581D01*
X75735038Y-87208349D01*
X75715632Y-87199170D01*
X75697219Y-87188134D01*
X75679976Y-87175346D01*
X75664070Y-87160930D01*
X75649654Y-87145024D01*
X75636866Y-87127781D01*
X75625830Y-87109368D01*
X75616651Y-87089962D01*
X75609419Y-87069750D01*
X75604203Y-87048926D01*
X75601053Y-87027691D01*
X75600000Y-87006250D01*
X75600000Y-86493750D01*
X75601053Y-86472309D01*
X75604203Y-86451074D01*
X75609419Y-86430250D01*
X75616651Y-86410038D01*
X75625830Y-86390632D01*
X75636866Y-86372219D01*
X75649654Y-86354976D01*
X75664070Y-86339070D01*
X75679976Y-86324654D01*
X75697219Y-86311866D01*
X75715632Y-86300830D01*
X75735038Y-86291651D01*
X75755250Y-86284419D01*
X75776074Y-86279203D01*
X75797309Y-86276053D01*
X75818750Y-86275000D01*
X76256250Y-86275000D01*
X76277691Y-86276053D01*
X76277691Y-86276053D01*
G37*
D12*
X76037500Y-86750000D03*
D11*
G36*
X74702691Y-86276053D02*
G01*
X74723926Y-86279203D01*
X74744750Y-86284419D01*
X74764962Y-86291651D01*
X74784368Y-86300830D01*
X74802781Y-86311866D01*
X74820024Y-86324654D01*
X74835930Y-86339070D01*
X74850346Y-86354976D01*
X74863134Y-86372219D01*
X74874170Y-86390632D01*
X74883349Y-86410038D01*
X74890581Y-86430250D01*
X74895797Y-86451074D01*
X74898947Y-86472309D01*
X74900000Y-86493750D01*
X74900000Y-87006250D01*
X74898947Y-87027691D01*
X74895797Y-87048926D01*
X74890581Y-87069750D01*
X74883349Y-87089962D01*
X74874170Y-87109368D01*
X74863134Y-87127781D01*
X74850346Y-87145024D01*
X74835930Y-87160930D01*
X74820024Y-87175346D01*
X74802781Y-87188134D01*
X74784368Y-87199170D01*
X74764962Y-87208349D01*
X74744750Y-87215581D01*
X74723926Y-87220797D01*
X74702691Y-87223947D01*
X74681250Y-87225000D01*
X74243750Y-87225000D01*
X74222309Y-87223947D01*
X74201074Y-87220797D01*
X74180250Y-87215581D01*
X74160038Y-87208349D01*
X74140632Y-87199170D01*
X74122219Y-87188134D01*
X74104976Y-87175346D01*
X74089070Y-87160930D01*
X74074654Y-87145024D01*
X74061866Y-87127781D01*
X74050830Y-87109368D01*
X74041651Y-87089962D01*
X74034419Y-87069750D01*
X74029203Y-87048926D01*
X74026053Y-87027691D01*
X74025000Y-87006250D01*
X74025000Y-86493750D01*
X74026053Y-86472309D01*
X74029203Y-86451074D01*
X74034419Y-86430250D01*
X74041651Y-86410038D01*
X74050830Y-86390632D01*
X74061866Y-86372219D01*
X74074654Y-86354976D01*
X74089070Y-86339070D01*
X74104976Y-86324654D01*
X74122219Y-86311866D01*
X74140632Y-86300830D01*
X74160038Y-86291651D01*
X74180250Y-86284419D01*
X74201074Y-86279203D01*
X74222309Y-86276053D01*
X74243750Y-86275000D01*
X74681250Y-86275000D01*
X74702691Y-86276053D01*
X74702691Y-86276053D01*
G37*
D12*
X74462500Y-86750000D03*
D11*
G36*
X63202691Y-88026053D02*
G01*
X63223926Y-88029203D01*
X63244750Y-88034419D01*
X63264962Y-88041651D01*
X63284368Y-88050830D01*
X63302781Y-88061866D01*
X63320024Y-88074654D01*
X63335930Y-88089070D01*
X63350346Y-88104976D01*
X63363134Y-88122219D01*
X63374170Y-88140632D01*
X63383349Y-88160038D01*
X63390581Y-88180250D01*
X63395797Y-88201074D01*
X63398947Y-88222309D01*
X63400000Y-88243750D01*
X63400000Y-88756250D01*
X63398947Y-88777691D01*
X63395797Y-88798926D01*
X63390581Y-88819750D01*
X63383349Y-88839962D01*
X63374170Y-88859368D01*
X63363134Y-88877781D01*
X63350346Y-88895024D01*
X63335930Y-88910930D01*
X63320024Y-88925346D01*
X63302781Y-88938134D01*
X63284368Y-88949170D01*
X63264962Y-88958349D01*
X63244750Y-88965581D01*
X63223926Y-88970797D01*
X63202691Y-88973947D01*
X63181250Y-88975000D01*
X62743750Y-88975000D01*
X62722309Y-88973947D01*
X62701074Y-88970797D01*
X62680250Y-88965581D01*
X62660038Y-88958349D01*
X62640632Y-88949170D01*
X62622219Y-88938134D01*
X62604976Y-88925346D01*
X62589070Y-88910930D01*
X62574654Y-88895024D01*
X62561866Y-88877781D01*
X62550830Y-88859368D01*
X62541651Y-88839962D01*
X62534419Y-88819750D01*
X62529203Y-88798926D01*
X62526053Y-88777691D01*
X62525000Y-88756250D01*
X62525000Y-88243750D01*
X62526053Y-88222309D01*
X62529203Y-88201074D01*
X62534419Y-88180250D01*
X62541651Y-88160038D01*
X62550830Y-88140632D01*
X62561866Y-88122219D01*
X62574654Y-88104976D01*
X62589070Y-88089070D01*
X62604976Y-88074654D01*
X62622219Y-88061866D01*
X62640632Y-88050830D01*
X62660038Y-88041651D01*
X62680250Y-88034419D01*
X62701074Y-88029203D01*
X62722309Y-88026053D01*
X62743750Y-88025000D01*
X63181250Y-88025000D01*
X63202691Y-88026053D01*
X63202691Y-88026053D01*
G37*
D12*
X62962500Y-88500000D03*
D11*
G36*
X64777691Y-88026053D02*
G01*
X64798926Y-88029203D01*
X64819750Y-88034419D01*
X64839962Y-88041651D01*
X64859368Y-88050830D01*
X64877781Y-88061866D01*
X64895024Y-88074654D01*
X64910930Y-88089070D01*
X64925346Y-88104976D01*
X64938134Y-88122219D01*
X64949170Y-88140632D01*
X64958349Y-88160038D01*
X64965581Y-88180250D01*
X64970797Y-88201074D01*
X64973947Y-88222309D01*
X64975000Y-88243750D01*
X64975000Y-88756250D01*
X64973947Y-88777691D01*
X64970797Y-88798926D01*
X64965581Y-88819750D01*
X64958349Y-88839962D01*
X64949170Y-88859368D01*
X64938134Y-88877781D01*
X64925346Y-88895024D01*
X64910930Y-88910930D01*
X64895024Y-88925346D01*
X64877781Y-88938134D01*
X64859368Y-88949170D01*
X64839962Y-88958349D01*
X64819750Y-88965581D01*
X64798926Y-88970797D01*
X64777691Y-88973947D01*
X64756250Y-88975000D01*
X64318750Y-88975000D01*
X64297309Y-88973947D01*
X64276074Y-88970797D01*
X64255250Y-88965581D01*
X64235038Y-88958349D01*
X64215632Y-88949170D01*
X64197219Y-88938134D01*
X64179976Y-88925346D01*
X64164070Y-88910930D01*
X64149654Y-88895024D01*
X64136866Y-88877781D01*
X64125830Y-88859368D01*
X64116651Y-88839962D01*
X64109419Y-88819750D01*
X64104203Y-88798926D01*
X64101053Y-88777691D01*
X64100000Y-88756250D01*
X64100000Y-88243750D01*
X64101053Y-88222309D01*
X64104203Y-88201074D01*
X64109419Y-88180250D01*
X64116651Y-88160038D01*
X64125830Y-88140632D01*
X64136866Y-88122219D01*
X64149654Y-88104976D01*
X64164070Y-88089070D01*
X64179976Y-88074654D01*
X64197219Y-88061866D01*
X64215632Y-88050830D01*
X64235038Y-88041651D01*
X64255250Y-88034419D01*
X64276074Y-88029203D01*
X64297309Y-88026053D01*
X64318750Y-88025000D01*
X64756250Y-88025000D01*
X64777691Y-88026053D01*
X64777691Y-88026053D01*
G37*
D12*
X64537500Y-88500000D03*
D11*
G36*
X74702691Y-88026053D02*
G01*
X74723926Y-88029203D01*
X74744750Y-88034419D01*
X74764962Y-88041651D01*
X74784368Y-88050830D01*
X74802781Y-88061866D01*
X74820024Y-88074654D01*
X74835930Y-88089070D01*
X74850346Y-88104976D01*
X74863134Y-88122219D01*
X74874170Y-88140632D01*
X74883349Y-88160038D01*
X74890581Y-88180250D01*
X74895797Y-88201074D01*
X74898947Y-88222309D01*
X74900000Y-88243750D01*
X74900000Y-88756250D01*
X74898947Y-88777691D01*
X74895797Y-88798926D01*
X74890581Y-88819750D01*
X74883349Y-88839962D01*
X74874170Y-88859368D01*
X74863134Y-88877781D01*
X74850346Y-88895024D01*
X74835930Y-88910930D01*
X74820024Y-88925346D01*
X74802781Y-88938134D01*
X74784368Y-88949170D01*
X74764962Y-88958349D01*
X74744750Y-88965581D01*
X74723926Y-88970797D01*
X74702691Y-88973947D01*
X74681250Y-88975000D01*
X74243750Y-88975000D01*
X74222309Y-88973947D01*
X74201074Y-88970797D01*
X74180250Y-88965581D01*
X74160038Y-88958349D01*
X74140632Y-88949170D01*
X74122219Y-88938134D01*
X74104976Y-88925346D01*
X74089070Y-88910930D01*
X74074654Y-88895024D01*
X74061866Y-88877781D01*
X74050830Y-88859368D01*
X74041651Y-88839962D01*
X74034419Y-88819750D01*
X74029203Y-88798926D01*
X74026053Y-88777691D01*
X74025000Y-88756250D01*
X74025000Y-88243750D01*
X74026053Y-88222309D01*
X74029203Y-88201074D01*
X74034419Y-88180250D01*
X74041651Y-88160038D01*
X74050830Y-88140632D01*
X74061866Y-88122219D01*
X74074654Y-88104976D01*
X74089070Y-88089070D01*
X74104976Y-88074654D01*
X74122219Y-88061866D01*
X74140632Y-88050830D01*
X74160038Y-88041651D01*
X74180250Y-88034419D01*
X74201074Y-88029203D01*
X74222309Y-88026053D01*
X74243750Y-88025000D01*
X74681250Y-88025000D01*
X74702691Y-88026053D01*
X74702691Y-88026053D01*
G37*
D12*
X74462500Y-88500000D03*
D11*
G36*
X76277691Y-88026053D02*
G01*
X76298926Y-88029203D01*
X76319750Y-88034419D01*
X76339962Y-88041651D01*
X76359368Y-88050830D01*
X76377781Y-88061866D01*
X76395024Y-88074654D01*
X76410930Y-88089070D01*
X76425346Y-88104976D01*
X76438134Y-88122219D01*
X76449170Y-88140632D01*
X76458349Y-88160038D01*
X76465581Y-88180250D01*
X76470797Y-88201074D01*
X76473947Y-88222309D01*
X76475000Y-88243750D01*
X76475000Y-88756250D01*
X76473947Y-88777691D01*
X76470797Y-88798926D01*
X76465581Y-88819750D01*
X76458349Y-88839962D01*
X76449170Y-88859368D01*
X76438134Y-88877781D01*
X76425346Y-88895024D01*
X76410930Y-88910930D01*
X76395024Y-88925346D01*
X76377781Y-88938134D01*
X76359368Y-88949170D01*
X76339962Y-88958349D01*
X76319750Y-88965581D01*
X76298926Y-88970797D01*
X76277691Y-88973947D01*
X76256250Y-88975000D01*
X75818750Y-88975000D01*
X75797309Y-88973947D01*
X75776074Y-88970797D01*
X75755250Y-88965581D01*
X75735038Y-88958349D01*
X75715632Y-88949170D01*
X75697219Y-88938134D01*
X75679976Y-88925346D01*
X75664070Y-88910930D01*
X75649654Y-88895024D01*
X75636866Y-88877781D01*
X75625830Y-88859368D01*
X75616651Y-88839962D01*
X75609419Y-88819750D01*
X75604203Y-88798926D01*
X75601053Y-88777691D01*
X75600000Y-88756250D01*
X75600000Y-88243750D01*
X75601053Y-88222309D01*
X75604203Y-88201074D01*
X75609419Y-88180250D01*
X75616651Y-88160038D01*
X75625830Y-88140632D01*
X75636866Y-88122219D01*
X75649654Y-88104976D01*
X75664070Y-88089070D01*
X75679976Y-88074654D01*
X75697219Y-88061866D01*
X75715632Y-88050830D01*
X75735038Y-88041651D01*
X75755250Y-88034419D01*
X75776074Y-88029203D01*
X75797309Y-88026053D01*
X75818750Y-88025000D01*
X76256250Y-88025000D01*
X76277691Y-88026053D01*
X76277691Y-88026053D01*
G37*
D12*
X76037500Y-88500000D03*
D11*
G36*
X87777691Y-86276053D02*
G01*
X87798926Y-86279203D01*
X87819750Y-86284419D01*
X87839962Y-86291651D01*
X87859368Y-86300830D01*
X87877781Y-86311866D01*
X87895024Y-86324654D01*
X87910930Y-86339070D01*
X87925346Y-86354976D01*
X87938134Y-86372219D01*
X87949170Y-86390632D01*
X87958349Y-86410038D01*
X87965581Y-86430250D01*
X87970797Y-86451074D01*
X87973947Y-86472309D01*
X87975000Y-86493750D01*
X87975000Y-87006250D01*
X87973947Y-87027691D01*
X87970797Y-87048926D01*
X87965581Y-87069750D01*
X87958349Y-87089962D01*
X87949170Y-87109368D01*
X87938134Y-87127781D01*
X87925346Y-87145024D01*
X87910930Y-87160930D01*
X87895024Y-87175346D01*
X87877781Y-87188134D01*
X87859368Y-87199170D01*
X87839962Y-87208349D01*
X87819750Y-87215581D01*
X87798926Y-87220797D01*
X87777691Y-87223947D01*
X87756250Y-87225000D01*
X87318750Y-87225000D01*
X87297309Y-87223947D01*
X87276074Y-87220797D01*
X87255250Y-87215581D01*
X87235038Y-87208349D01*
X87215632Y-87199170D01*
X87197219Y-87188134D01*
X87179976Y-87175346D01*
X87164070Y-87160930D01*
X87149654Y-87145024D01*
X87136866Y-87127781D01*
X87125830Y-87109368D01*
X87116651Y-87089962D01*
X87109419Y-87069750D01*
X87104203Y-87048926D01*
X87101053Y-87027691D01*
X87100000Y-87006250D01*
X87100000Y-86493750D01*
X87101053Y-86472309D01*
X87104203Y-86451074D01*
X87109419Y-86430250D01*
X87116651Y-86410038D01*
X87125830Y-86390632D01*
X87136866Y-86372219D01*
X87149654Y-86354976D01*
X87164070Y-86339070D01*
X87179976Y-86324654D01*
X87197219Y-86311866D01*
X87215632Y-86300830D01*
X87235038Y-86291651D01*
X87255250Y-86284419D01*
X87276074Y-86279203D01*
X87297309Y-86276053D01*
X87318750Y-86275000D01*
X87756250Y-86275000D01*
X87777691Y-86276053D01*
X87777691Y-86276053D01*
G37*
D12*
X87537500Y-86750000D03*
D11*
G36*
X86202691Y-86276053D02*
G01*
X86223926Y-86279203D01*
X86244750Y-86284419D01*
X86264962Y-86291651D01*
X86284368Y-86300830D01*
X86302781Y-86311866D01*
X86320024Y-86324654D01*
X86335930Y-86339070D01*
X86350346Y-86354976D01*
X86363134Y-86372219D01*
X86374170Y-86390632D01*
X86383349Y-86410038D01*
X86390581Y-86430250D01*
X86395797Y-86451074D01*
X86398947Y-86472309D01*
X86400000Y-86493750D01*
X86400000Y-87006250D01*
X86398947Y-87027691D01*
X86395797Y-87048926D01*
X86390581Y-87069750D01*
X86383349Y-87089962D01*
X86374170Y-87109368D01*
X86363134Y-87127781D01*
X86350346Y-87145024D01*
X86335930Y-87160930D01*
X86320024Y-87175346D01*
X86302781Y-87188134D01*
X86284368Y-87199170D01*
X86264962Y-87208349D01*
X86244750Y-87215581D01*
X86223926Y-87220797D01*
X86202691Y-87223947D01*
X86181250Y-87225000D01*
X85743750Y-87225000D01*
X85722309Y-87223947D01*
X85701074Y-87220797D01*
X85680250Y-87215581D01*
X85660038Y-87208349D01*
X85640632Y-87199170D01*
X85622219Y-87188134D01*
X85604976Y-87175346D01*
X85589070Y-87160930D01*
X85574654Y-87145024D01*
X85561866Y-87127781D01*
X85550830Y-87109368D01*
X85541651Y-87089962D01*
X85534419Y-87069750D01*
X85529203Y-87048926D01*
X85526053Y-87027691D01*
X85525000Y-87006250D01*
X85525000Y-86493750D01*
X85526053Y-86472309D01*
X85529203Y-86451074D01*
X85534419Y-86430250D01*
X85541651Y-86410038D01*
X85550830Y-86390632D01*
X85561866Y-86372219D01*
X85574654Y-86354976D01*
X85589070Y-86339070D01*
X85604976Y-86324654D01*
X85622219Y-86311866D01*
X85640632Y-86300830D01*
X85660038Y-86291651D01*
X85680250Y-86284419D01*
X85701074Y-86279203D01*
X85722309Y-86276053D01*
X85743750Y-86275000D01*
X86181250Y-86275000D01*
X86202691Y-86276053D01*
X86202691Y-86276053D01*
G37*
D12*
X85962500Y-86750000D03*
D11*
G36*
X99277691Y-86276053D02*
G01*
X99298926Y-86279203D01*
X99319750Y-86284419D01*
X99339962Y-86291651D01*
X99359368Y-86300830D01*
X99377781Y-86311866D01*
X99395024Y-86324654D01*
X99410930Y-86339070D01*
X99425346Y-86354976D01*
X99438134Y-86372219D01*
X99449170Y-86390632D01*
X99458349Y-86410038D01*
X99465581Y-86430250D01*
X99470797Y-86451074D01*
X99473947Y-86472309D01*
X99475000Y-86493750D01*
X99475000Y-87006250D01*
X99473947Y-87027691D01*
X99470797Y-87048926D01*
X99465581Y-87069750D01*
X99458349Y-87089962D01*
X99449170Y-87109368D01*
X99438134Y-87127781D01*
X99425346Y-87145024D01*
X99410930Y-87160930D01*
X99395024Y-87175346D01*
X99377781Y-87188134D01*
X99359368Y-87199170D01*
X99339962Y-87208349D01*
X99319750Y-87215581D01*
X99298926Y-87220797D01*
X99277691Y-87223947D01*
X99256250Y-87225000D01*
X98818750Y-87225000D01*
X98797309Y-87223947D01*
X98776074Y-87220797D01*
X98755250Y-87215581D01*
X98735038Y-87208349D01*
X98715632Y-87199170D01*
X98697219Y-87188134D01*
X98679976Y-87175346D01*
X98664070Y-87160930D01*
X98649654Y-87145024D01*
X98636866Y-87127781D01*
X98625830Y-87109368D01*
X98616651Y-87089962D01*
X98609419Y-87069750D01*
X98604203Y-87048926D01*
X98601053Y-87027691D01*
X98600000Y-87006250D01*
X98600000Y-86493750D01*
X98601053Y-86472309D01*
X98604203Y-86451074D01*
X98609419Y-86430250D01*
X98616651Y-86410038D01*
X98625830Y-86390632D01*
X98636866Y-86372219D01*
X98649654Y-86354976D01*
X98664070Y-86339070D01*
X98679976Y-86324654D01*
X98697219Y-86311866D01*
X98715632Y-86300830D01*
X98735038Y-86291651D01*
X98755250Y-86284419D01*
X98776074Y-86279203D01*
X98797309Y-86276053D01*
X98818750Y-86275000D01*
X99256250Y-86275000D01*
X99277691Y-86276053D01*
X99277691Y-86276053D01*
G37*
D12*
X99037500Y-86750000D03*
D11*
G36*
X97702691Y-86276053D02*
G01*
X97723926Y-86279203D01*
X97744750Y-86284419D01*
X97764962Y-86291651D01*
X97784368Y-86300830D01*
X97802781Y-86311866D01*
X97820024Y-86324654D01*
X97835930Y-86339070D01*
X97850346Y-86354976D01*
X97863134Y-86372219D01*
X97874170Y-86390632D01*
X97883349Y-86410038D01*
X97890581Y-86430250D01*
X97895797Y-86451074D01*
X97898947Y-86472309D01*
X97900000Y-86493750D01*
X97900000Y-87006250D01*
X97898947Y-87027691D01*
X97895797Y-87048926D01*
X97890581Y-87069750D01*
X97883349Y-87089962D01*
X97874170Y-87109368D01*
X97863134Y-87127781D01*
X97850346Y-87145024D01*
X97835930Y-87160930D01*
X97820024Y-87175346D01*
X97802781Y-87188134D01*
X97784368Y-87199170D01*
X97764962Y-87208349D01*
X97744750Y-87215581D01*
X97723926Y-87220797D01*
X97702691Y-87223947D01*
X97681250Y-87225000D01*
X97243750Y-87225000D01*
X97222309Y-87223947D01*
X97201074Y-87220797D01*
X97180250Y-87215581D01*
X97160038Y-87208349D01*
X97140632Y-87199170D01*
X97122219Y-87188134D01*
X97104976Y-87175346D01*
X97089070Y-87160930D01*
X97074654Y-87145024D01*
X97061866Y-87127781D01*
X97050830Y-87109368D01*
X97041651Y-87089962D01*
X97034419Y-87069750D01*
X97029203Y-87048926D01*
X97026053Y-87027691D01*
X97025000Y-87006250D01*
X97025000Y-86493750D01*
X97026053Y-86472309D01*
X97029203Y-86451074D01*
X97034419Y-86430250D01*
X97041651Y-86410038D01*
X97050830Y-86390632D01*
X97061866Y-86372219D01*
X97074654Y-86354976D01*
X97089070Y-86339070D01*
X97104976Y-86324654D01*
X97122219Y-86311866D01*
X97140632Y-86300830D01*
X97160038Y-86291651D01*
X97180250Y-86284419D01*
X97201074Y-86279203D01*
X97222309Y-86276053D01*
X97243750Y-86275000D01*
X97681250Y-86275000D01*
X97702691Y-86276053D01*
X97702691Y-86276053D01*
G37*
D12*
X97462500Y-86750000D03*
D11*
G36*
X86202691Y-88026053D02*
G01*
X86223926Y-88029203D01*
X86244750Y-88034419D01*
X86264962Y-88041651D01*
X86284368Y-88050830D01*
X86302781Y-88061866D01*
X86320024Y-88074654D01*
X86335930Y-88089070D01*
X86350346Y-88104976D01*
X86363134Y-88122219D01*
X86374170Y-88140632D01*
X86383349Y-88160038D01*
X86390581Y-88180250D01*
X86395797Y-88201074D01*
X86398947Y-88222309D01*
X86400000Y-88243750D01*
X86400000Y-88756250D01*
X86398947Y-88777691D01*
X86395797Y-88798926D01*
X86390581Y-88819750D01*
X86383349Y-88839962D01*
X86374170Y-88859368D01*
X86363134Y-88877781D01*
X86350346Y-88895024D01*
X86335930Y-88910930D01*
X86320024Y-88925346D01*
X86302781Y-88938134D01*
X86284368Y-88949170D01*
X86264962Y-88958349D01*
X86244750Y-88965581D01*
X86223926Y-88970797D01*
X86202691Y-88973947D01*
X86181250Y-88975000D01*
X85743750Y-88975000D01*
X85722309Y-88973947D01*
X85701074Y-88970797D01*
X85680250Y-88965581D01*
X85660038Y-88958349D01*
X85640632Y-88949170D01*
X85622219Y-88938134D01*
X85604976Y-88925346D01*
X85589070Y-88910930D01*
X85574654Y-88895024D01*
X85561866Y-88877781D01*
X85550830Y-88859368D01*
X85541651Y-88839962D01*
X85534419Y-88819750D01*
X85529203Y-88798926D01*
X85526053Y-88777691D01*
X85525000Y-88756250D01*
X85525000Y-88243750D01*
X85526053Y-88222309D01*
X85529203Y-88201074D01*
X85534419Y-88180250D01*
X85541651Y-88160038D01*
X85550830Y-88140632D01*
X85561866Y-88122219D01*
X85574654Y-88104976D01*
X85589070Y-88089070D01*
X85604976Y-88074654D01*
X85622219Y-88061866D01*
X85640632Y-88050830D01*
X85660038Y-88041651D01*
X85680250Y-88034419D01*
X85701074Y-88029203D01*
X85722309Y-88026053D01*
X85743750Y-88025000D01*
X86181250Y-88025000D01*
X86202691Y-88026053D01*
X86202691Y-88026053D01*
G37*
D12*
X85962500Y-88500000D03*
D11*
G36*
X87777691Y-88026053D02*
G01*
X87798926Y-88029203D01*
X87819750Y-88034419D01*
X87839962Y-88041651D01*
X87859368Y-88050830D01*
X87877781Y-88061866D01*
X87895024Y-88074654D01*
X87910930Y-88089070D01*
X87925346Y-88104976D01*
X87938134Y-88122219D01*
X87949170Y-88140632D01*
X87958349Y-88160038D01*
X87965581Y-88180250D01*
X87970797Y-88201074D01*
X87973947Y-88222309D01*
X87975000Y-88243750D01*
X87975000Y-88756250D01*
X87973947Y-88777691D01*
X87970797Y-88798926D01*
X87965581Y-88819750D01*
X87958349Y-88839962D01*
X87949170Y-88859368D01*
X87938134Y-88877781D01*
X87925346Y-88895024D01*
X87910930Y-88910930D01*
X87895024Y-88925346D01*
X87877781Y-88938134D01*
X87859368Y-88949170D01*
X87839962Y-88958349D01*
X87819750Y-88965581D01*
X87798926Y-88970797D01*
X87777691Y-88973947D01*
X87756250Y-88975000D01*
X87318750Y-88975000D01*
X87297309Y-88973947D01*
X87276074Y-88970797D01*
X87255250Y-88965581D01*
X87235038Y-88958349D01*
X87215632Y-88949170D01*
X87197219Y-88938134D01*
X87179976Y-88925346D01*
X87164070Y-88910930D01*
X87149654Y-88895024D01*
X87136866Y-88877781D01*
X87125830Y-88859368D01*
X87116651Y-88839962D01*
X87109419Y-88819750D01*
X87104203Y-88798926D01*
X87101053Y-88777691D01*
X87100000Y-88756250D01*
X87100000Y-88243750D01*
X87101053Y-88222309D01*
X87104203Y-88201074D01*
X87109419Y-88180250D01*
X87116651Y-88160038D01*
X87125830Y-88140632D01*
X87136866Y-88122219D01*
X87149654Y-88104976D01*
X87164070Y-88089070D01*
X87179976Y-88074654D01*
X87197219Y-88061866D01*
X87215632Y-88050830D01*
X87235038Y-88041651D01*
X87255250Y-88034419D01*
X87276074Y-88029203D01*
X87297309Y-88026053D01*
X87318750Y-88025000D01*
X87756250Y-88025000D01*
X87777691Y-88026053D01*
X87777691Y-88026053D01*
G37*
D12*
X87537500Y-88500000D03*
D11*
G36*
X97702691Y-88026053D02*
G01*
X97723926Y-88029203D01*
X97744750Y-88034419D01*
X97764962Y-88041651D01*
X97784368Y-88050830D01*
X97802781Y-88061866D01*
X97820024Y-88074654D01*
X97835930Y-88089070D01*
X97850346Y-88104976D01*
X97863134Y-88122219D01*
X97874170Y-88140632D01*
X97883349Y-88160038D01*
X97890581Y-88180250D01*
X97895797Y-88201074D01*
X97898947Y-88222309D01*
X97900000Y-88243750D01*
X97900000Y-88756250D01*
X97898947Y-88777691D01*
X97895797Y-88798926D01*
X97890581Y-88819750D01*
X97883349Y-88839962D01*
X97874170Y-88859368D01*
X97863134Y-88877781D01*
X97850346Y-88895024D01*
X97835930Y-88910930D01*
X97820024Y-88925346D01*
X97802781Y-88938134D01*
X97784368Y-88949170D01*
X97764962Y-88958349D01*
X97744750Y-88965581D01*
X97723926Y-88970797D01*
X97702691Y-88973947D01*
X97681250Y-88975000D01*
X97243750Y-88975000D01*
X97222309Y-88973947D01*
X97201074Y-88970797D01*
X97180250Y-88965581D01*
X97160038Y-88958349D01*
X97140632Y-88949170D01*
X97122219Y-88938134D01*
X97104976Y-88925346D01*
X97089070Y-88910930D01*
X97074654Y-88895024D01*
X97061866Y-88877781D01*
X97050830Y-88859368D01*
X97041651Y-88839962D01*
X97034419Y-88819750D01*
X97029203Y-88798926D01*
X97026053Y-88777691D01*
X97025000Y-88756250D01*
X97025000Y-88243750D01*
X97026053Y-88222309D01*
X97029203Y-88201074D01*
X97034419Y-88180250D01*
X97041651Y-88160038D01*
X97050830Y-88140632D01*
X97061866Y-88122219D01*
X97074654Y-88104976D01*
X97089070Y-88089070D01*
X97104976Y-88074654D01*
X97122219Y-88061866D01*
X97140632Y-88050830D01*
X97160038Y-88041651D01*
X97180250Y-88034419D01*
X97201074Y-88029203D01*
X97222309Y-88026053D01*
X97243750Y-88025000D01*
X97681250Y-88025000D01*
X97702691Y-88026053D01*
X97702691Y-88026053D01*
G37*
D12*
X97462500Y-88500000D03*
D11*
G36*
X99277691Y-88026053D02*
G01*
X99298926Y-88029203D01*
X99319750Y-88034419D01*
X99339962Y-88041651D01*
X99359368Y-88050830D01*
X99377781Y-88061866D01*
X99395024Y-88074654D01*
X99410930Y-88089070D01*
X99425346Y-88104976D01*
X99438134Y-88122219D01*
X99449170Y-88140632D01*
X99458349Y-88160038D01*
X99465581Y-88180250D01*
X99470797Y-88201074D01*
X99473947Y-88222309D01*
X99475000Y-88243750D01*
X99475000Y-88756250D01*
X99473947Y-88777691D01*
X99470797Y-88798926D01*
X99465581Y-88819750D01*
X99458349Y-88839962D01*
X99449170Y-88859368D01*
X99438134Y-88877781D01*
X99425346Y-88895024D01*
X99410930Y-88910930D01*
X99395024Y-88925346D01*
X99377781Y-88938134D01*
X99359368Y-88949170D01*
X99339962Y-88958349D01*
X99319750Y-88965581D01*
X99298926Y-88970797D01*
X99277691Y-88973947D01*
X99256250Y-88975000D01*
X98818750Y-88975000D01*
X98797309Y-88973947D01*
X98776074Y-88970797D01*
X98755250Y-88965581D01*
X98735038Y-88958349D01*
X98715632Y-88949170D01*
X98697219Y-88938134D01*
X98679976Y-88925346D01*
X98664070Y-88910930D01*
X98649654Y-88895024D01*
X98636866Y-88877781D01*
X98625830Y-88859368D01*
X98616651Y-88839962D01*
X98609419Y-88819750D01*
X98604203Y-88798926D01*
X98601053Y-88777691D01*
X98600000Y-88756250D01*
X98600000Y-88243750D01*
X98601053Y-88222309D01*
X98604203Y-88201074D01*
X98609419Y-88180250D01*
X98616651Y-88160038D01*
X98625830Y-88140632D01*
X98636866Y-88122219D01*
X98649654Y-88104976D01*
X98664070Y-88089070D01*
X98679976Y-88074654D01*
X98697219Y-88061866D01*
X98715632Y-88050830D01*
X98735038Y-88041651D01*
X98755250Y-88034419D01*
X98776074Y-88029203D01*
X98797309Y-88026053D01*
X98818750Y-88025000D01*
X99256250Y-88025000D01*
X99277691Y-88026053D01*
X99277691Y-88026053D01*
G37*
D12*
X99037500Y-88500000D03*
D11*
G36*
X18527691Y-24526053D02*
G01*
X18548926Y-24529203D01*
X18569750Y-24534419D01*
X18589962Y-24541651D01*
X18609368Y-24550830D01*
X18627781Y-24561866D01*
X18645024Y-24574654D01*
X18660930Y-24589070D01*
X18675346Y-24604976D01*
X18688134Y-24622219D01*
X18699170Y-24640632D01*
X18708349Y-24660038D01*
X18715581Y-24680250D01*
X18720797Y-24701074D01*
X18723947Y-24722309D01*
X18725000Y-24743750D01*
X18725000Y-25181250D01*
X18723947Y-25202691D01*
X18720797Y-25223926D01*
X18715581Y-25244750D01*
X18708349Y-25264962D01*
X18699170Y-25284368D01*
X18688134Y-25302781D01*
X18675346Y-25320024D01*
X18660930Y-25335930D01*
X18645024Y-25350346D01*
X18627781Y-25363134D01*
X18609368Y-25374170D01*
X18589962Y-25383349D01*
X18569750Y-25390581D01*
X18548926Y-25395797D01*
X18527691Y-25398947D01*
X18506250Y-25400000D01*
X17993750Y-25400000D01*
X17972309Y-25398947D01*
X17951074Y-25395797D01*
X17930250Y-25390581D01*
X17910038Y-25383349D01*
X17890632Y-25374170D01*
X17872219Y-25363134D01*
X17854976Y-25350346D01*
X17839070Y-25335930D01*
X17824654Y-25320024D01*
X17811866Y-25302781D01*
X17800830Y-25284368D01*
X17791651Y-25264962D01*
X17784419Y-25244750D01*
X17779203Y-25223926D01*
X17776053Y-25202691D01*
X17775000Y-25181250D01*
X17775000Y-24743750D01*
X17776053Y-24722309D01*
X17779203Y-24701074D01*
X17784419Y-24680250D01*
X17791651Y-24660038D01*
X17800830Y-24640632D01*
X17811866Y-24622219D01*
X17824654Y-24604976D01*
X17839070Y-24589070D01*
X17854976Y-24574654D01*
X17872219Y-24561866D01*
X17890632Y-24550830D01*
X17910038Y-24541651D01*
X17930250Y-24534419D01*
X17951074Y-24529203D01*
X17972309Y-24526053D01*
X17993750Y-24525000D01*
X18506250Y-24525000D01*
X18527691Y-24526053D01*
X18527691Y-24526053D01*
G37*
D12*
X18250000Y-24962500D03*
D11*
G36*
X18527691Y-26101053D02*
G01*
X18548926Y-26104203D01*
X18569750Y-26109419D01*
X18589962Y-26116651D01*
X18609368Y-26125830D01*
X18627781Y-26136866D01*
X18645024Y-26149654D01*
X18660930Y-26164070D01*
X18675346Y-26179976D01*
X18688134Y-26197219D01*
X18699170Y-26215632D01*
X18708349Y-26235038D01*
X18715581Y-26255250D01*
X18720797Y-26276074D01*
X18723947Y-26297309D01*
X18725000Y-26318750D01*
X18725000Y-26756250D01*
X18723947Y-26777691D01*
X18720797Y-26798926D01*
X18715581Y-26819750D01*
X18708349Y-26839962D01*
X18699170Y-26859368D01*
X18688134Y-26877781D01*
X18675346Y-26895024D01*
X18660930Y-26910930D01*
X18645024Y-26925346D01*
X18627781Y-26938134D01*
X18609368Y-26949170D01*
X18589962Y-26958349D01*
X18569750Y-26965581D01*
X18548926Y-26970797D01*
X18527691Y-26973947D01*
X18506250Y-26975000D01*
X17993750Y-26975000D01*
X17972309Y-26973947D01*
X17951074Y-26970797D01*
X17930250Y-26965581D01*
X17910038Y-26958349D01*
X17890632Y-26949170D01*
X17872219Y-26938134D01*
X17854976Y-26925346D01*
X17839070Y-26910930D01*
X17824654Y-26895024D01*
X17811866Y-26877781D01*
X17800830Y-26859368D01*
X17791651Y-26839962D01*
X17784419Y-26819750D01*
X17779203Y-26798926D01*
X17776053Y-26777691D01*
X17775000Y-26756250D01*
X17775000Y-26318750D01*
X17776053Y-26297309D01*
X17779203Y-26276074D01*
X17784419Y-26255250D01*
X17791651Y-26235038D01*
X17800830Y-26215632D01*
X17811866Y-26197219D01*
X17824654Y-26179976D01*
X17839070Y-26164070D01*
X17854976Y-26149654D01*
X17872219Y-26136866D01*
X17890632Y-26125830D01*
X17910038Y-26116651D01*
X17930250Y-26109419D01*
X17951074Y-26104203D01*
X17972309Y-26101053D01*
X17993750Y-26100000D01*
X18506250Y-26100000D01*
X18527691Y-26101053D01*
X18527691Y-26101053D01*
G37*
D12*
X18250000Y-26537500D03*
D11*
G36*
X18527691Y-34601053D02*
G01*
X18548926Y-34604203D01*
X18569750Y-34609419D01*
X18589962Y-34616651D01*
X18609368Y-34625830D01*
X18627781Y-34636866D01*
X18645024Y-34649654D01*
X18660930Y-34664070D01*
X18675346Y-34679976D01*
X18688134Y-34697219D01*
X18699170Y-34715632D01*
X18708349Y-34735038D01*
X18715581Y-34755250D01*
X18720797Y-34776074D01*
X18723947Y-34797309D01*
X18725000Y-34818750D01*
X18725000Y-35256250D01*
X18723947Y-35277691D01*
X18720797Y-35298926D01*
X18715581Y-35319750D01*
X18708349Y-35339962D01*
X18699170Y-35359368D01*
X18688134Y-35377781D01*
X18675346Y-35395024D01*
X18660930Y-35410930D01*
X18645024Y-35425346D01*
X18627781Y-35438134D01*
X18609368Y-35449170D01*
X18589962Y-35458349D01*
X18569750Y-35465581D01*
X18548926Y-35470797D01*
X18527691Y-35473947D01*
X18506250Y-35475000D01*
X17993750Y-35475000D01*
X17972309Y-35473947D01*
X17951074Y-35470797D01*
X17930250Y-35465581D01*
X17910038Y-35458349D01*
X17890632Y-35449170D01*
X17872219Y-35438134D01*
X17854976Y-35425346D01*
X17839070Y-35410930D01*
X17824654Y-35395024D01*
X17811866Y-35377781D01*
X17800830Y-35359368D01*
X17791651Y-35339962D01*
X17784419Y-35319750D01*
X17779203Y-35298926D01*
X17776053Y-35277691D01*
X17775000Y-35256250D01*
X17775000Y-34818750D01*
X17776053Y-34797309D01*
X17779203Y-34776074D01*
X17784419Y-34755250D01*
X17791651Y-34735038D01*
X17800830Y-34715632D01*
X17811866Y-34697219D01*
X17824654Y-34679976D01*
X17839070Y-34664070D01*
X17854976Y-34649654D01*
X17872219Y-34636866D01*
X17890632Y-34625830D01*
X17910038Y-34616651D01*
X17930250Y-34609419D01*
X17951074Y-34604203D01*
X17972309Y-34601053D01*
X17993750Y-34600000D01*
X18506250Y-34600000D01*
X18527691Y-34601053D01*
X18527691Y-34601053D01*
G37*
D12*
X18250000Y-35037500D03*
D11*
G36*
X18527691Y-33026053D02*
G01*
X18548926Y-33029203D01*
X18569750Y-33034419D01*
X18589962Y-33041651D01*
X18609368Y-33050830D01*
X18627781Y-33061866D01*
X18645024Y-33074654D01*
X18660930Y-33089070D01*
X18675346Y-33104976D01*
X18688134Y-33122219D01*
X18699170Y-33140632D01*
X18708349Y-33160038D01*
X18715581Y-33180250D01*
X18720797Y-33201074D01*
X18723947Y-33222309D01*
X18725000Y-33243750D01*
X18725000Y-33681250D01*
X18723947Y-33702691D01*
X18720797Y-33723926D01*
X18715581Y-33744750D01*
X18708349Y-33764962D01*
X18699170Y-33784368D01*
X18688134Y-33802781D01*
X18675346Y-33820024D01*
X18660930Y-33835930D01*
X18645024Y-33850346D01*
X18627781Y-33863134D01*
X18609368Y-33874170D01*
X18589962Y-33883349D01*
X18569750Y-33890581D01*
X18548926Y-33895797D01*
X18527691Y-33898947D01*
X18506250Y-33900000D01*
X17993750Y-33900000D01*
X17972309Y-33898947D01*
X17951074Y-33895797D01*
X17930250Y-33890581D01*
X17910038Y-33883349D01*
X17890632Y-33874170D01*
X17872219Y-33863134D01*
X17854976Y-33850346D01*
X17839070Y-33835930D01*
X17824654Y-33820024D01*
X17811866Y-33802781D01*
X17800830Y-33784368D01*
X17791651Y-33764962D01*
X17784419Y-33744750D01*
X17779203Y-33723926D01*
X17776053Y-33702691D01*
X17775000Y-33681250D01*
X17775000Y-33243750D01*
X17776053Y-33222309D01*
X17779203Y-33201074D01*
X17784419Y-33180250D01*
X17791651Y-33160038D01*
X17800830Y-33140632D01*
X17811866Y-33122219D01*
X17824654Y-33104976D01*
X17839070Y-33089070D01*
X17854976Y-33074654D01*
X17872219Y-33061866D01*
X17890632Y-33050830D01*
X17910038Y-33041651D01*
X17930250Y-33034419D01*
X17951074Y-33029203D01*
X17972309Y-33026053D01*
X17993750Y-33025000D01*
X18506250Y-33025000D01*
X18527691Y-33026053D01*
X18527691Y-33026053D01*
G37*
D12*
X18250000Y-33462500D03*
D11*
G36*
X18527691Y-43101053D02*
G01*
X18548926Y-43104203D01*
X18569750Y-43109419D01*
X18589962Y-43116651D01*
X18609368Y-43125830D01*
X18627781Y-43136866D01*
X18645024Y-43149654D01*
X18660930Y-43164070D01*
X18675346Y-43179976D01*
X18688134Y-43197219D01*
X18699170Y-43215632D01*
X18708349Y-43235038D01*
X18715581Y-43255250D01*
X18720797Y-43276074D01*
X18723947Y-43297309D01*
X18725000Y-43318750D01*
X18725000Y-43756250D01*
X18723947Y-43777691D01*
X18720797Y-43798926D01*
X18715581Y-43819750D01*
X18708349Y-43839962D01*
X18699170Y-43859368D01*
X18688134Y-43877781D01*
X18675346Y-43895024D01*
X18660930Y-43910930D01*
X18645024Y-43925346D01*
X18627781Y-43938134D01*
X18609368Y-43949170D01*
X18589962Y-43958349D01*
X18569750Y-43965581D01*
X18548926Y-43970797D01*
X18527691Y-43973947D01*
X18506250Y-43975000D01*
X17993750Y-43975000D01*
X17972309Y-43973947D01*
X17951074Y-43970797D01*
X17930250Y-43965581D01*
X17910038Y-43958349D01*
X17890632Y-43949170D01*
X17872219Y-43938134D01*
X17854976Y-43925346D01*
X17839070Y-43910930D01*
X17824654Y-43895024D01*
X17811866Y-43877781D01*
X17800830Y-43859368D01*
X17791651Y-43839962D01*
X17784419Y-43819750D01*
X17779203Y-43798926D01*
X17776053Y-43777691D01*
X17775000Y-43756250D01*
X17775000Y-43318750D01*
X17776053Y-43297309D01*
X17779203Y-43276074D01*
X17784419Y-43255250D01*
X17791651Y-43235038D01*
X17800830Y-43215632D01*
X17811866Y-43197219D01*
X17824654Y-43179976D01*
X17839070Y-43164070D01*
X17854976Y-43149654D01*
X17872219Y-43136866D01*
X17890632Y-43125830D01*
X17910038Y-43116651D01*
X17930250Y-43109419D01*
X17951074Y-43104203D01*
X17972309Y-43101053D01*
X17993750Y-43100000D01*
X18506250Y-43100000D01*
X18527691Y-43101053D01*
X18527691Y-43101053D01*
G37*
D12*
X18250000Y-43537500D03*
D11*
G36*
X18527691Y-41526053D02*
G01*
X18548926Y-41529203D01*
X18569750Y-41534419D01*
X18589962Y-41541651D01*
X18609368Y-41550830D01*
X18627781Y-41561866D01*
X18645024Y-41574654D01*
X18660930Y-41589070D01*
X18675346Y-41604976D01*
X18688134Y-41622219D01*
X18699170Y-41640632D01*
X18708349Y-41660038D01*
X18715581Y-41680250D01*
X18720797Y-41701074D01*
X18723947Y-41722309D01*
X18725000Y-41743750D01*
X18725000Y-42181250D01*
X18723947Y-42202691D01*
X18720797Y-42223926D01*
X18715581Y-42244750D01*
X18708349Y-42264962D01*
X18699170Y-42284368D01*
X18688134Y-42302781D01*
X18675346Y-42320024D01*
X18660930Y-42335930D01*
X18645024Y-42350346D01*
X18627781Y-42363134D01*
X18609368Y-42374170D01*
X18589962Y-42383349D01*
X18569750Y-42390581D01*
X18548926Y-42395797D01*
X18527691Y-42398947D01*
X18506250Y-42400000D01*
X17993750Y-42400000D01*
X17972309Y-42398947D01*
X17951074Y-42395797D01*
X17930250Y-42390581D01*
X17910038Y-42383349D01*
X17890632Y-42374170D01*
X17872219Y-42363134D01*
X17854976Y-42350346D01*
X17839070Y-42335930D01*
X17824654Y-42320024D01*
X17811866Y-42302781D01*
X17800830Y-42284368D01*
X17791651Y-42264962D01*
X17784419Y-42244750D01*
X17779203Y-42223926D01*
X17776053Y-42202691D01*
X17775000Y-42181250D01*
X17775000Y-41743750D01*
X17776053Y-41722309D01*
X17779203Y-41701074D01*
X17784419Y-41680250D01*
X17791651Y-41660038D01*
X17800830Y-41640632D01*
X17811866Y-41622219D01*
X17824654Y-41604976D01*
X17839070Y-41589070D01*
X17854976Y-41574654D01*
X17872219Y-41561866D01*
X17890632Y-41550830D01*
X17910038Y-41541651D01*
X17930250Y-41534419D01*
X17951074Y-41529203D01*
X17972309Y-41526053D01*
X17993750Y-41525000D01*
X18506250Y-41525000D01*
X18527691Y-41526053D01*
X18527691Y-41526053D01*
G37*
D12*
X18250000Y-41962500D03*
D11*
G36*
X18527691Y-50026053D02*
G01*
X18548926Y-50029203D01*
X18569750Y-50034419D01*
X18589962Y-50041651D01*
X18609368Y-50050830D01*
X18627781Y-50061866D01*
X18645024Y-50074654D01*
X18660930Y-50089070D01*
X18675346Y-50104976D01*
X18688134Y-50122219D01*
X18699170Y-50140632D01*
X18708349Y-50160038D01*
X18715581Y-50180250D01*
X18720797Y-50201074D01*
X18723947Y-50222309D01*
X18725000Y-50243750D01*
X18725000Y-50681250D01*
X18723947Y-50702691D01*
X18720797Y-50723926D01*
X18715581Y-50744750D01*
X18708349Y-50764962D01*
X18699170Y-50784368D01*
X18688134Y-50802781D01*
X18675346Y-50820024D01*
X18660930Y-50835930D01*
X18645024Y-50850346D01*
X18627781Y-50863134D01*
X18609368Y-50874170D01*
X18589962Y-50883349D01*
X18569750Y-50890581D01*
X18548926Y-50895797D01*
X18527691Y-50898947D01*
X18506250Y-50900000D01*
X17993750Y-50900000D01*
X17972309Y-50898947D01*
X17951074Y-50895797D01*
X17930250Y-50890581D01*
X17910038Y-50883349D01*
X17890632Y-50874170D01*
X17872219Y-50863134D01*
X17854976Y-50850346D01*
X17839070Y-50835930D01*
X17824654Y-50820024D01*
X17811866Y-50802781D01*
X17800830Y-50784368D01*
X17791651Y-50764962D01*
X17784419Y-50744750D01*
X17779203Y-50723926D01*
X17776053Y-50702691D01*
X17775000Y-50681250D01*
X17775000Y-50243750D01*
X17776053Y-50222309D01*
X17779203Y-50201074D01*
X17784419Y-50180250D01*
X17791651Y-50160038D01*
X17800830Y-50140632D01*
X17811866Y-50122219D01*
X17824654Y-50104976D01*
X17839070Y-50089070D01*
X17854976Y-50074654D01*
X17872219Y-50061866D01*
X17890632Y-50050830D01*
X17910038Y-50041651D01*
X17930250Y-50034419D01*
X17951074Y-50029203D01*
X17972309Y-50026053D01*
X17993750Y-50025000D01*
X18506250Y-50025000D01*
X18527691Y-50026053D01*
X18527691Y-50026053D01*
G37*
D12*
X18250000Y-50462500D03*
D11*
G36*
X18527691Y-51601053D02*
G01*
X18548926Y-51604203D01*
X18569750Y-51609419D01*
X18589962Y-51616651D01*
X18609368Y-51625830D01*
X18627781Y-51636866D01*
X18645024Y-51649654D01*
X18660930Y-51664070D01*
X18675346Y-51679976D01*
X18688134Y-51697219D01*
X18699170Y-51715632D01*
X18708349Y-51735038D01*
X18715581Y-51755250D01*
X18720797Y-51776074D01*
X18723947Y-51797309D01*
X18725000Y-51818750D01*
X18725000Y-52256250D01*
X18723947Y-52277691D01*
X18720797Y-52298926D01*
X18715581Y-52319750D01*
X18708349Y-52339962D01*
X18699170Y-52359368D01*
X18688134Y-52377781D01*
X18675346Y-52395024D01*
X18660930Y-52410930D01*
X18645024Y-52425346D01*
X18627781Y-52438134D01*
X18609368Y-52449170D01*
X18589962Y-52458349D01*
X18569750Y-52465581D01*
X18548926Y-52470797D01*
X18527691Y-52473947D01*
X18506250Y-52475000D01*
X17993750Y-52475000D01*
X17972309Y-52473947D01*
X17951074Y-52470797D01*
X17930250Y-52465581D01*
X17910038Y-52458349D01*
X17890632Y-52449170D01*
X17872219Y-52438134D01*
X17854976Y-52425346D01*
X17839070Y-52410930D01*
X17824654Y-52395024D01*
X17811866Y-52377781D01*
X17800830Y-52359368D01*
X17791651Y-52339962D01*
X17784419Y-52319750D01*
X17779203Y-52298926D01*
X17776053Y-52277691D01*
X17775000Y-52256250D01*
X17775000Y-51818750D01*
X17776053Y-51797309D01*
X17779203Y-51776074D01*
X17784419Y-51755250D01*
X17791651Y-51735038D01*
X17800830Y-51715632D01*
X17811866Y-51697219D01*
X17824654Y-51679976D01*
X17839070Y-51664070D01*
X17854976Y-51649654D01*
X17872219Y-51636866D01*
X17890632Y-51625830D01*
X17910038Y-51616651D01*
X17930250Y-51609419D01*
X17951074Y-51604203D01*
X17972309Y-51601053D01*
X17993750Y-51600000D01*
X18506250Y-51600000D01*
X18527691Y-51601053D01*
X18527691Y-51601053D01*
G37*
D12*
X18250000Y-52037500D03*
D11*
G36*
X72027691Y-53776053D02*
G01*
X72048926Y-53779203D01*
X72069750Y-53784419D01*
X72089962Y-53791651D01*
X72109368Y-53800830D01*
X72127781Y-53811866D01*
X72145024Y-53824654D01*
X72160930Y-53839070D01*
X72175346Y-53854976D01*
X72188134Y-53872219D01*
X72199170Y-53890632D01*
X72208349Y-53910038D01*
X72215581Y-53930250D01*
X72220797Y-53951074D01*
X72223947Y-53972309D01*
X72225000Y-53993750D01*
X72225000Y-54506250D01*
X72223947Y-54527691D01*
X72220797Y-54548926D01*
X72215581Y-54569750D01*
X72208349Y-54589962D01*
X72199170Y-54609368D01*
X72188134Y-54627781D01*
X72175346Y-54645024D01*
X72160930Y-54660930D01*
X72145024Y-54675346D01*
X72127781Y-54688134D01*
X72109368Y-54699170D01*
X72089962Y-54708349D01*
X72069750Y-54715581D01*
X72048926Y-54720797D01*
X72027691Y-54723947D01*
X72006250Y-54725000D01*
X71568750Y-54725000D01*
X71547309Y-54723947D01*
X71526074Y-54720797D01*
X71505250Y-54715581D01*
X71485038Y-54708349D01*
X71465632Y-54699170D01*
X71447219Y-54688134D01*
X71429976Y-54675346D01*
X71414070Y-54660930D01*
X71399654Y-54645024D01*
X71386866Y-54627781D01*
X71375830Y-54609368D01*
X71366651Y-54589962D01*
X71359419Y-54569750D01*
X71354203Y-54548926D01*
X71351053Y-54527691D01*
X71350000Y-54506250D01*
X71350000Y-53993750D01*
X71351053Y-53972309D01*
X71354203Y-53951074D01*
X71359419Y-53930250D01*
X71366651Y-53910038D01*
X71375830Y-53890632D01*
X71386866Y-53872219D01*
X71399654Y-53854976D01*
X71414070Y-53839070D01*
X71429976Y-53824654D01*
X71447219Y-53811866D01*
X71465632Y-53800830D01*
X71485038Y-53791651D01*
X71505250Y-53784419D01*
X71526074Y-53779203D01*
X71547309Y-53776053D01*
X71568750Y-53775000D01*
X72006250Y-53775000D01*
X72027691Y-53776053D01*
X72027691Y-53776053D01*
G37*
D12*
X71787500Y-54250000D03*
D11*
G36*
X70452691Y-53776053D02*
G01*
X70473926Y-53779203D01*
X70494750Y-53784419D01*
X70514962Y-53791651D01*
X70534368Y-53800830D01*
X70552781Y-53811866D01*
X70570024Y-53824654D01*
X70585930Y-53839070D01*
X70600346Y-53854976D01*
X70613134Y-53872219D01*
X70624170Y-53890632D01*
X70633349Y-53910038D01*
X70640581Y-53930250D01*
X70645797Y-53951074D01*
X70648947Y-53972309D01*
X70650000Y-53993750D01*
X70650000Y-54506250D01*
X70648947Y-54527691D01*
X70645797Y-54548926D01*
X70640581Y-54569750D01*
X70633349Y-54589962D01*
X70624170Y-54609368D01*
X70613134Y-54627781D01*
X70600346Y-54645024D01*
X70585930Y-54660930D01*
X70570024Y-54675346D01*
X70552781Y-54688134D01*
X70534368Y-54699170D01*
X70514962Y-54708349D01*
X70494750Y-54715581D01*
X70473926Y-54720797D01*
X70452691Y-54723947D01*
X70431250Y-54725000D01*
X69993750Y-54725000D01*
X69972309Y-54723947D01*
X69951074Y-54720797D01*
X69930250Y-54715581D01*
X69910038Y-54708349D01*
X69890632Y-54699170D01*
X69872219Y-54688134D01*
X69854976Y-54675346D01*
X69839070Y-54660930D01*
X69824654Y-54645024D01*
X69811866Y-54627781D01*
X69800830Y-54609368D01*
X69791651Y-54589962D01*
X69784419Y-54569750D01*
X69779203Y-54548926D01*
X69776053Y-54527691D01*
X69775000Y-54506250D01*
X69775000Y-53993750D01*
X69776053Y-53972309D01*
X69779203Y-53951074D01*
X69784419Y-53930250D01*
X69791651Y-53910038D01*
X69800830Y-53890632D01*
X69811866Y-53872219D01*
X69824654Y-53854976D01*
X69839070Y-53839070D01*
X69854976Y-53824654D01*
X69872219Y-53811866D01*
X69890632Y-53800830D01*
X69910038Y-53791651D01*
X69930250Y-53784419D01*
X69951074Y-53779203D01*
X69972309Y-53776053D01*
X69993750Y-53775000D01*
X70431250Y-53775000D01*
X70452691Y-53776053D01*
X70452691Y-53776053D01*
G37*
D12*
X70212500Y-54250000D03*
D11*
G36*
X46777691Y-55526053D02*
G01*
X46798926Y-55529203D01*
X46819750Y-55534419D01*
X46839962Y-55541651D01*
X46859368Y-55550830D01*
X46877781Y-55561866D01*
X46895024Y-55574654D01*
X46910930Y-55589070D01*
X46925346Y-55604976D01*
X46938134Y-55622219D01*
X46949170Y-55640632D01*
X46958349Y-55660038D01*
X46965581Y-55680250D01*
X46970797Y-55701074D01*
X46973947Y-55722309D01*
X46975000Y-55743750D01*
X46975000Y-56181250D01*
X46973947Y-56202691D01*
X46970797Y-56223926D01*
X46965581Y-56244750D01*
X46958349Y-56264962D01*
X46949170Y-56284368D01*
X46938134Y-56302781D01*
X46925346Y-56320024D01*
X46910930Y-56335930D01*
X46895024Y-56350346D01*
X46877781Y-56363134D01*
X46859368Y-56374170D01*
X46839962Y-56383349D01*
X46819750Y-56390581D01*
X46798926Y-56395797D01*
X46777691Y-56398947D01*
X46756250Y-56400000D01*
X46243750Y-56400000D01*
X46222309Y-56398947D01*
X46201074Y-56395797D01*
X46180250Y-56390581D01*
X46160038Y-56383349D01*
X46140632Y-56374170D01*
X46122219Y-56363134D01*
X46104976Y-56350346D01*
X46089070Y-56335930D01*
X46074654Y-56320024D01*
X46061866Y-56302781D01*
X46050830Y-56284368D01*
X46041651Y-56264962D01*
X46034419Y-56244750D01*
X46029203Y-56223926D01*
X46026053Y-56202691D01*
X46025000Y-56181250D01*
X46025000Y-55743750D01*
X46026053Y-55722309D01*
X46029203Y-55701074D01*
X46034419Y-55680250D01*
X46041651Y-55660038D01*
X46050830Y-55640632D01*
X46061866Y-55622219D01*
X46074654Y-55604976D01*
X46089070Y-55589070D01*
X46104976Y-55574654D01*
X46122219Y-55561866D01*
X46140632Y-55550830D01*
X46160038Y-55541651D01*
X46180250Y-55534419D01*
X46201074Y-55529203D01*
X46222309Y-55526053D01*
X46243750Y-55525000D01*
X46756250Y-55525000D01*
X46777691Y-55526053D01*
X46777691Y-55526053D01*
G37*
D12*
X46500000Y-55962500D03*
D11*
G36*
X46777691Y-57101053D02*
G01*
X46798926Y-57104203D01*
X46819750Y-57109419D01*
X46839962Y-57116651D01*
X46859368Y-57125830D01*
X46877781Y-57136866D01*
X46895024Y-57149654D01*
X46910930Y-57164070D01*
X46925346Y-57179976D01*
X46938134Y-57197219D01*
X46949170Y-57215632D01*
X46958349Y-57235038D01*
X46965581Y-57255250D01*
X46970797Y-57276074D01*
X46973947Y-57297309D01*
X46975000Y-57318750D01*
X46975000Y-57756250D01*
X46973947Y-57777691D01*
X46970797Y-57798926D01*
X46965581Y-57819750D01*
X46958349Y-57839962D01*
X46949170Y-57859368D01*
X46938134Y-57877781D01*
X46925346Y-57895024D01*
X46910930Y-57910930D01*
X46895024Y-57925346D01*
X46877781Y-57938134D01*
X46859368Y-57949170D01*
X46839962Y-57958349D01*
X46819750Y-57965581D01*
X46798926Y-57970797D01*
X46777691Y-57973947D01*
X46756250Y-57975000D01*
X46243750Y-57975000D01*
X46222309Y-57973947D01*
X46201074Y-57970797D01*
X46180250Y-57965581D01*
X46160038Y-57958349D01*
X46140632Y-57949170D01*
X46122219Y-57938134D01*
X46104976Y-57925346D01*
X46089070Y-57910930D01*
X46074654Y-57895024D01*
X46061866Y-57877781D01*
X46050830Y-57859368D01*
X46041651Y-57839962D01*
X46034419Y-57819750D01*
X46029203Y-57798926D01*
X46026053Y-57777691D01*
X46025000Y-57756250D01*
X46025000Y-57318750D01*
X46026053Y-57297309D01*
X46029203Y-57276074D01*
X46034419Y-57255250D01*
X46041651Y-57235038D01*
X46050830Y-57215632D01*
X46061866Y-57197219D01*
X46074654Y-57179976D01*
X46089070Y-57164070D01*
X46104976Y-57149654D01*
X46122219Y-57136866D01*
X46140632Y-57125830D01*
X46160038Y-57116651D01*
X46180250Y-57109419D01*
X46201074Y-57104203D01*
X46222309Y-57101053D01*
X46243750Y-57100000D01*
X46756250Y-57100000D01*
X46777691Y-57101053D01*
X46777691Y-57101053D01*
G37*
D12*
X46500000Y-57537500D03*
D11*
G36*
X40277691Y-57101053D02*
G01*
X40298926Y-57104203D01*
X40319750Y-57109419D01*
X40339962Y-57116651D01*
X40359368Y-57125830D01*
X40377781Y-57136866D01*
X40395024Y-57149654D01*
X40410930Y-57164070D01*
X40425346Y-57179976D01*
X40438134Y-57197219D01*
X40449170Y-57215632D01*
X40458349Y-57235038D01*
X40465581Y-57255250D01*
X40470797Y-57276074D01*
X40473947Y-57297309D01*
X40475000Y-57318750D01*
X40475000Y-57756250D01*
X40473947Y-57777691D01*
X40470797Y-57798926D01*
X40465581Y-57819750D01*
X40458349Y-57839962D01*
X40449170Y-57859368D01*
X40438134Y-57877781D01*
X40425346Y-57895024D01*
X40410930Y-57910930D01*
X40395024Y-57925346D01*
X40377781Y-57938134D01*
X40359368Y-57949170D01*
X40339962Y-57958349D01*
X40319750Y-57965581D01*
X40298926Y-57970797D01*
X40277691Y-57973947D01*
X40256250Y-57975000D01*
X39743750Y-57975000D01*
X39722309Y-57973947D01*
X39701074Y-57970797D01*
X39680250Y-57965581D01*
X39660038Y-57958349D01*
X39640632Y-57949170D01*
X39622219Y-57938134D01*
X39604976Y-57925346D01*
X39589070Y-57910930D01*
X39574654Y-57895024D01*
X39561866Y-57877781D01*
X39550830Y-57859368D01*
X39541651Y-57839962D01*
X39534419Y-57819750D01*
X39529203Y-57798926D01*
X39526053Y-57777691D01*
X39525000Y-57756250D01*
X39525000Y-57318750D01*
X39526053Y-57297309D01*
X39529203Y-57276074D01*
X39534419Y-57255250D01*
X39541651Y-57235038D01*
X39550830Y-57215632D01*
X39561866Y-57197219D01*
X39574654Y-57179976D01*
X39589070Y-57164070D01*
X39604976Y-57149654D01*
X39622219Y-57136866D01*
X39640632Y-57125830D01*
X39660038Y-57116651D01*
X39680250Y-57109419D01*
X39701074Y-57104203D01*
X39722309Y-57101053D01*
X39743750Y-57100000D01*
X40256250Y-57100000D01*
X40277691Y-57101053D01*
X40277691Y-57101053D01*
G37*
D12*
X40000000Y-57537500D03*
D11*
G36*
X40277691Y-55526053D02*
G01*
X40298926Y-55529203D01*
X40319750Y-55534419D01*
X40339962Y-55541651D01*
X40359368Y-55550830D01*
X40377781Y-55561866D01*
X40395024Y-55574654D01*
X40410930Y-55589070D01*
X40425346Y-55604976D01*
X40438134Y-55622219D01*
X40449170Y-55640632D01*
X40458349Y-55660038D01*
X40465581Y-55680250D01*
X40470797Y-55701074D01*
X40473947Y-55722309D01*
X40475000Y-55743750D01*
X40475000Y-56181250D01*
X40473947Y-56202691D01*
X40470797Y-56223926D01*
X40465581Y-56244750D01*
X40458349Y-56264962D01*
X40449170Y-56284368D01*
X40438134Y-56302781D01*
X40425346Y-56320024D01*
X40410930Y-56335930D01*
X40395024Y-56350346D01*
X40377781Y-56363134D01*
X40359368Y-56374170D01*
X40339962Y-56383349D01*
X40319750Y-56390581D01*
X40298926Y-56395797D01*
X40277691Y-56398947D01*
X40256250Y-56400000D01*
X39743750Y-56400000D01*
X39722309Y-56398947D01*
X39701074Y-56395797D01*
X39680250Y-56390581D01*
X39660038Y-56383349D01*
X39640632Y-56374170D01*
X39622219Y-56363134D01*
X39604976Y-56350346D01*
X39589070Y-56335930D01*
X39574654Y-56320024D01*
X39561866Y-56302781D01*
X39550830Y-56284368D01*
X39541651Y-56264962D01*
X39534419Y-56244750D01*
X39529203Y-56223926D01*
X39526053Y-56202691D01*
X39525000Y-56181250D01*
X39525000Y-55743750D01*
X39526053Y-55722309D01*
X39529203Y-55701074D01*
X39534419Y-55680250D01*
X39541651Y-55660038D01*
X39550830Y-55640632D01*
X39561866Y-55622219D01*
X39574654Y-55604976D01*
X39589070Y-55589070D01*
X39604976Y-55574654D01*
X39622219Y-55561866D01*
X39640632Y-55550830D01*
X39660038Y-55541651D01*
X39680250Y-55534419D01*
X39701074Y-55529203D01*
X39722309Y-55526053D01*
X39743750Y-55525000D01*
X40256250Y-55525000D01*
X40277691Y-55526053D01*
X40277691Y-55526053D01*
G37*
D12*
X40000000Y-55962500D03*
D11*
G36*
X33777691Y-55526053D02*
G01*
X33798926Y-55529203D01*
X33819750Y-55534419D01*
X33839962Y-55541651D01*
X33859368Y-55550830D01*
X33877781Y-55561866D01*
X33895024Y-55574654D01*
X33910930Y-55589070D01*
X33925346Y-55604976D01*
X33938134Y-55622219D01*
X33949170Y-55640632D01*
X33958349Y-55660038D01*
X33965581Y-55680250D01*
X33970797Y-55701074D01*
X33973947Y-55722309D01*
X33975000Y-55743750D01*
X33975000Y-56181250D01*
X33973947Y-56202691D01*
X33970797Y-56223926D01*
X33965581Y-56244750D01*
X33958349Y-56264962D01*
X33949170Y-56284368D01*
X33938134Y-56302781D01*
X33925346Y-56320024D01*
X33910930Y-56335930D01*
X33895024Y-56350346D01*
X33877781Y-56363134D01*
X33859368Y-56374170D01*
X33839962Y-56383349D01*
X33819750Y-56390581D01*
X33798926Y-56395797D01*
X33777691Y-56398947D01*
X33756250Y-56400000D01*
X33243750Y-56400000D01*
X33222309Y-56398947D01*
X33201074Y-56395797D01*
X33180250Y-56390581D01*
X33160038Y-56383349D01*
X33140632Y-56374170D01*
X33122219Y-56363134D01*
X33104976Y-56350346D01*
X33089070Y-56335930D01*
X33074654Y-56320024D01*
X33061866Y-56302781D01*
X33050830Y-56284368D01*
X33041651Y-56264962D01*
X33034419Y-56244750D01*
X33029203Y-56223926D01*
X33026053Y-56202691D01*
X33025000Y-56181250D01*
X33025000Y-55743750D01*
X33026053Y-55722309D01*
X33029203Y-55701074D01*
X33034419Y-55680250D01*
X33041651Y-55660038D01*
X33050830Y-55640632D01*
X33061866Y-55622219D01*
X33074654Y-55604976D01*
X33089070Y-55589070D01*
X33104976Y-55574654D01*
X33122219Y-55561866D01*
X33140632Y-55550830D01*
X33160038Y-55541651D01*
X33180250Y-55534419D01*
X33201074Y-55529203D01*
X33222309Y-55526053D01*
X33243750Y-55525000D01*
X33756250Y-55525000D01*
X33777691Y-55526053D01*
X33777691Y-55526053D01*
G37*
D12*
X33500000Y-55962500D03*
D11*
G36*
X33777691Y-57101053D02*
G01*
X33798926Y-57104203D01*
X33819750Y-57109419D01*
X33839962Y-57116651D01*
X33859368Y-57125830D01*
X33877781Y-57136866D01*
X33895024Y-57149654D01*
X33910930Y-57164070D01*
X33925346Y-57179976D01*
X33938134Y-57197219D01*
X33949170Y-57215632D01*
X33958349Y-57235038D01*
X33965581Y-57255250D01*
X33970797Y-57276074D01*
X33973947Y-57297309D01*
X33975000Y-57318750D01*
X33975000Y-57756250D01*
X33973947Y-57777691D01*
X33970797Y-57798926D01*
X33965581Y-57819750D01*
X33958349Y-57839962D01*
X33949170Y-57859368D01*
X33938134Y-57877781D01*
X33925346Y-57895024D01*
X33910930Y-57910930D01*
X33895024Y-57925346D01*
X33877781Y-57938134D01*
X33859368Y-57949170D01*
X33839962Y-57958349D01*
X33819750Y-57965581D01*
X33798926Y-57970797D01*
X33777691Y-57973947D01*
X33756250Y-57975000D01*
X33243750Y-57975000D01*
X33222309Y-57973947D01*
X33201074Y-57970797D01*
X33180250Y-57965581D01*
X33160038Y-57958349D01*
X33140632Y-57949170D01*
X33122219Y-57938134D01*
X33104976Y-57925346D01*
X33089070Y-57910930D01*
X33074654Y-57895024D01*
X33061866Y-57877781D01*
X33050830Y-57859368D01*
X33041651Y-57839962D01*
X33034419Y-57819750D01*
X33029203Y-57798926D01*
X33026053Y-57777691D01*
X33025000Y-57756250D01*
X33025000Y-57318750D01*
X33026053Y-57297309D01*
X33029203Y-57276074D01*
X33034419Y-57255250D01*
X33041651Y-57235038D01*
X33050830Y-57215632D01*
X33061866Y-57197219D01*
X33074654Y-57179976D01*
X33089070Y-57164070D01*
X33104976Y-57149654D01*
X33122219Y-57136866D01*
X33140632Y-57125830D01*
X33160038Y-57116651D01*
X33180250Y-57109419D01*
X33201074Y-57104203D01*
X33222309Y-57101053D01*
X33243750Y-57100000D01*
X33756250Y-57100000D01*
X33777691Y-57101053D01*
X33777691Y-57101053D01*
G37*
D12*
X33500000Y-57537500D03*
D11*
G36*
X27027691Y-57101053D02*
G01*
X27048926Y-57104203D01*
X27069750Y-57109419D01*
X27089962Y-57116651D01*
X27109368Y-57125830D01*
X27127781Y-57136866D01*
X27145024Y-57149654D01*
X27160930Y-57164070D01*
X27175346Y-57179976D01*
X27188134Y-57197219D01*
X27199170Y-57215632D01*
X27208349Y-57235038D01*
X27215581Y-57255250D01*
X27220797Y-57276074D01*
X27223947Y-57297309D01*
X27225000Y-57318750D01*
X27225000Y-57756250D01*
X27223947Y-57777691D01*
X27220797Y-57798926D01*
X27215581Y-57819750D01*
X27208349Y-57839962D01*
X27199170Y-57859368D01*
X27188134Y-57877781D01*
X27175346Y-57895024D01*
X27160930Y-57910930D01*
X27145024Y-57925346D01*
X27127781Y-57938134D01*
X27109368Y-57949170D01*
X27089962Y-57958349D01*
X27069750Y-57965581D01*
X27048926Y-57970797D01*
X27027691Y-57973947D01*
X27006250Y-57975000D01*
X26493750Y-57975000D01*
X26472309Y-57973947D01*
X26451074Y-57970797D01*
X26430250Y-57965581D01*
X26410038Y-57958349D01*
X26390632Y-57949170D01*
X26372219Y-57938134D01*
X26354976Y-57925346D01*
X26339070Y-57910930D01*
X26324654Y-57895024D01*
X26311866Y-57877781D01*
X26300830Y-57859368D01*
X26291651Y-57839962D01*
X26284419Y-57819750D01*
X26279203Y-57798926D01*
X26276053Y-57777691D01*
X26275000Y-57756250D01*
X26275000Y-57318750D01*
X26276053Y-57297309D01*
X26279203Y-57276074D01*
X26284419Y-57255250D01*
X26291651Y-57235038D01*
X26300830Y-57215632D01*
X26311866Y-57197219D01*
X26324654Y-57179976D01*
X26339070Y-57164070D01*
X26354976Y-57149654D01*
X26372219Y-57136866D01*
X26390632Y-57125830D01*
X26410038Y-57116651D01*
X26430250Y-57109419D01*
X26451074Y-57104203D01*
X26472309Y-57101053D01*
X26493750Y-57100000D01*
X27006250Y-57100000D01*
X27027691Y-57101053D01*
X27027691Y-57101053D01*
G37*
D12*
X26750000Y-57537500D03*
D11*
G36*
X27027691Y-55526053D02*
G01*
X27048926Y-55529203D01*
X27069750Y-55534419D01*
X27089962Y-55541651D01*
X27109368Y-55550830D01*
X27127781Y-55561866D01*
X27145024Y-55574654D01*
X27160930Y-55589070D01*
X27175346Y-55604976D01*
X27188134Y-55622219D01*
X27199170Y-55640632D01*
X27208349Y-55660038D01*
X27215581Y-55680250D01*
X27220797Y-55701074D01*
X27223947Y-55722309D01*
X27225000Y-55743750D01*
X27225000Y-56181250D01*
X27223947Y-56202691D01*
X27220797Y-56223926D01*
X27215581Y-56244750D01*
X27208349Y-56264962D01*
X27199170Y-56284368D01*
X27188134Y-56302781D01*
X27175346Y-56320024D01*
X27160930Y-56335930D01*
X27145024Y-56350346D01*
X27127781Y-56363134D01*
X27109368Y-56374170D01*
X27089962Y-56383349D01*
X27069750Y-56390581D01*
X27048926Y-56395797D01*
X27027691Y-56398947D01*
X27006250Y-56400000D01*
X26493750Y-56400000D01*
X26472309Y-56398947D01*
X26451074Y-56395797D01*
X26430250Y-56390581D01*
X26410038Y-56383349D01*
X26390632Y-56374170D01*
X26372219Y-56363134D01*
X26354976Y-56350346D01*
X26339070Y-56335930D01*
X26324654Y-56320024D01*
X26311866Y-56302781D01*
X26300830Y-56284368D01*
X26291651Y-56264962D01*
X26284419Y-56244750D01*
X26279203Y-56223926D01*
X26276053Y-56202691D01*
X26275000Y-56181250D01*
X26275000Y-55743750D01*
X26276053Y-55722309D01*
X26279203Y-55701074D01*
X26284419Y-55680250D01*
X26291651Y-55660038D01*
X26300830Y-55640632D01*
X26311866Y-55622219D01*
X26324654Y-55604976D01*
X26339070Y-55589070D01*
X26354976Y-55574654D01*
X26372219Y-55561866D01*
X26390632Y-55550830D01*
X26410038Y-55541651D01*
X26430250Y-55534419D01*
X26451074Y-55529203D01*
X26472309Y-55526053D01*
X26493750Y-55525000D01*
X27006250Y-55525000D01*
X27027691Y-55526053D01*
X27027691Y-55526053D01*
G37*
D12*
X26750000Y-55962500D03*
D11*
G36*
X20277691Y-55526053D02*
G01*
X20298926Y-55529203D01*
X20319750Y-55534419D01*
X20339962Y-55541651D01*
X20359368Y-55550830D01*
X20377781Y-55561866D01*
X20395024Y-55574654D01*
X20410930Y-55589070D01*
X20425346Y-55604976D01*
X20438134Y-55622219D01*
X20449170Y-55640632D01*
X20458349Y-55660038D01*
X20465581Y-55680250D01*
X20470797Y-55701074D01*
X20473947Y-55722309D01*
X20475000Y-55743750D01*
X20475000Y-56181250D01*
X20473947Y-56202691D01*
X20470797Y-56223926D01*
X20465581Y-56244750D01*
X20458349Y-56264962D01*
X20449170Y-56284368D01*
X20438134Y-56302781D01*
X20425346Y-56320024D01*
X20410930Y-56335930D01*
X20395024Y-56350346D01*
X20377781Y-56363134D01*
X20359368Y-56374170D01*
X20339962Y-56383349D01*
X20319750Y-56390581D01*
X20298926Y-56395797D01*
X20277691Y-56398947D01*
X20256250Y-56400000D01*
X19743750Y-56400000D01*
X19722309Y-56398947D01*
X19701074Y-56395797D01*
X19680250Y-56390581D01*
X19660038Y-56383349D01*
X19640632Y-56374170D01*
X19622219Y-56363134D01*
X19604976Y-56350346D01*
X19589070Y-56335930D01*
X19574654Y-56320024D01*
X19561866Y-56302781D01*
X19550830Y-56284368D01*
X19541651Y-56264962D01*
X19534419Y-56244750D01*
X19529203Y-56223926D01*
X19526053Y-56202691D01*
X19525000Y-56181250D01*
X19525000Y-55743750D01*
X19526053Y-55722309D01*
X19529203Y-55701074D01*
X19534419Y-55680250D01*
X19541651Y-55660038D01*
X19550830Y-55640632D01*
X19561866Y-55622219D01*
X19574654Y-55604976D01*
X19589070Y-55589070D01*
X19604976Y-55574654D01*
X19622219Y-55561866D01*
X19640632Y-55550830D01*
X19660038Y-55541651D01*
X19680250Y-55534419D01*
X19701074Y-55529203D01*
X19722309Y-55526053D01*
X19743750Y-55525000D01*
X20256250Y-55525000D01*
X20277691Y-55526053D01*
X20277691Y-55526053D01*
G37*
D12*
X20000000Y-55962500D03*
D11*
G36*
X20277691Y-57101053D02*
G01*
X20298926Y-57104203D01*
X20319750Y-57109419D01*
X20339962Y-57116651D01*
X20359368Y-57125830D01*
X20377781Y-57136866D01*
X20395024Y-57149654D01*
X20410930Y-57164070D01*
X20425346Y-57179976D01*
X20438134Y-57197219D01*
X20449170Y-57215632D01*
X20458349Y-57235038D01*
X20465581Y-57255250D01*
X20470797Y-57276074D01*
X20473947Y-57297309D01*
X20475000Y-57318750D01*
X20475000Y-57756250D01*
X20473947Y-57777691D01*
X20470797Y-57798926D01*
X20465581Y-57819750D01*
X20458349Y-57839962D01*
X20449170Y-57859368D01*
X20438134Y-57877781D01*
X20425346Y-57895024D01*
X20410930Y-57910930D01*
X20395024Y-57925346D01*
X20377781Y-57938134D01*
X20359368Y-57949170D01*
X20339962Y-57958349D01*
X20319750Y-57965581D01*
X20298926Y-57970797D01*
X20277691Y-57973947D01*
X20256250Y-57975000D01*
X19743750Y-57975000D01*
X19722309Y-57973947D01*
X19701074Y-57970797D01*
X19680250Y-57965581D01*
X19660038Y-57958349D01*
X19640632Y-57949170D01*
X19622219Y-57938134D01*
X19604976Y-57925346D01*
X19589070Y-57910930D01*
X19574654Y-57895024D01*
X19561866Y-57877781D01*
X19550830Y-57859368D01*
X19541651Y-57839962D01*
X19534419Y-57819750D01*
X19529203Y-57798926D01*
X19526053Y-57777691D01*
X19525000Y-57756250D01*
X19525000Y-57318750D01*
X19526053Y-57297309D01*
X19529203Y-57276074D01*
X19534419Y-57255250D01*
X19541651Y-57235038D01*
X19550830Y-57215632D01*
X19561866Y-57197219D01*
X19574654Y-57179976D01*
X19589070Y-57164070D01*
X19604976Y-57149654D01*
X19622219Y-57136866D01*
X19640632Y-57125830D01*
X19660038Y-57116651D01*
X19680250Y-57109419D01*
X19701074Y-57104203D01*
X19722309Y-57101053D01*
X19743750Y-57100000D01*
X20256250Y-57100000D01*
X20277691Y-57101053D01*
X20277691Y-57101053D01*
G37*
D12*
X20000000Y-57537500D03*
D11*
G36*
X53527691Y-57101053D02*
G01*
X53548926Y-57104203D01*
X53569750Y-57109419D01*
X53589962Y-57116651D01*
X53609368Y-57125830D01*
X53627781Y-57136866D01*
X53645024Y-57149654D01*
X53660930Y-57164070D01*
X53675346Y-57179976D01*
X53688134Y-57197219D01*
X53699170Y-57215632D01*
X53708349Y-57235038D01*
X53715581Y-57255250D01*
X53720797Y-57276074D01*
X53723947Y-57297309D01*
X53725000Y-57318750D01*
X53725000Y-57756250D01*
X53723947Y-57777691D01*
X53720797Y-57798926D01*
X53715581Y-57819750D01*
X53708349Y-57839962D01*
X53699170Y-57859368D01*
X53688134Y-57877781D01*
X53675346Y-57895024D01*
X53660930Y-57910930D01*
X53645024Y-57925346D01*
X53627781Y-57938134D01*
X53609368Y-57949170D01*
X53589962Y-57958349D01*
X53569750Y-57965581D01*
X53548926Y-57970797D01*
X53527691Y-57973947D01*
X53506250Y-57975000D01*
X52993750Y-57975000D01*
X52972309Y-57973947D01*
X52951074Y-57970797D01*
X52930250Y-57965581D01*
X52910038Y-57958349D01*
X52890632Y-57949170D01*
X52872219Y-57938134D01*
X52854976Y-57925346D01*
X52839070Y-57910930D01*
X52824654Y-57895024D01*
X52811866Y-57877781D01*
X52800830Y-57859368D01*
X52791651Y-57839962D01*
X52784419Y-57819750D01*
X52779203Y-57798926D01*
X52776053Y-57777691D01*
X52775000Y-57756250D01*
X52775000Y-57318750D01*
X52776053Y-57297309D01*
X52779203Y-57276074D01*
X52784419Y-57255250D01*
X52791651Y-57235038D01*
X52800830Y-57215632D01*
X52811866Y-57197219D01*
X52824654Y-57179976D01*
X52839070Y-57164070D01*
X52854976Y-57149654D01*
X52872219Y-57136866D01*
X52890632Y-57125830D01*
X52910038Y-57116651D01*
X52930250Y-57109419D01*
X52951074Y-57104203D01*
X52972309Y-57101053D01*
X52993750Y-57100000D01*
X53506250Y-57100000D01*
X53527691Y-57101053D01*
X53527691Y-57101053D01*
G37*
D12*
X53250000Y-57537500D03*
D11*
G36*
X53527691Y-55526053D02*
G01*
X53548926Y-55529203D01*
X53569750Y-55534419D01*
X53589962Y-55541651D01*
X53609368Y-55550830D01*
X53627781Y-55561866D01*
X53645024Y-55574654D01*
X53660930Y-55589070D01*
X53675346Y-55604976D01*
X53688134Y-55622219D01*
X53699170Y-55640632D01*
X53708349Y-55660038D01*
X53715581Y-55680250D01*
X53720797Y-55701074D01*
X53723947Y-55722309D01*
X53725000Y-55743750D01*
X53725000Y-56181250D01*
X53723947Y-56202691D01*
X53720797Y-56223926D01*
X53715581Y-56244750D01*
X53708349Y-56264962D01*
X53699170Y-56284368D01*
X53688134Y-56302781D01*
X53675346Y-56320024D01*
X53660930Y-56335930D01*
X53645024Y-56350346D01*
X53627781Y-56363134D01*
X53609368Y-56374170D01*
X53589962Y-56383349D01*
X53569750Y-56390581D01*
X53548926Y-56395797D01*
X53527691Y-56398947D01*
X53506250Y-56400000D01*
X52993750Y-56400000D01*
X52972309Y-56398947D01*
X52951074Y-56395797D01*
X52930250Y-56390581D01*
X52910038Y-56383349D01*
X52890632Y-56374170D01*
X52872219Y-56363134D01*
X52854976Y-56350346D01*
X52839070Y-56335930D01*
X52824654Y-56320024D01*
X52811866Y-56302781D01*
X52800830Y-56284368D01*
X52791651Y-56264962D01*
X52784419Y-56244750D01*
X52779203Y-56223926D01*
X52776053Y-56202691D01*
X52775000Y-56181250D01*
X52775000Y-55743750D01*
X52776053Y-55722309D01*
X52779203Y-55701074D01*
X52784419Y-55680250D01*
X52791651Y-55660038D01*
X52800830Y-55640632D01*
X52811866Y-55622219D01*
X52824654Y-55604976D01*
X52839070Y-55589070D01*
X52854976Y-55574654D01*
X52872219Y-55561866D01*
X52890632Y-55550830D01*
X52910038Y-55541651D01*
X52930250Y-55534419D01*
X52951074Y-55529203D01*
X52972309Y-55526053D01*
X52993750Y-55525000D01*
X53506250Y-55525000D01*
X53527691Y-55526053D01*
X53527691Y-55526053D01*
G37*
D12*
X53250000Y-55962500D03*
D15*
X92050000Y-25750000D03*
X91250000Y-25750000D03*
X90450000Y-25750000D03*
X89650000Y-25750000D03*
X88850000Y-25750000D03*
X88050000Y-25750000D03*
X87250000Y-25750000D03*
X86450000Y-25750000D03*
D16*
X85000000Y-27200000D03*
X85000000Y-28000000D03*
X85000000Y-28800000D03*
X85000000Y-29600000D03*
X85000000Y-30400000D03*
X85000000Y-31200000D03*
X85000000Y-32000000D03*
X85000000Y-32800000D03*
D15*
X86450000Y-34250000D03*
X87250000Y-34250000D03*
X88050000Y-34250000D03*
X88850000Y-34250000D03*
X89650000Y-34250000D03*
X90450000Y-34250000D03*
X91250000Y-34250000D03*
X92050000Y-34250000D03*
D16*
X93500000Y-32800000D03*
X93500000Y-32000000D03*
X93500000Y-31200000D03*
X93500000Y-30400000D03*
X93500000Y-29600000D03*
X93500000Y-28800000D03*
X93500000Y-28000000D03*
X93500000Y-27200000D03*
D17*
X59650000Y-56775000D03*
X59650000Y-57425000D03*
X59650000Y-58075000D03*
X59650000Y-58725000D03*
X59650000Y-59375000D03*
X59650000Y-60025000D03*
X59650000Y-60675000D03*
X59650000Y-61325000D03*
X59650000Y-61975000D03*
X59650000Y-62625000D03*
X59650000Y-63275000D03*
X59650000Y-63925000D03*
X59650000Y-64575000D03*
X59650000Y-65225000D03*
X65350000Y-65225000D03*
X65350000Y-64575000D03*
X65350000Y-63925000D03*
X65350000Y-63275000D03*
X65350000Y-62625000D03*
X65350000Y-61975000D03*
X65350000Y-61325000D03*
X65350000Y-60675000D03*
X65350000Y-60025000D03*
X65350000Y-59375000D03*
X65350000Y-58725000D03*
X65350000Y-58075000D03*
X65350000Y-57425000D03*
X65350000Y-56775000D03*
D18*
X88050000Y-23000000D03*
X86850000Y-23000000D03*
X85650000Y-23000000D03*
D11*
G36*
X113527691Y-81601053D02*
G01*
X113548926Y-81604203D01*
X113569750Y-81609419D01*
X113589962Y-81616651D01*
X113609368Y-81625830D01*
X113627781Y-81636866D01*
X113645024Y-81649654D01*
X113660930Y-81664070D01*
X113675346Y-81679976D01*
X113688134Y-81697219D01*
X113699170Y-81715632D01*
X113708349Y-81735038D01*
X113715581Y-81755250D01*
X113720797Y-81776074D01*
X113723947Y-81797309D01*
X113725000Y-81818750D01*
X113725000Y-82256250D01*
X113723947Y-82277691D01*
X113720797Y-82298926D01*
X113715581Y-82319750D01*
X113708349Y-82339962D01*
X113699170Y-82359368D01*
X113688134Y-82377781D01*
X113675346Y-82395024D01*
X113660930Y-82410930D01*
X113645024Y-82425346D01*
X113627781Y-82438134D01*
X113609368Y-82449170D01*
X113589962Y-82458349D01*
X113569750Y-82465581D01*
X113548926Y-82470797D01*
X113527691Y-82473947D01*
X113506250Y-82475000D01*
X112993750Y-82475000D01*
X112972309Y-82473947D01*
X112951074Y-82470797D01*
X112930250Y-82465581D01*
X112910038Y-82458349D01*
X112890632Y-82449170D01*
X112872219Y-82438134D01*
X112854976Y-82425346D01*
X112839070Y-82410930D01*
X112824654Y-82395024D01*
X112811866Y-82377781D01*
X112800830Y-82359368D01*
X112791651Y-82339962D01*
X112784419Y-82319750D01*
X112779203Y-82298926D01*
X112776053Y-82277691D01*
X112775000Y-82256250D01*
X112775000Y-81818750D01*
X112776053Y-81797309D01*
X112779203Y-81776074D01*
X112784419Y-81755250D01*
X112791651Y-81735038D01*
X112800830Y-81715632D01*
X112811866Y-81697219D01*
X112824654Y-81679976D01*
X112839070Y-81664070D01*
X112854976Y-81649654D01*
X112872219Y-81636866D01*
X112890632Y-81625830D01*
X112910038Y-81616651D01*
X112930250Y-81609419D01*
X112951074Y-81604203D01*
X112972309Y-81601053D01*
X112993750Y-81600000D01*
X113506250Y-81600000D01*
X113527691Y-81601053D01*
X113527691Y-81601053D01*
G37*
D12*
X113250000Y-82037500D03*
D11*
G36*
X113527691Y-80026053D02*
G01*
X113548926Y-80029203D01*
X113569750Y-80034419D01*
X113589962Y-80041651D01*
X113609368Y-80050830D01*
X113627781Y-80061866D01*
X113645024Y-80074654D01*
X113660930Y-80089070D01*
X113675346Y-80104976D01*
X113688134Y-80122219D01*
X113699170Y-80140632D01*
X113708349Y-80160038D01*
X113715581Y-80180250D01*
X113720797Y-80201074D01*
X113723947Y-80222309D01*
X113725000Y-80243750D01*
X113725000Y-80681250D01*
X113723947Y-80702691D01*
X113720797Y-80723926D01*
X113715581Y-80744750D01*
X113708349Y-80764962D01*
X113699170Y-80784368D01*
X113688134Y-80802781D01*
X113675346Y-80820024D01*
X113660930Y-80835930D01*
X113645024Y-80850346D01*
X113627781Y-80863134D01*
X113609368Y-80874170D01*
X113589962Y-80883349D01*
X113569750Y-80890581D01*
X113548926Y-80895797D01*
X113527691Y-80898947D01*
X113506250Y-80900000D01*
X112993750Y-80900000D01*
X112972309Y-80898947D01*
X112951074Y-80895797D01*
X112930250Y-80890581D01*
X112910038Y-80883349D01*
X112890632Y-80874170D01*
X112872219Y-80863134D01*
X112854976Y-80850346D01*
X112839070Y-80835930D01*
X112824654Y-80820024D01*
X112811866Y-80802781D01*
X112800830Y-80784368D01*
X112791651Y-80764962D01*
X112784419Y-80744750D01*
X112779203Y-80723926D01*
X112776053Y-80702691D01*
X112775000Y-80681250D01*
X112775000Y-80243750D01*
X112776053Y-80222309D01*
X112779203Y-80201074D01*
X112784419Y-80180250D01*
X112791651Y-80160038D01*
X112800830Y-80140632D01*
X112811866Y-80122219D01*
X112824654Y-80104976D01*
X112839070Y-80089070D01*
X112854976Y-80074654D01*
X112872219Y-80061866D01*
X112890632Y-80050830D01*
X112910038Y-80041651D01*
X112930250Y-80034419D01*
X112951074Y-80029203D01*
X112972309Y-80026053D01*
X112993750Y-80025000D01*
X113506250Y-80025000D01*
X113527691Y-80026053D01*
X113527691Y-80026053D01*
G37*
D12*
X113250000Y-80462500D03*
D11*
G36*
X113527691Y-72276053D02*
G01*
X113548926Y-72279203D01*
X113569750Y-72284419D01*
X113589962Y-72291651D01*
X113609368Y-72300830D01*
X113627781Y-72311866D01*
X113645024Y-72324654D01*
X113660930Y-72339070D01*
X113675346Y-72354976D01*
X113688134Y-72372219D01*
X113699170Y-72390632D01*
X113708349Y-72410038D01*
X113715581Y-72430250D01*
X113720797Y-72451074D01*
X113723947Y-72472309D01*
X113725000Y-72493750D01*
X113725000Y-72931250D01*
X113723947Y-72952691D01*
X113720797Y-72973926D01*
X113715581Y-72994750D01*
X113708349Y-73014962D01*
X113699170Y-73034368D01*
X113688134Y-73052781D01*
X113675346Y-73070024D01*
X113660930Y-73085930D01*
X113645024Y-73100346D01*
X113627781Y-73113134D01*
X113609368Y-73124170D01*
X113589962Y-73133349D01*
X113569750Y-73140581D01*
X113548926Y-73145797D01*
X113527691Y-73148947D01*
X113506250Y-73150000D01*
X112993750Y-73150000D01*
X112972309Y-73148947D01*
X112951074Y-73145797D01*
X112930250Y-73140581D01*
X112910038Y-73133349D01*
X112890632Y-73124170D01*
X112872219Y-73113134D01*
X112854976Y-73100346D01*
X112839070Y-73085930D01*
X112824654Y-73070024D01*
X112811866Y-73052781D01*
X112800830Y-73034368D01*
X112791651Y-73014962D01*
X112784419Y-72994750D01*
X112779203Y-72973926D01*
X112776053Y-72952691D01*
X112775000Y-72931250D01*
X112775000Y-72493750D01*
X112776053Y-72472309D01*
X112779203Y-72451074D01*
X112784419Y-72430250D01*
X112791651Y-72410038D01*
X112800830Y-72390632D01*
X112811866Y-72372219D01*
X112824654Y-72354976D01*
X112839070Y-72339070D01*
X112854976Y-72324654D01*
X112872219Y-72311866D01*
X112890632Y-72300830D01*
X112910038Y-72291651D01*
X112930250Y-72284419D01*
X112951074Y-72279203D01*
X112972309Y-72276053D01*
X112993750Y-72275000D01*
X113506250Y-72275000D01*
X113527691Y-72276053D01*
X113527691Y-72276053D01*
G37*
D12*
X113250000Y-72712500D03*
D11*
G36*
X113527691Y-73851053D02*
G01*
X113548926Y-73854203D01*
X113569750Y-73859419D01*
X113589962Y-73866651D01*
X113609368Y-73875830D01*
X113627781Y-73886866D01*
X113645024Y-73899654D01*
X113660930Y-73914070D01*
X113675346Y-73929976D01*
X113688134Y-73947219D01*
X113699170Y-73965632D01*
X113708349Y-73985038D01*
X113715581Y-74005250D01*
X113720797Y-74026074D01*
X113723947Y-74047309D01*
X113725000Y-74068750D01*
X113725000Y-74506250D01*
X113723947Y-74527691D01*
X113720797Y-74548926D01*
X113715581Y-74569750D01*
X113708349Y-74589962D01*
X113699170Y-74609368D01*
X113688134Y-74627781D01*
X113675346Y-74645024D01*
X113660930Y-74660930D01*
X113645024Y-74675346D01*
X113627781Y-74688134D01*
X113609368Y-74699170D01*
X113589962Y-74708349D01*
X113569750Y-74715581D01*
X113548926Y-74720797D01*
X113527691Y-74723947D01*
X113506250Y-74725000D01*
X112993750Y-74725000D01*
X112972309Y-74723947D01*
X112951074Y-74720797D01*
X112930250Y-74715581D01*
X112910038Y-74708349D01*
X112890632Y-74699170D01*
X112872219Y-74688134D01*
X112854976Y-74675346D01*
X112839070Y-74660930D01*
X112824654Y-74645024D01*
X112811866Y-74627781D01*
X112800830Y-74609368D01*
X112791651Y-74589962D01*
X112784419Y-74569750D01*
X112779203Y-74548926D01*
X112776053Y-74527691D01*
X112775000Y-74506250D01*
X112775000Y-74068750D01*
X112776053Y-74047309D01*
X112779203Y-74026074D01*
X112784419Y-74005250D01*
X112791651Y-73985038D01*
X112800830Y-73965632D01*
X112811866Y-73947219D01*
X112824654Y-73929976D01*
X112839070Y-73914070D01*
X112854976Y-73899654D01*
X112872219Y-73886866D01*
X112890632Y-73875830D01*
X112910038Y-73866651D01*
X112930250Y-73859419D01*
X112951074Y-73854203D01*
X112972309Y-73851053D01*
X112993750Y-73850000D01*
X113506250Y-73850000D01*
X113527691Y-73851053D01*
X113527691Y-73851053D01*
G37*
D12*
X113250000Y-74287500D03*
D11*
G36*
X113527691Y-78351053D02*
G01*
X113548926Y-78354203D01*
X113569750Y-78359419D01*
X113589962Y-78366651D01*
X113609368Y-78375830D01*
X113627781Y-78386866D01*
X113645024Y-78399654D01*
X113660930Y-78414070D01*
X113675346Y-78429976D01*
X113688134Y-78447219D01*
X113699170Y-78465632D01*
X113708349Y-78485038D01*
X113715581Y-78505250D01*
X113720797Y-78526074D01*
X113723947Y-78547309D01*
X113725000Y-78568750D01*
X113725000Y-79006250D01*
X113723947Y-79027691D01*
X113720797Y-79048926D01*
X113715581Y-79069750D01*
X113708349Y-79089962D01*
X113699170Y-79109368D01*
X113688134Y-79127781D01*
X113675346Y-79145024D01*
X113660930Y-79160930D01*
X113645024Y-79175346D01*
X113627781Y-79188134D01*
X113609368Y-79199170D01*
X113589962Y-79208349D01*
X113569750Y-79215581D01*
X113548926Y-79220797D01*
X113527691Y-79223947D01*
X113506250Y-79225000D01*
X112993750Y-79225000D01*
X112972309Y-79223947D01*
X112951074Y-79220797D01*
X112930250Y-79215581D01*
X112910038Y-79208349D01*
X112890632Y-79199170D01*
X112872219Y-79188134D01*
X112854976Y-79175346D01*
X112839070Y-79160930D01*
X112824654Y-79145024D01*
X112811866Y-79127781D01*
X112800830Y-79109368D01*
X112791651Y-79089962D01*
X112784419Y-79069750D01*
X112779203Y-79048926D01*
X112776053Y-79027691D01*
X112775000Y-79006250D01*
X112775000Y-78568750D01*
X112776053Y-78547309D01*
X112779203Y-78526074D01*
X112784419Y-78505250D01*
X112791651Y-78485038D01*
X112800830Y-78465632D01*
X112811866Y-78447219D01*
X112824654Y-78429976D01*
X112839070Y-78414070D01*
X112854976Y-78399654D01*
X112872219Y-78386866D01*
X112890632Y-78375830D01*
X112910038Y-78366651D01*
X112930250Y-78359419D01*
X112951074Y-78354203D01*
X112972309Y-78351053D01*
X112993750Y-78350000D01*
X113506250Y-78350000D01*
X113527691Y-78351053D01*
X113527691Y-78351053D01*
G37*
D12*
X113250000Y-78787500D03*
D11*
G36*
X113527691Y-76776053D02*
G01*
X113548926Y-76779203D01*
X113569750Y-76784419D01*
X113589962Y-76791651D01*
X113609368Y-76800830D01*
X113627781Y-76811866D01*
X113645024Y-76824654D01*
X113660930Y-76839070D01*
X113675346Y-76854976D01*
X113688134Y-76872219D01*
X113699170Y-76890632D01*
X113708349Y-76910038D01*
X113715581Y-76930250D01*
X113720797Y-76951074D01*
X113723947Y-76972309D01*
X113725000Y-76993750D01*
X113725000Y-77431250D01*
X113723947Y-77452691D01*
X113720797Y-77473926D01*
X113715581Y-77494750D01*
X113708349Y-77514962D01*
X113699170Y-77534368D01*
X113688134Y-77552781D01*
X113675346Y-77570024D01*
X113660930Y-77585930D01*
X113645024Y-77600346D01*
X113627781Y-77613134D01*
X113609368Y-77624170D01*
X113589962Y-77633349D01*
X113569750Y-77640581D01*
X113548926Y-77645797D01*
X113527691Y-77648947D01*
X113506250Y-77650000D01*
X112993750Y-77650000D01*
X112972309Y-77648947D01*
X112951074Y-77645797D01*
X112930250Y-77640581D01*
X112910038Y-77633349D01*
X112890632Y-77624170D01*
X112872219Y-77613134D01*
X112854976Y-77600346D01*
X112839070Y-77585930D01*
X112824654Y-77570024D01*
X112811866Y-77552781D01*
X112800830Y-77534368D01*
X112791651Y-77514962D01*
X112784419Y-77494750D01*
X112779203Y-77473926D01*
X112776053Y-77452691D01*
X112775000Y-77431250D01*
X112775000Y-76993750D01*
X112776053Y-76972309D01*
X112779203Y-76951074D01*
X112784419Y-76930250D01*
X112791651Y-76910038D01*
X112800830Y-76890632D01*
X112811866Y-76872219D01*
X112824654Y-76854976D01*
X112839070Y-76839070D01*
X112854976Y-76824654D01*
X112872219Y-76811866D01*
X112890632Y-76800830D01*
X112910038Y-76791651D01*
X112930250Y-76784419D01*
X112951074Y-76779203D01*
X112972309Y-76776053D01*
X112993750Y-76775000D01*
X113506250Y-76775000D01*
X113527691Y-76776053D01*
X113527691Y-76776053D01*
G37*
D12*
X113250000Y-77212500D03*
D11*
G36*
X113527691Y-69026053D02*
G01*
X113548926Y-69029203D01*
X113569750Y-69034419D01*
X113589962Y-69041651D01*
X113609368Y-69050830D01*
X113627781Y-69061866D01*
X113645024Y-69074654D01*
X113660930Y-69089070D01*
X113675346Y-69104976D01*
X113688134Y-69122219D01*
X113699170Y-69140632D01*
X113708349Y-69160038D01*
X113715581Y-69180250D01*
X113720797Y-69201074D01*
X113723947Y-69222309D01*
X113725000Y-69243750D01*
X113725000Y-69681250D01*
X113723947Y-69702691D01*
X113720797Y-69723926D01*
X113715581Y-69744750D01*
X113708349Y-69764962D01*
X113699170Y-69784368D01*
X113688134Y-69802781D01*
X113675346Y-69820024D01*
X113660930Y-69835930D01*
X113645024Y-69850346D01*
X113627781Y-69863134D01*
X113609368Y-69874170D01*
X113589962Y-69883349D01*
X113569750Y-69890581D01*
X113548926Y-69895797D01*
X113527691Y-69898947D01*
X113506250Y-69900000D01*
X112993750Y-69900000D01*
X112972309Y-69898947D01*
X112951074Y-69895797D01*
X112930250Y-69890581D01*
X112910038Y-69883349D01*
X112890632Y-69874170D01*
X112872219Y-69863134D01*
X112854976Y-69850346D01*
X112839070Y-69835930D01*
X112824654Y-69820024D01*
X112811866Y-69802781D01*
X112800830Y-69784368D01*
X112791651Y-69764962D01*
X112784419Y-69744750D01*
X112779203Y-69723926D01*
X112776053Y-69702691D01*
X112775000Y-69681250D01*
X112775000Y-69243750D01*
X112776053Y-69222309D01*
X112779203Y-69201074D01*
X112784419Y-69180250D01*
X112791651Y-69160038D01*
X112800830Y-69140632D01*
X112811866Y-69122219D01*
X112824654Y-69104976D01*
X112839070Y-69089070D01*
X112854976Y-69074654D01*
X112872219Y-69061866D01*
X112890632Y-69050830D01*
X112910038Y-69041651D01*
X112930250Y-69034419D01*
X112951074Y-69029203D01*
X112972309Y-69026053D01*
X112993750Y-69025000D01*
X113506250Y-69025000D01*
X113527691Y-69026053D01*
X113527691Y-69026053D01*
G37*
D12*
X113250000Y-69462500D03*
D11*
G36*
X113527691Y-70601053D02*
G01*
X113548926Y-70604203D01*
X113569750Y-70609419D01*
X113589962Y-70616651D01*
X113609368Y-70625830D01*
X113627781Y-70636866D01*
X113645024Y-70649654D01*
X113660930Y-70664070D01*
X113675346Y-70679976D01*
X113688134Y-70697219D01*
X113699170Y-70715632D01*
X113708349Y-70735038D01*
X113715581Y-70755250D01*
X113720797Y-70776074D01*
X113723947Y-70797309D01*
X113725000Y-70818750D01*
X113725000Y-71256250D01*
X113723947Y-71277691D01*
X113720797Y-71298926D01*
X113715581Y-71319750D01*
X113708349Y-71339962D01*
X113699170Y-71359368D01*
X113688134Y-71377781D01*
X113675346Y-71395024D01*
X113660930Y-71410930D01*
X113645024Y-71425346D01*
X113627781Y-71438134D01*
X113609368Y-71449170D01*
X113589962Y-71458349D01*
X113569750Y-71465581D01*
X113548926Y-71470797D01*
X113527691Y-71473947D01*
X113506250Y-71475000D01*
X112993750Y-71475000D01*
X112972309Y-71473947D01*
X112951074Y-71470797D01*
X112930250Y-71465581D01*
X112910038Y-71458349D01*
X112890632Y-71449170D01*
X112872219Y-71438134D01*
X112854976Y-71425346D01*
X112839070Y-71410930D01*
X112824654Y-71395024D01*
X112811866Y-71377781D01*
X112800830Y-71359368D01*
X112791651Y-71339962D01*
X112784419Y-71319750D01*
X112779203Y-71298926D01*
X112776053Y-71277691D01*
X112775000Y-71256250D01*
X112775000Y-70818750D01*
X112776053Y-70797309D01*
X112779203Y-70776074D01*
X112784419Y-70755250D01*
X112791651Y-70735038D01*
X112800830Y-70715632D01*
X112811866Y-70697219D01*
X112824654Y-70679976D01*
X112839070Y-70664070D01*
X112854976Y-70649654D01*
X112872219Y-70636866D01*
X112890632Y-70625830D01*
X112910038Y-70616651D01*
X112930250Y-70609419D01*
X112951074Y-70604203D01*
X112972309Y-70601053D01*
X112993750Y-70600000D01*
X113506250Y-70600000D01*
X113527691Y-70601053D01*
X113527691Y-70601053D01*
G37*
D12*
X113250000Y-71037500D03*
D11*
G36*
X58702691Y-53776053D02*
G01*
X58723926Y-53779203D01*
X58744750Y-53784419D01*
X58764962Y-53791651D01*
X58784368Y-53800830D01*
X58802781Y-53811866D01*
X58820024Y-53824654D01*
X58835930Y-53839070D01*
X58850346Y-53854976D01*
X58863134Y-53872219D01*
X58874170Y-53890632D01*
X58883349Y-53910038D01*
X58890581Y-53930250D01*
X58895797Y-53951074D01*
X58898947Y-53972309D01*
X58900000Y-53993750D01*
X58900000Y-54506250D01*
X58898947Y-54527691D01*
X58895797Y-54548926D01*
X58890581Y-54569750D01*
X58883349Y-54589962D01*
X58874170Y-54609368D01*
X58863134Y-54627781D01*
X58850346Y-54645024D01*
X58835930Y-54660930D01*
X58820024Y-54675346D01*
X58802781Y-54688134D01*
X58784368Y-54699170D01*
X58764962Y-54708349D01*
X58744750Y-54715581D01*
X58723926Y-54720797D01*
X58702691Y-54723947D01*
X58681250Y-54725000D01*
X58243750Y-54725000D01*
X58222309Y-54723947D01*
X58201074Y-54720797D01*
X58180250Y-54715581D01*
X58160038Y-54708349D01*
X58140632Y-54699170D01*
X58122219Y-54688134D01*
X58104976Y-54675346D01*
X58089070Y-54660930D01*
X58074654Y-54645024D01*
X58061866Y-54627781D01*
X58050830Y-54609368D01*
X58041651Y-54589962D01*
X58034419Y-54569750D01*
X58029203Y-54548926D01*
X58026053Y-54527691D01*
X58025000Y-54506250D01*
X58025000Y-53993750D01*
X58026053Y-53972309D01*
X58029203Y-53951074D01*
X58034419Y-53930250D01*
X58041651Y-53910038D01*
X58050830Y-53890632D01*
X58061866Y-53872219D01*
X58074654Y-53854976D01*
X58089070Y-53839070D01*
X58104976Y-53824654D01*
X58122219Y-53811866D01*
X58140632Y-53800830D01*
X58160038Y-53791651D01*
X58180250Y-53784419D01*
X58201074Y-53779203D01*
X58222309Y-53776053D01*
X58243750Y-53775000D01*
X58681250Y-53775000D01*
X58702691Y-53776053D01*
X58702691Y-53776053D01*
G37*
D12*
X58462500Y-54250000D03*
D11*
G36*
X60277691Y-53776053D02*
G01*
X60298926Y-53779203D01*
X60319750Y-53784419D01*
X60339962Y-53791651D01*
X60359368Y-53800830D01*
X60377781Y-53811866D01*
X60395024Y-53824654D01*
X60410930Y-53839070D01*
X60425346Y-53854976D01*
X60438134Y-53872219D01*
X60449170Y-53890632D01*
X60458349Y-53910038D01*
X60465581Y-53930250D01*
X60470797Y-53951074D01*
X60473947Y-53972309D01*
X60475000Y-53993750D01*
X60475000Y-54506250D01*
X60473947Y-54527691D01*
X60470797Y-54548926D01*
X60465581Y-54569750D01*
X60458349Y-54589962D01*
X60449170Y-54609368D01*
X60438134Y-54627781D01*
X60425346Y-54645024D01*
X60410930Y-54660930D01*
X60395024Y-54675346D01*
X60377781Y-54688134D01*
X60359368Y-54699170D01*
X60339962Y-54708349D01*
X60319750Y-54715581D01*
X60298926Y-54720797D01*
X60277691Y-54723947D01*
X60256250Y-54725000D01*
X59818750Y-54725000D01*
X59797309Y-54723947D01*
X59776074Y-54720797D01*
X59755250Y-54715581D01*
X59735038Y-54708349D01*
X59715632Y-54699170D01*
X59697219Y-54688134D01*
X59679976Y-54675346D01*
X59664070Y-54660930D01*
X59649654Y-54645024D01*
X59636866Y-54627781D01*
X59625830Y-54609368D01*
X59616651Y-54589962D01*
X59609419Y-54569750D01*
X59604203Y-54548926D01*
X59601053Y-54527691D01*
X59600000Y-54506250D01*
X59600000Y-53993750D01*
X59601053Y-53972309D01*
X59604203Y-53951074D01*
X59609419Y-53930250D01*
X59616651Y-53910038D01*
X59625830Y-53890632D01*
X59636866Y-53872219D01*
X59649654Y-53854976D01*
X59664070Y-53839070D01*
X59679976Y-53824654D01*
X59697219Y-53811866D01*
X59715632Y-53800830D01*
X59735038Y-53791651D01*
X59755250Y-53784419D01*
X59776074Y-53779203D01*
X59797309Y-53776053D01*
X59818750Y-53775000D01*
X60256250Y-53775000D01*
X60277691Y-53776053D01*
X60277691Y-53776053D01*
G37*
D12*
X60037500Y-54250000D03*
D11*
G36*
X64702691Y-53776053D02*
G01*
X64723926Y-53779203D01*
X64744750Y-53784419D01*
X64764962Y-53791651D01*
X64784368Y-53800830D01*
X64802781Y-53811866D01*
X64820024Y-53824654D01*
X64835930Y-53839070D01*
X64850346Y-53854976D01*
X64863134Y-53872219D01*
X64874170Y-53890632D01*
X64883349Y-53910038D01*
X64890581Y-53930250D01*
X64895797Y-53951074D01*
X64898947Y-53972309D01*
X64900000Y-53993750D01*
X64900000Y-54506250D01*
X64898947Y-54527691D01*
X64895797Y-54548926D01*
X64890581Y-54569750D01*
X64883349Y-54589962D01*
X64874170Y-54609368D01*
X64863134Y-54627781D01*
X64850346Y-54645024D01*
X64835930Y-54660930D01*
X64820024Y-54675346D01*
X64802781Y-54688134D01*
X64784368Y-54699170D01*
X64764962Y-54708349D01*
X64744750Y-54715581D01*
X64723926Y-54720797D01*
X64702691Y-54723947D01*
X64681250Y-54725000D01*
X64243750Y-54725000D01*
X64222309Y-54723947D01*
X64201074Y-54720797D01*
X64180250Y-54715581D01*
X64160038Y-54708349D01*
X64140632Y-54699170D01*
X64122219Y-54688134D01*
X64104976Y-54675346D01*
X64089070Y-54660930D01*
X64074654Y-54645024D01*
X64061866Y-54627781D01*
X64050830Y-54609368D01*
X64041651Y-54589962D01*
X64034419Y-54569750D01*
X64029203Y-54548926D01*
X64026053Y-54527691D01*
X64025000Y-54506250D01*
X64025000Y-53993750D01*
X64026053Y-53972309D01*
X64029203Y-53951074D01*
X64034419Y-53930250D01*
X64041651Y-53910038D01*
X64050830Y-53890632D01*
X64061866Y-53872219D01*
X64074654Y-53854976D01*
X64089070Y-53839070D01*
X64104976Y-53824654D01*
X64122219Y-53811866D01*
X64140632Y-53800830D01*
X64160038Y-53791651D01*
X64180250Y-53784419D01*
X64201074Y-53779203D01*
X64222309Y-53776053D01*
X64243750Y-53775000D01*
X64681250Y-53775000D01*
X64702691Y-53776053D01*
X64702691Y-53776053D01*
G37*
D12*
X64462500Y-54250000D03*
D11*
G36*
X66277691Y-53776053D02*
G01*
X66298926Y-53779203D01*
X66319750Y-53784419D01*
X66339962Y-53791651D01*
X66359368Y-53800830D01*
X66377781Y-53811866D01*
X66395024Y-53824654D01*
X66410930Y-53839070D01*
X66425346Y-53854976D01*
X66438134Y-53872219D01*
X66449170Y-53890632D01*
X66458349Y-53910038D01*
X66465581Y-53930250D01*
X66470797Y-53951074D01*
X66473947Y-53972309D01*
X66475000Y-53993750D01*
X66475000Y-54506250D01*
X66473947Y-54527691D01*
X66470797Y-54548926D01*
X66465581Y-54569750D01*
X66458349Y-54589962D01*
X66449170Y-54609368D01*
X66438134Y-54627781D01*
X66425346Y-54645024D01*
X66410930Y-54660930D01*
X66395024Y-54675346D01*
X66377781Y-54688134D01*
X66359368Y-54699170D01*
X66339962Y-54708349D01*
X66319750Y-54715581D01*
X66298926Y-54720797D01*
X66277691Y-54723947D01*
X66256250Y-54725000D01*
X65818750Y-54725000D01*
X65797309Y-54723947D01*
X65776074Y-54720797D01*
X65755250Y-54715581D01*
X65735038Y-54708349D01*
X65715632Y-54699170D01*
X65697219Y-54688134D01*
X65679976Y-54675346D01*
X65664070Y-54660930D01*
X65649654Y-54645024D01*
X65636866Y-54627781D01*
X65625830Y-54609368D01*
X65616651Y-54589962D01*
X65609419Y-54569750D01*
X65604203Y-54548926D01*
X65601053Y-54527691D01*
X65600000Y-54506250D01*
X65600000Y-53993750D01*
X65601053Y-53972309D01*
X65604203Y-53951074D01*
X65609419Y-53930250D01*
X65616651Y-53910038D01*
X65625830Y-53890632D01*
X65636866Y-53872219D01*
X65649654Y-53854976D01*
X65664070Y-53839070D01*
X65679976Y-53824654D01*
X65697219Y-53811866D01*
X65715632Y-53800830D01*
X65735038Y-53791651D01*
X65755250Y-53784419D01*
X65776074Y-53779203D01*
X65797309Y-53776053D01*
X65818750Y-53775000D01*
X66256250Y-53775000D01*
X66277691Y-53776053D01*
X66277691Y-53776053D01*
G37*
D12*
X66037500Y-54250000D03*
D19*
X100675000Y-22075000D03*
X100675000Y-17925000D03*
X102825000Y-22075000D03*
X102825000Y-17925000D03*
M02*
