M48
; DRILL file {KiCad (5.1.0)-1} date 8-7-2021 22:59:00
; FORMAT={-:-/ absolute / inch / decimal}
; #@! TF.CreationDate,2021-07-08T22:59:00+02:00
; #@! TF.GenerationSoftware,Kicad,Pcbnew,(5.1.0)-1
FMAT,2
INCH
T1C0.0157
T2C0.0315
T3C0.0374
T4C0.0394
T5C0.0433
T6C0.0669
T7C0.1260
T8C0.1378
%
G90
G05
T1
X0.6988Y-3.5433
X0.7874Y-2.1555
X1.0531Y-2.1555
X1.1516Y-3.5433
X1.3189Y-2.1555
X1.5748Y-2.1555
X1.6043Y-3.5433
X1.8307Y-2.1555
X2.0571Y-3.5433
X2.0965Y-2.1555
X2.2835Y-2.5787
X2.4213Y-2.1161
X2.4803Y-2.1161
X2.5098Y-3.5433
X2.5197Y-2.3622
X2.6378Y-2.1358
X2.7461Y-2.2047
X2.7756Y-1.9882
X2.7756Y-2.0472
X2.815Y-0.9744
X2.8445Y-0.9449
X2.8839Y-1.0433
X2.8937Y-1.6043
X2.8937Y-1.6437
X2.8937Y-1.7028
X2.8937Y-1.7421
X2.9134Y-1.0138
X2.9626Y-0.7283
X2.9626Y-3.5433
X3.3858Y-0.8366
X3.405Y-1.29
X3.4154Y-1.1713
X3.4154Y-3.5433
X3.435Y-1.4075
X3.4646Y-1.2303
X3.4744Y-1.5157
X3.5039Y-1.4075
X3.51Y-0.905
X3.5138Y-1.2303
X3.6516Y-0.9055
X3.8681Y-3.5433
X3.878Y-1.6831
X3.9075Y-1.1417
X3.9075Y-1.2598
X3.9075Y-1.6535
X3.9469Y-1.752
X3.9567Y-1.1417
X3.9567Y-1.2598
X3.9764Y-1.7224
X4.0157Y-1.2894
X4.0157Y-1.3386
X4.0846Y-0.935
X4.1339Y-1.2894
X4.1339Y-1.3386
X4.2126Y-2.0571
X4.2126Y-2.1161
X4.2126Y-2.2047
X4.2126Y-2.2638
X4.2126Y-2.4902
X4.2126Y-2.5394
X4.2126Y-2.5886
X4.4587Y-2.687
X4.4587Y-2.9823
X4.4587Y-3.2776
T2
X4.3799Y-2.4213
X4.3799Y-2.5
X4.3799Y-2.126
X4.3799Y-2.2047
X4.3799Y-3.9862
X4.3799Y-4.065
X4.3799Y-1.8406
X4.3799Y-1.9193
T3
X4.0748Y-1.4764
X4.1732Y-1.4764
X4.2717Y-1.4764
X4.3701Y-1.4764
X4.0748Y-1.1024
X4.1732Y-1.1024
X4.2717Y-1.1024
X4.3701Y-1.1024
T4
X3.002Y-2.2146
X3.1004Y-2.2146
X0.7874Y-2.5394
X0.8858Y-2.5394
X4.0354Y-2.5394
X4.1339Y-2.5394
X3.002Y-2.5394
X3.1004Y-2.5394
X1.063Y-1.6043
X1.1614Y-1.6043
X3.3465Y-1.8898
X3.4449Y-1.8898
X3.6909Y-1.8898
X3.7894Y-1.8898
X1.9685Y-1.2697
X2.0669Y-1.2697
X3.002Y-1.8898
X3.1004Y-1.8898
X1.5157Y-1.6043
X1.6142Y-1.6043
X3.1201Y-0.9252
X3.1201Y-1.0252
X3.1201Y-1.1252
X3.1201Y-1.2252
X3.1201Y-1.3252
X3.1201Y-1.4252
X4.0354Y-1.8898
X4.1339Y-1.8898
X2.4213Y-1.6043
X2.5197Y-1.6043
X2.4213Y-1.2697
X2.5197Y-1.2697
X3.2972Y-3.6205
X3.2972Y-3.7205
X3.2972Y-3.8205
X4.0157Y-4.252
X4.0157Y-4.3504
X1.9685Y-1.6043
X2.0669Y-1.6043
X2.0177Y-4.2126
X2.0177Y-4.4094
X1.063Y-1.939
X1.1614Y-1.939
X2.4508Y-4.2126
X2.4508Y-4.4094
X3.1189Y-0.7677
X3.2189Y-0.7677
X3.3189Y-0.7677
X3.4189Y-0.7677
X3.5189Y-0.7677
X3.6189Y-0.7677
X3.7189Y-0.7677
X3.8189Y-0.7677
X1.8209Y-2.5394
X1.9193Y-2.5394
X1.063Y-0.935
X1.1614Y-0.935
X1.5157Y-1.2697
X1.6142Y-1.2697
X3.3169Y-4.2126
X3.3169Y-4.4094
X1.9685Y-0.935
X2.0669Y-0.935
X1.9685Y-1.939
X2.0669Y-1.939
X3.1201Y-1.5748
X3.2201Y-1.5748
X3.3201Y-1.5748
X3.4201Y-1.5748
X3.5201Y-1.5748
X3.6201Y-1.5748
X3.7201Y-1.5748
X3.8201Y-1.5748
X2.4213Y-0.935
X2.5197Y-0.935
X1.1319Y-2.5394
X1.2303Y-2.5394
X1.5157Y-0.935
X1.6142Y-0.935
X3.3465Y-2.5394
X3.4449Y-2.5394
X3.6909Y-4.252
X3.6909Y-4.3504
X2.4213Y-1.939
X2.5197Y-1.939
X3.8386Y-3.6205
X3.8386Y-3.7205
X3.8386Y-3.8205
X2.8839Y-4.2126
X2.8839Y-4.4094
X1.4764Y-2.5394
X1.5748Y-2.5394
X3.6909Y-2.2146
X3.7894Y-2.2146
X3.6909Y-2.5394
X3.7894Y-2.5394
X1.5157Y-1.939
X1.6142Y-1.939
X3.3465Y-2.2146
X3.4449Y-2.2146
X2.87Y-1.225
X2.87Y-1.325
X2.87Y-1.425
X2.97Y-1.225
X2.97Y-1.325
X2.97Y-1.425
X4.0354Y-2.2146
X4.1339Y-2.2146
X1.063Y-1.2697
X1.1614Y-1.2697
T5
X1.7224Y-3.4843
X1.8224Y-3.4843
X1.9224Y-3.4843
X3.9862Y-3.4843
X4.0862Y-3.4843
X4.1862Y-3.4843
X0.8169Y-3.4843
X0.9169Y-3.4843
X1.0169Y-3.4843
X2.628Y-3.4843
X2.728Y-3.4843
X2.828Y-3.4843
X2.1752Y-3.4843
X2.2752Y-3.4843
X2.3752Y-3.4843
X1.2697Y-3.4843
X1.3697Y-3.4843
X1.4697Y-3.4843
X3.5335Y-3.4843
X3.6335Y-3.4843
X3.7335Y-3.4843
X3.0807Y-3.4843
X3.1807Y-3.4843
X3.2807Y-3.4843
T6
X1.5945Y-4.2323
X1.5945Y-4.3882
X2.5787Y-3.7205
X2.7346Y-3.7205
X1.6732Y-3.7205
X1.8291Y-3.7205
X1.985Y-3.7205
X2.9528Y-3.7205
X3.1087Y-3.7205
X4.0354Y-3.7205
X4.1913Y-3.7205
X0.7677Y-3.7205
X0.9236Y-3.7205
X1.0795Y-3.7205
X1.1811Y-4.2323
X1.1811Y-4.3882
X1.2992Y-3.7205
X1.4551Y-3.7205
X2.2047Y-3.7205
X2.3606Y-3.7205
X3.4941Y-3.7205
X3.65Y-3.7205
T7
X4.3307Y-0.7874
X0.7874Y-0.7874
X0.7874Y-4.3307
X4.3307Y-4.3307
T8
X3.1807Y-2.8283
X1.8224Y-2.8283
X4.0862Y-2.8283
X0.9169Y-2.8283
X2.728Y-2.8283
X2.2752Y-2.8283
X1.3697Y-2.8283
X3.6335Y-2.8283
T0
M30
